<?xml version="1.0" encoding="UTF-8" standalone="no"?><svg xmlns="http://www.w3.org/2000/svg" xmlns:xlink="http://www.w3.org/1999/xlink" contentScriptType="application/ecmascript" contentStyleType="text/css" height="1231px" preserveAspectRatio="none" style="width:450px;height:1231px;" version="1.1" viewBox="0 0 450 1231" width="450px" zoomAndPan="magnify"><defs><filter height="300%" id="f1me9phohjafrf" width="300%" x="-1" y="-1"><feGaussianBlur result="blurOut" stdDeviation="2.0"/><feColorMatrix in="blurOut" result="blurOut2" type="matrix" values="0 0 0 0 0 0 0 0 0 0 0 0 0 0 0 0 0 0 .4 0"/><feOffset dx="4.0" dy="4.0" in="blurOut2" result="blurOut3"/><feBlend in="SourceGraphic" in2="blurOut3" mode="normal"/></filter></defs><g><rect fill="#FFFFFF" filter="url(#f1me9phohjafrf)" height="278.7276" style="stroke: #000000; stroke-width: 2.0;" width="228" x="39" y="10.5997"/><line style="stroke: #000000; stroke-width: 2.0;" x1="39" x2="267" y1="33.6573" y2="33.6573"/><text fill="#000000" font-family="sans-serif" font-size="14" lengthAdjust="spacingAndGlyphs" textLength="89" x="108.5" y="27.5575">::main() -&gt; int</text><ellipse cx="153" cy="59.6573" fill="#000000" filter="url(#f1me9phohjafrf)" rx="10" ry="10" style="stroke: none; stroke-width: 1.0;"/><rect fill="#FEFECE" filter="url(#f1me9phohjafrf)" height="36.335" rx="12.5" ry="12.5" style="stroke: #A80036; stroke-width: 1.5;" width="134" x="86" y="104.6573"/><text fill="#000000" font-family="sans-serif" font-size="12" lengthAdjust="spacingAndGlyphs" textLength="114" x="96" y="127.4782">::ExampleClass obj1;</text><rect fill="#90EE90" filter="url(#f1me9phohjafrf)" height="36.335" rx="12.5" ry="12.5" style="stroke: #A80036; stroke-width: 1.5;" width="208" x="49" y="175.9923"/><text fill="#000000" font-family="sans-serif" font-size="12" lengthAdjust="spacingAndGlyphs" textLength="188" x="59" y="198.8132">return (&amp;obj1)-&gt;switchExample(3)</text><ellipse cx="153" cy="258.3273" fill="#FFFFFF" filter="url(#f1me9phohjafrf)" rx="11" ry="11" style="stroke: #000000; stroke-width: 1.0;"/><ellipse cx="153" cy="258.3273" fill="#000000" rx="6" ry="6" style="stroke: #7F7F7F; stroke-width: 1.0;"/><rect fill="#FFFFFF" filter="url(#f1me9phohjafrf)" height="920.1461" style="stroke: #000000; stroke-width: 2.0;" width="428.5" x="10" y="299.9271"/><line style="stroke: #000000; stroke-width: 2.0;" x1="10" x2="438.5" y1="322.9846" y2="322.9846"/><text fill="#000000" font-family="sans-serif" font-size="14" lengthAdjust="spacingAndGlyphs" textLength="370" x="39.25" y="316.8848">::ExampleClass::switchExample(int const paramA) -&gt; int</text><ellipse cx="153" cy="348.9846" fill="#000000" filter="url(#f1me9phohjafrf)" rx="10" ry="10" style="stroke: none; stroke-width: 1.0;"/><rect fill="#FEFECE" filter="url(#f1me9phohjafrf)" height="36.335" rx="12.5" ry="12.5" style="stroke: #A80036; stroke-width: 1.5;" width="100" x="103" y="393.9846"/><text fill="#000000" font-family="sans-serif" font-size="12" lengthAdjust="spacingAndGlyphs" textLength="80" x="113" y="416.8055">int timestamp;</text><rect fill="#FEFECE" filter="url(#f1me9phohjafrf)" height="36.335" rx="12.5" ry="12.5" style="stroke: #A80036; stroke-width: 1.5;" width="139" x="83.5" y="465.3196"/><text fill="#000000" font-family="sans-serif" font-size="12" lengthAdjust="spacingAndGlyphs" textLength="119" x="93.5" y="488.1406">timestamp = ::time(0)</text><rect fill="#FEFECE" filter="url(#f1me9phohjafrf)" height="36.335" rx="12.5" ry="12.5" style="stroke: #A80036; stroke-width: 1.5;" width="211" x="47.5" y="536.6546"/><text fill="#000000" font-family="sans-serif" font-size="12" lengthAdjust="spacingAndGlyphs" textLength="191" x="57.5" y="559.4756">timestamp = timestamp + paramA</text><rect fill="#FFFFFF" filter="url(#f1me9phohjafrf)" height="392.4135" style="stroke: #000000; stroke-width: 2.0;" width="408.5" x="20" y="607.9897"/><path d="M130,608.9897 L130,639.1047 L120,649.1047 L20,649.1047 " fill="none" style="stroke: #000000; stroke-width: 2.0;"/><text fill="#000000" font-family="sans-serif" font-size="14" lengthAdjust="spacingAndGlyphs" textLength="47" x="23" y="623.9474">switch:</text><text fill="#000000" font-family="sans-serif" font-size="14" lengthAdjust="spacingAndGlyphs" textLength="100" x="23" y="643.005">timestamp % 3</text><polygon fill="#FEFECE" filter="url(#f1me9phohjafrf)" points="141,666.1047,165,666.1047,177,678.1047,165,690.1047,141,690.1047,129,678.1047,141,666.1047" style="stroke: #A80036; stroke-width: 1.5;"/><text fill="#000000" font-family="sans-serif" font-size="11" lengthAdjust="spacingAndGlyphs" textLength="14" x="146" y="682.3674">0 ?</text><text fill="#000000" font-family="sans-serif" font-size="11" lengthAdjust="spacingAndGlyphs" textLength="17" x="112" y="674.8857">yes</text><rect fill="#90EE90" filter="url(#f1me9phohjafrf)" height="36.335" rx="12.5" ry="12.5" style="stroke: #A80036; stroke-width: 1.5;" width="65" x="40" y="700.1047"/><text fill="#000000" font-family="sans-serif" font-size="12" lengthAdjust="spacingAndGlyphs" textLength="45" x="50" y="722.9257">return 0</text><ellipse cx="72.5" cy="782.4397" fill="#FFFFFF" filter="url(#f1me9phohjafrf)" rx="11" ry="11" style="stroke: #000000; stroke-width: 1.0;"/><ellipse cx="72.5" cy="782.4397" fill="#000000" rx="6" ry="6" style="stroke: #7F7F7F; stroke-width: 1.0;"/><path d="M312.5,718.2618 L312.5,745.9476 L408.5,745.9476 L408.5,728.2618 L398.5,718.2618 L312.5,718.2618 " fill="#FBFB77" filter="url(#f1me9phohjafrf)" style="stroke: #A80036; stroke-width: 1.0;"/><path d="M398.5,718.2618 L398.5,728.2618 L408.5,728.2618 L398.5,718.2618 " fill="#FBFB77" style="stroke: #A80036; stroke-width: 1.0;"/><text fill="#000000" font-family="sans-serif" font-size="13" lengthAdjust="spacingAndGlyphs" textLength="75" x="318.5" y="737.143">[fallthrough]</text><polygon fill="#FEFECE" filter="url(#f1me9phohjafrf)" points="221.5,700.1047,245.5,700.1047,257.5,712.1047,245.5,724.1047,221.5,724.1047,209.5,712.1047,221.5,700.1047" style="stroke: #A80036; stroke-width: 1.5;"/><text fill="#000000" font-family="sans-serif" font-size="11" lengthAdjust="spacingAndGlyphs" textLength="14" x="226.5" y="716.3674">1 ?</text><text fill="#000000" font-family="sans-serif" font-size="11" lengthAdjust="spacingAndGlyphs" textLength="17" x="192.5" y="708.8857">yes</text><polygon fill="#FEFECE" filter="url(#f1me9phohjafrf)" points="233.5,740.1047,245.5,752.1047,233.5,764.1047,221.5,752.1047,233.5,740.1047" style="stroke: #A80036; stroke-width: 1.5;"/><polygon fill="#FEFECE" filter="url(#f1me9phohjafrf)" points="221.5,799.1047,245.5,799.1047,257.5,811.1047,245.5,823.1047,221.5,823.1047,209.5,811.1047,221.5,799.1047" style="stroke: #A80036; stroke-width: 1.5;"/><text fill="#000000" font-family="sans-serif" font-size="11" lengthAdjust="spacingAndGlyphs" textLength="14" x="226.5" y="815.3674">2 ?</text><text fill="#000000" font-family="sans-serif" font-size="11" lengthAdjust="spacingAndGlyphs" textLength="17" x="192.5" y="807.8857">yes</text><rect fill="#90EE90" filter="url(#f1me9phohjafrf)" height="36.335" rx="12.5" ry="12.5" style="stroke: #A80036; stroke-width: 1.5;" width="65" x="135" y="833.1047"/><text fill="#000000" font-family="sans-serif" font-size="12" lengthAdjust="spacingAndGlyphs" textLength="45" x="145" y="855.9257">return 2</text><ellipse cx="167.5" cy="915.4397" fill="#FFFFFF" filter="url(#f1me9phohjafrf)" rx="11" ry="11" style="stroke: #000000; stroke-width: 1.0;"/><ellipse cx="167.5" cy="915.4397" fill="#000000" rx="6" ry="6" style="stroke: #7F7F7F; stroke-width: 1.0;"/><rect fill="#FEFECE" filter="url(#f1me9phohjafrf)" height="36.335" rx="12.5" ry="12.5" style="stroke: #A80036; stroke-width: 1.5;" width="139" x="230" y="882.5864"/><text fill="#000000" font-family="sans-serif" font-size="12" lengthAdjust="spacingAndGlyphs" textLength="119" x="240" y="905.4073">timestamp = ::time(0)</text><polygon fill="#FEFECE" filter="url(#f1me9phohjafrf)" points="278,833.1047,321,833.1047,333,845.1047,321,857.1047,278,857.1047,266,845.1047,278,833.1047" style="stroke: #A80036; stroke-width: 1.5;"/><text fill="#000000" font-family="sans-serif" font-size="11" lengthAdjust="spacingAndGlyphs" textLength="17" x="303.5" y="868.8491">yes</text><text fill="#000000" font-family="sans-serif" font-size="11" lengthAdjust="spacingAndGlyphs" textLength="37" x="281" y="849.3674">default</text><polygon fill="#FEFECE" filter="url(#f1me9phohjafrf)" points="299.5,944.4031,311.5,956.4031,299.5,968.4031,287.5,956.4031,299.5,944.4031" style="stroke: #A80036; stroke-width: 1.5;"/><rect fill="#FEFECE" filter="url(#f1me9phohjafrf)" height="36.335" rx="12.5" ry="12.5" style="stroke: #A80036; stroke-width: 1.5;" width="173" x="66.5" y="1035.4031"/><text fill="#000000" font-family="sans-serif" font-size="12" lengthAdjust="spacingAndGlyphs" textLength="153" x="76.5" y="1058.2241">timestamp = timestamp * 3</text><rect fill="#90EE90" filter="url(#f1me9phohjafrf)" height="36.335" rx="12.5" ry="12.5" style="stroke: #A80036; stroke-width: 1.5;" width="141" x="82.5" y="1106.7381"/><text fill="#000000" font-family="sans-serif" font-size="12" lengthAdjust="spacingAndGlyphs" textLength="121" x="92.5" y="1129.5591">return timestamp % 2</text><ellipse cx="153" cy="1189.0732" fill="#FFFFFF" filter="url(#f1me9phohjafrf)" rx="11" ry="11" style="stroke: #000000; stroke-width: 1.0;"/><ellipse cx="153" cy="1189.0732" fill="#000000" rx="6" ry="6" style="stroke: #7F7F7F; stroke-width: 1.0;"/><line style="stroke: #A80036; stroke-width: 1.5;" x1="153" x2="153" y1="69.6573" y2="104.6573"/><polygon fill="#A80036" points="149,94.6573,153,104.6573,157,94.6573,153,98.6573" style="stroke: #A80036; stroke-width: 1.0;"/><line style="stroke: #A80036; stroke-width: 1.5;" x1="153" x2="153" y1="140.9923" y2="175.9923"/><polygon fill="#A80036" points="149,165.9923,153,175.9923,157,165.9923,153,169.9923" style="stroke: #A80036; stroke-width: 1.0;"/><line style="stroke: #A80036; stroke-width: 1.5;" x1="153" x2="153" y1="212.3273" y2="247.3273"/><polygon fill="#A80036" points="149,237.3273,153,247.3273,157,237.3273,153,241.3273" style="stroke: #A80036; stroke-width: 1.0;"/><line style="stroke: #A80036; stroke-width: 1.5;" x1="153" x2="153" y1="358.9846" y2="393.9846"/><polygon fill="#A80036" points="149,383.9846,153,393.9846,157,383.9846,153,387.9846" style="stroke: #A80036; stroke-width: 1.0;"/><line style="stroke: #A80036; stroke-width: 1.5;" x1="153" x2="153" y1="430.3196" y2="465.3196"/><polygon fill="#A80036" points="149,455.3196,153,465.3196,157,455.3196,153,459.3196" style="stroke: #A80036; stroke-width: 1.0;"/><line style="stroke: #A80036; stroke-width: 1.5;" x1="153" x2="153" y1="501.6546" y2="536.6546"/><polygon fill="#A80036" points="149,526.6546,153,536.6546,157,526.6546,153,530.6546" style="stroke: #A80036; stroke-width: 1.0;"/><line style="stroke: #A80036; stroke-width: 1.5;" x1="72.5" x2="72.5" y1="736.4397" y2="771.4397"/><polygon fill="#A80036" points="68.5,761.4397,72.5,771.4397,76.5,761.4397,72.5,765.4397" style="stroke: #A80036; stroke-width: 1.0;"/><line style="stroke: #A80036; stroke-width: 1.5;" x1="209.5" x2="199.5" y1="712.1047" y2="712.1047"/><polygon fill="#A80036" points="195.5,722.1047,199.5,732.1047,203.5,722.1047,199.5,726.1047" style="stroke: #A80036; stroke-width: 1.5;"/><line style="stroke: #A80036; stroke-width: 1.5;" x1="199.5" x2="199.5" y1="712.1047" y2="752.1047"/><line style="stroke: #A80036; stroke-width: 1.5;" x1="199.5" x2="221.5" y1="752.1047" y2="752.1047"/><polygon fill="#A80036" points="211.5,748.1047,221.5,752.1047,211.5,756.1047,215.5,752.1047" style="stroke: #A80036; stroke-width: 1.0;"/><line style="stroke: #A80036; stroke-width: 1.5;" x1="257.5" x2="267.5" y1="712.1047" y2="712.1047"/><polygon fill="#A80036" points="263.5,722.1047,267.5,732.1047,271.5,722.1047,267.5,726.1047" style="stroke: #A80036; stroke-width: 1.5;"/><line style="stroke: #A80036; stroke-width: 1.5;" x1="267.5" x2="267.5" y1="712.1047" y2="752.1047"/><line style="stroke: #A80036; stroke-width: 1.5;" x1="267.5" x2="245.5" y1="752.1047" y2="752.1047"/><polygon fill="#A80036" points="255.5,748.1047,245.5,752.1047,255.5,756.1047,251.5,752.1047" style="stroke: #A80036; stroke-width: 1.0;"/><line style="stroke: #A80036; stroke-width: 1.5;" x1="167.5" x2="167.5" y1="869.4397" y2="904.4397"/><polygon fill="#A80036" points="163.5,894.4397,167.5,904.4397,171.5,894.4397,167.5,898.4397" style="stroke: #A80036; stroke-width: 1.0;"/><line style="stroke: #A80036; stroke-width: 1.5;" x1="299.5" x2="299.5" y1="857.1047" y2="882.5864"/><polygon fill="#A80036" points="295.5,872.5864,299.5,882.5864,303.5,872.5864,299.5,876.5864" style="stroke: #A80036; stroke-width: 1.0;"/><line style="stroke: #A80036; stroke-width: 1.5;" x1="299.5" x2="299.5" y1="918.9214" y2="944.4031"/><polygon fill="#A80036" points="295.5,934.4031,299.5,944.4031,303.5,934.4031,299.5,938.4031" style="stroke: #A80036; stroke-width: 1.0;"/><line style="stroke: #A80036; stroke-width: 1.5;" x1="209.5" x2="167.5" y1="811.1047" y2="811.1047"/><line style="stroke: #A80036; stroke-width: 1.5;" x1="167.5" x2="167.5" y1="811.1047" y2="833.1047"/><polygon fill="#A80036" points="163.5,823.1047,167.5,833.1047,171.5,823.1047,167.5,827.1047" style="stroke: #A80036; stroke-width: 1.0;"/><line style="stroke: #A80036; stroke-width: 1.5;" x1="257.5" x2="299.5" y1="811.1047" y2="811.1047"/><line style="stroke: #A80036; stroke-width: 1.5;" x1="299.5" x2="299.5" y1="811.1047" y2="833.1047"/><polygon fill="#A80036" points="295.5,823.1047,299.5,833.1047,303.5,823.1047,299.5,827.1047" style="stroke: #A80036; stroke-width: 1.0;"/><line style="stroke: #A80036; stroke-width: 1.5;" x1="299.5" x2="299.5" y1="968.4031" y2="980.4031"/><line style="stroke: #A80036; stroke-width: 1.5;" x1="299.5" x2="153" y1="980.4031" y2="980.4031"/><line style="stroke: #A80036; stroke-width: 1.5;" x1="153" x2="153" y1="980.4031" y2="1035.4031"/><polygon fill="#A80036" points="149,1025.4031,153,1035.4031,157,1025.4031,153,1029.4031" style="stroke: #A80036; stroke-width: 1.0;"/><line style="stroke: #A80036; stroke-width: 1.5;" x1="233.5" x2="233.5" y1="764.1047" y2="799.1047"/><polygon fill="#A80036" points="229.5,789.1047,233.5,799.1047,237.5,789.1047,233.5,793.1047" style="stroke: #A80036; stroke-width: 1.0;"/><line style="stroke: #A80036; stroke-width: 1.5;" x1="129" x2="72.5" y1="678.1047" y2="678.1047"/><line style="stroke: #A80036; stroke-width: 1.5;" x1="72.5" x2="72.5" y1="678.1047" y2="700.1047"/><polygon fill="#A80036" points="68.5,690.1047,72.5,700.1047,76.5,690.1047,72.5,694.1047" style="stroke: #A80036; stroke-width: 1.0;"/><line style="stroke: #A80036; stroke-width: 1.5;" x1="177" x2="233.5" y1="678.1047" y2="678.1047"/><line style="stroke: #A80036; stroke-width: 1.5;" x1="233.5" x2="233.5" y1="678.1047" y2="700.1047"/><polygon fill="#A80036" points="229.5,690.1047,233.5,700.1047,237.5,690.1047,233.5,694.1047" style="stroke: #A80036; stroke-width: 1.0;"/><line style="stroke: #A80036; stroke-width: 1.5;" x1="153" x2="153" y1="572.9897" y2="666.1047"/><polygon fill="#A80036" points="149,656.1047,153,666.1047,157,656.1047,153,660.1047" style="stroke: #A80036; stroke-width: 1.0;"/><line style="stroke: #A80036; stroke-width: 1.5;" x1="153" x2="153" y1="1071.7381" y2="1106.7381"/><polygon fill="#A80036" points="149,1096.7381,153,1106.7381,157,1096.7381,153,1100.7381" style="stroke: #A80036; stroke-width: 1.0;"/><line style="stroke: #A80036; stroke-width: 1.5;" x1="153" x2="153" y1="1143.0732" y2="1178.0732"/><polygon fill="#A80036" points="149,1168.0732,153,1178.0732,157,1168.0732,153,1172.0732" style="stroke: #A80036; stroke-width: 1.0;"/><!--MD5=[f5b94f9d1577aaddb0aa7b6b1bc4fcdd]
@startuml

card "::main() -> int" {
    start
    :::ExampleClass obj1;;
    #lightgreen:return (&obj1)->switchExample(3);
    stop
}

card "::ExampleClass::switchExample(int const paramA) -> int" {
    start
    :int timestamp;;
    :timestamp = ::time(0);
    :timestamp = timestamp + paramA;

partition "switch:\ntimestamp % 3" {
    if ( 0 ? ) then (yes)
        #lightgreen:return 0;
        stop
    else
        if ( 1 ? ) then (yes)
        endif
        note right: [fallthrough]
        if ( 2 ? ) then (yes)
            #lightgreen:return 2;
            stop
        else
            if ( default ) then (yes)
                :timestamp = ::time(0);
            else
                -[hidden]->
            endif
        endif
    endif
}
    :timestamp = timestamp * 3;
    #lightgreen:return timestamp % 2;
    stop
}


@enduml

PlantUML version 1.2020.02(Sun Mar 01 11:22:07 CET 2020)
(GPL source distribution)
Java Runtime: Java(TM) SE Runtime Environment
JVM: Java HotSpot(TM) 64-Bit Server VM
Java Version: 1.8.0_212-b10
Operating System: Linux
Default Encoding: UTF-8
Language: en
Country: US
--></g></svg>