<?xml version="1.0" encoding="UTF-8" standalone="no"?><svg xmlns="http://www.w3.org/2000/svg" xmlns:xlink="http://www.w3.org/1999/xlink" contentScriptType="application/ecmascript" contentStyleType="text/css" height="1694px" preserveAspectRatio="none" style="width:428px;height:1694px;" version="1.1" viewBox="0 0 428 1694" width="428px" zoomAndPan="magnify"><defs><filter height="300%" id="f6kgtuke933tv" width="300%" x="-1" y="-1"><feGaussianBlur result="blurOut" stdDeviation="2.0"/><feColorMatrix in="blurOut" result="blurOut2" type="matrix" values="0 0 0 0 0 0 0 0 0 0 0 0 0 0 0 0 0 0 .4 0"/><feOffset dx="4.0" dy="4.0" in="blurOut2" result="blurOut3"/><feBlend in="SourceGraphic" in2="blurOut3" mode="normal"/></filter></defs><g><rect fill="#FFFFFF" filter="url(#f6kgtuke933tv)" height="223.7276" style="stroke: #000000; stroke-width: 2.0;" width="228" x="99" y="10.5997"/><line style="stroke: #000000; stroke-width: 2.0;" x1="99" x2="327" y1="33.6573" y2="33.6573"/><text fill="#000000" font-family="sans-serif" font-size="14" lengthAdjust="spacingAndGlyphs" textLength="89" x="168.5" y="27.5575">::main() -&gt; int</text><rect fill="#FEFECE" filter="url(#f6kgtuke933tv)" height="36.335" rx="12.5" ry="12.5" style="stroke: #A80036; stroke-width: 1.5;" width="131" x="147.5" y="49.6573"/><text fill="#000000" font-family="sans-serif" font-size="12" lengthAdjust="spacingAndGlyphs" textLength="111" x="157.5" y="72.4782">::ExampleClass obj1</text><rect fill="#90EE90" filter="url(#f6kgtuke933tv)" height="36.335" rx="12.5" ry="12.5" style="stroke: #A80036; stroke-width: 1.5;" width="208" x="109" y="120.9923"/><text fill="#000000" font-family="sans-serif" font-size="12" lengthAdjust="spacingAndGlyphs" textLength="188" x="119" y="143.8132">return (&amp;obj1)-&gt;switchExample(3)</text><ellipse cx="213" cy="203.3273" fill="#FFFFFF" filter="url(#f6kgtuke933tv)" rx="11" ry="11" style="stroke: #000000; stroke-width: 1.0;"/><ellipse cx="213" cy="203.3273" fill="#000000" rx="6" ry="6" style="stroke: #7F7F7F; stroke-width: 1.0;"/><rect fill="#FFFFFF" filter="url(#f6kgtuke933tv)" height="1439.0413" style="stroke: #000000; stroke-width: 2.0;" width="406" x="10" y="244.9271"/><line style="stroke: #000000; stroke-width: 2.0;" x1="10" x2="416" y1="267.9846" y2="267.9846"/><text fill="#000000" font-family="sans-serif" font-size="14" lengthAdjust="spacingAndGlyphs" textLength="370" x="28" y="261.8848">::ExampleClass::switchExample(int const paramA) -&gt; int</text><rect fill="#FEFECE" filter="url(#f6kgtuke933tv)" height="36.335" rx="12.5" ry="12.5" style="stroke: #A80036; stroke-width: 1.5;" width="97" x="164.5" y="283.9846"/><text fill="#000000" font-family="sans-serif" font-size="12" lengthAdjust="spacingAndGlyphs" textLength="77" x="174.5" y="306.8055">int timestamp</text><rect fill="#FEFECE" filter="url(#f6kgtuke933tv)" height="36.335" rx="12.5" ry="12.5" style="stroke: #A80036; stroke-width: 1.5;" width="139" x="143.5" y="355.3196"/><text fill="#000000" font-family="sans-serif" font-size="12" lengthAdjust="spacingAndGlyphs" textLength="119" x="153.5" y="378.1406">timestamp = ::time(0)</text><rect fill="#FEFECE" filter="url(#f6kgtuke933tv)" height="36.335" rx="12.5" ry="12.5" style="stroke: #A80036; stroke-width: 1.5;" width="211" x="107.5" y="476.1363"/><text fill="#000000" font-family="sans-serif" font-size="12" lengthAdjust="spacingAndGlyphs" textLength="191" x="117.5" y="498.9573">timestamp = timestamp + paramA</text><polygon fill="#FEFECE" filter="url(#f6kgtuke933tv)" points="159.5,426.6546,266.5,426.6546,278.5,438.6546,266.5,450.6546,159.5,450.6546,147.5,438.6546,159.5,426.6546" style="stroke: #A80036; stroke-width: 1.5;"/><text fill="#000000" font-family="sans-serif" font-size="11" lengthAdjust="spacingAndGlyphs" textLength="22" x="217" y="462.399">true</text><text fill="#000000" font-family="sans-serif" font-size="11" lengthAdjust="spacingAndGlyphs" textLength="107" x="159.5" y="442.9173">timestamp &amp; 1 == 0 ?</text><text fill="#000000" font-family="sans-serif" font-size="11" lengthAdjust="spacingAndGlyphs" textLength="24" x="278.5" y="435.4356">false</text><polygon fill="#FEFECE" filter="url(#f6kgtuke933tv)" points="213,537.953,225,549.953,213,561.953,201,549.953,213,537.953" style="stroke: #A80036; stroke-width: 1.5;"/><rect fill="#FFFFFF" filter="url(#f6kgtuke933tv)" height="732.0103" style="stroke: #000000; stroke-width: 2.0;" width="265" x="86.5" y="596.953"/><path d="M196.5,597.953 L196.5,628.0681 L186.5,638.0681 L86.5,638.0681 " fill="none" style="stroke: #000000; stroke-width: 2.0;"/><text fill="#000000" font-family="sans-serif" font-size="14" lengthAdjust="spacingAndGlyphs" textLength="47" x="89.5" y="612.9108">switch:</text><text fill="#000000" font-family="sans-serif" font-size="14" lengthAdjust="spacingAndGlyphs" textLength="100" x="89.5" y="631.9683">timestamp % 3</text><polygon fill="#FEFECE" filter="url(#f6kgtuke933tv)" points="171,704.5498,255,704.5498,267,716.5498,255,728.5498,171,728.5498,159,716.5498,171,704.5498" style="stroke: #A80036; stroke-width: 1.5;"/><text fill="#000000" font-family="sans-serif" font-size="11" lengthAdjust="spacingAndGlyphs" textLength="84" x="171" y="720.8125">timestamp != 0 ?</text><text fill="#000000" font-family="sans-serif" font-size="11" lengthAdjust="spacingAndGlyphs" textLength="22" x="137" y="713.3308">true</text><text fill="#000000" font-family="sans-serif" font-size="11" lengthAdjust="spacingAndGlyphs" textLength="24" x="267" y="713.3308">false</text><rect fill="#90EE90" filter="url(#f6kgtuke933tv)" height="36.335" rx="12.5" ry="12.5" style="stroke: #A80036; stroke-width: 1.5;" width="65" x="116.5" y="738.5498"/><text fill="#000000" font-family="sans-serif" font-size="12" lengthAdjust="spacingAndGlyphs" textLength="45" x="126.5" y="761.3707">return 0</text><ellipse cx="149" cy="820.8848" fill="#FFFFFF" filter="url(#f6kgtuke933tv)" rx="11" ry="11" style="stroke: #000000; stroke-width: 1.0;"/><ellipse cx="149" cy="820.8848" fill="#000000" rx="6" ry="6" style="stroke: #7F7F7F; stroke-width: 1.0;"/><rect fill="#90EE90" filter="url(#f6kgtuke933tv)" height="36.335" rx="12.5" ry="12.5" style="stroke: #A80036; stroke-width: 1.5;" width="65" x="244.5" y="738.5498"/><text fill="#000000" font-family="sans-serif" font-size="12" lengthAdjust="spacingAndGlyphs" textLength="45" x="254.5" y="761.3707">return 1</text><ellipse cx="277" cy="820.8848" fill="#FFFFFF" filter="url(#f6kgtuke933tv)" rx="11" ry="11" style="stroke: #000000; stroke-width: 1.0;"/><ellipse cx="277" cy="820.8848" fill="#000000" rx="6" ry="6" style="stroke: #7F7F7F; stroke-width: 1.0;"/><polygon fill="#FEFECE" filter="url(#f6kgtuke933tv)" points="201,655.0681,225,655.0681,237,667.0681,225,679.0681,201,679.0681,189,667.0681,201,655.0681" style="stroke: #A80036; stroke-width: 1.5;"/><text fill="#000000" font-family="sans-serif" font-size="11" lengthAdjust="spacingAndGlyphs" textLength="17" x="217" y="690.8125">yes</text><text fill="#000000" font-family="sans-serif" font-size="11" lengthAdjust="spacingAndGlyphs" textLength="14" x="206" y="671.3308">0 ?</text><polygon fill="#FEFECE" filter="url(#f6kgtuke933tv)" points="201,904.3665,225,904.3665,237,916.3665,225,928.3665,201,928.3665,189,916.3665,201,904.3665" style="stroke: #A80036; stroke-width: 1.5;"/><text fill="#000000" font-family="sans-serif" font-size="11" lengthAdjust="spacingAndGlyphs" textLength="14" x="206" y="920.6292">1 ?</text><text fill="#000000" font-family="sans-serif" font-size="11" lengthAdjust="spacingAndGlyphs" textLength="17" x="172" y="913.1475">yes</text><polygon fill="#FEFECE" filter="url(#f6kgtuke933tv)" points="213,944.3665,225,956.3665,213,968.3665,201,956.3665,213,944.3665" style="stroke: #A80036; stroke-width: 1.5;"/><rect fill="#FEFECE" filter="url(#f6kgtuke933tv)" height="36.335" rx="12.5" ry="12.5" style="stroke: #A80036; stroke-width: 1.5;" width="211" x="107.5" y="1052.8482"/><text fill="#000000" font-family="sans-serif" font-size="12" lengthAdjust="spacingAndGlyphs" textLength="191" x="117.5" y="1075.6691">timestamp = timestamp + paramA</text><polygon fill="#FEFECE" filter="url(#f6kgtuke933tv)" points="201,1003.3665,225,1003.3665,237,1015.3665,225,1027.3665,201,1027.3665,189,1015.3665,201,1003.3665" style="stroke: #A80036; stroke-width: 1.5;"/><text fill="#000000" font-family="sans-serif" font-size="11" lengthAdjust="spacingAndGlyphs" textLength="17" x="217" y="1039.1109">yes</text><text fill="#000000" font-family="sans-serif" font-size="11" lengthAdjust="spacingAndGlyphs" textLength="14" x="206" y="1019.6292">2 ?</text><polygon fill="#FEFECE" filter="url(#f6kgtuke933tv)" points="213,1114.6649,225,1126.6649,213,1138.6649,201,1126.6649,213,1114.6649" style="stroke: #A80036; stroke-width: 1.5;"/><rect fill="#FEFECE" filter="url(#f6kgtuke933tv)" height="36.335" rx="12.5" ry="12.5" style="stroke: #A80036; stroke-width: 1.5;" width="139" x="143.5" y="1223.1466"/><text fill="#000000" font-family="sans-serif" font-size="12" lengthAdjust="spacingAndGlyphs" textLength="119" x="153.5" y="1245.9675">timestamp = ::time(0)</text><polygon fill="#FEFECE" filter="url(#f6kgtuke933tv)" points="191.5,1173.6649,234.5,1173.6649,246.5,1185.6649,234.5,1197.6649,191.5,1197.6649,179.5,1185.6649,191.5,1173.6649" style="stroke: #A80036; stroke-width: 1.5;"/><text fill="#000000" font-family="sans-serif" font-size="11" lengthAdjust="spacingAndGlyphs" textLength="17" x="217" y="1209.4093">yes</text><text fill="#000000" font-family="sans-serif" font-size="11" lengthAdjust="spacingAndGlyphs" textLength="37" x="194.5" y="1189.9276">default</text><polygon fill="#FEFECE" filter="url(#f6kgtuke933tv)" points="213,1284.9633,225,1296.9633,213,1308.9633,201,1296.9633,213,1284.9633" style="stroke: #A80036; stroke-width: 1.5;"/><rect fill="#FEFECE" filter="url(#f6kgtuke933tv)" height="36.335" rx="12.5" ry="12.5" style="stroke: #A80036; stroke-width: 1.5;" width="173" x="126.5" y="1363.9633"/><text fill="#000000" font-family="sans-serif" font-size="12" lengthAdjust="spacingAndGlyphs" textLength="153" x="136.5" y="1386.7842">timestamp = timestamp * 3</text><polygon fill="#FEFECE" filter="url(#f6kgtuke933tv)" points="159.5,1435.2983,266.5,1435.2983,278.5,1447.2983,266.5,1459.2983,159.5,1459.2983,147.5,1447.2983,159.5,1435.2983" style="stroke: #A80036; stroke-width: 1.5;"/><text fill="#000000" font-family="sans-serif" font-size="11" lengthAdjust="spacingAndGlyphs" textLength="107" x="159.5" y="1451.561">timestamp &amp; 1 == 0 ?</text><text fill="#000000" font-family="sans-serif" font-size="11" lengthAdjust="spacingAndGlyphs" textLength="22" x="125.5" y="1444.0793">true</text><text fill="#000000" font-family="sans-serif" font-size="11" lengthAdjust="spacingAndGlyphs" textLength="24" x="278.5" y="1444.0793">false</text><rect fill="#FEFECE" filter="url(#f6kgtuke933tv)" height="36.335" rx="12.5" ry="12.5" style="stroke: #A80036; stroke-width: 1.5;" width="173" x="30" y="1469.2983"/><text fill="#000000" font-family="sans-serif" font-size="12" lengthAdjust="spacingAndGlyphs" textLength="153" x="40" y="1492.1193">timestamp = timestamp + 1</text><rect fill="#FEFECE" filter="url(#f6kgtuke933tv)" height="36.335" rx="12.5" ry="12.5" style="stroke: #A80036; stroke-width: 1.5;" width="173" x="223" y="1469.2983"/><text fill="#000000" font-family="sans-serif" font-size="12" lengthAdjust="spacingAndGlyphs" textLength="153" x="233" y="1492.1193">timestamp = timestamp + 2</text><polygon fill="#FEFECE" filter="url(#f6kgtuke933tv)" points="213,1511.6333,225,1523.6333,213,1535.6333,201,1523.6333,213,1511.6333" style="stroke: #A80036; stroke-width: 1.5;"/><rect fill="#90EE90" filter="url(#f6kgtuke933tv)" height="36.335" rx="12.5" ry="12.5" style="stroke: #A80036; stroke-width: 1.5;" width="141" x="142.5" y="1570.6333"/><text fill="#000000" font-family="sans-serif" font-size="12" lengthAdjust="spacingAndGlyphs" textLength="121" x="152.5" y="1593.4543">return timestamp % 2</text><ellipse cx="213" cy="1652.9684" fill="#FFFFFF" filter="url(#f6kgtuke933tv)" rx="11" ry="11" style="stroke: #000000; stroke-width: 1.0;"/><ellipse cx="213" cy="1652.9684" fill="#000000" rx="6" ry="6" style="stroke: #7F7F7F; stroke-width: 1.0;"/><line style="stroke: #A80036; stroke-width: 1.5;" x1="213" x2="213" y1="85.9923" y2="120.9923"/><polygon fill="#A80036" points="209,110.9923,213,120.9923,217,110.9923,213,114.9923" style="stroke: #A80036; stroke-width: 1.0;"/><line style="stroke: #A80036; stroke-width: 1.5;" x1="213" x2="213" y1="157.3273" y2="192.3273"/><polygon fill="#A80036" points="209,182.3273,213,192.3273,217,182.3273,213,186.3273" style="stroke: #A80036; stroke-width: 1.0;"/><line style="stroke: #A80036; stroke-width: 1.5;" x1="213" x2="213" y1="320.3196" y2="355.3196"/><polygon fill="#A80036" points="209,345.3196,213,355.3196,217,345.3196,213,349.3196" style="stroke: #A80036; stroke-width: 1.0;"/><line style="stroke: #A80036; stroke-width: 1.5;" x1="213" x2="213" y1="450.6546" y2="476.1363"/><polygon fill="#A80036" points="209,466.1363,213,476.1363,217,466.1363,213,470.1363" style="stroke: #A80036; stroke-width: 1.0;"/><line style="stroke: #A80036; stroke-width: 1.5;" x1="278.5" x2="328.5" y1="438.6546" y2="438.6546"/><polygon fill="#A80036" points="324.5,484.3038,328.5,494.3038,332.5,484.3038,328.5,488.3038" style="stroke: #A80036; stroke-width: 1.5;"/><line style="stroke: #A80036; stroke-width: 1.5;" x1="328.5" x2="328.5" y1="438.6546" y2="549.953"/><line style="stroke: #A80036; stroke-width: 1.5;" x1="328.5" x2="225" y1="549.953" y2="549.953"/><polygon fill="#A80036" points="235,545.953,225,549.953,235,553.953,231,549.953" style="stroke: #A80036; stroke-width: 1.0;"/><line style="stroke: #A80036; stroke-width: 1.5;" x1="213" x2="213" y1="512.4713" y2="537.953"/><polygon fill="#A80036" points="209,527.953,213,537.953,217,527.953,213,531.953" style="stroke: #A80036; stroke-width: 1.0;"/><line style="stroke: #A80036; stroke-width: 1.5;" x1="213" x2="213" y1="391.6546" y2="426.6546"/><polygon fill="#A80036" points="209,416.6546,213,426.6546,217,416.6546,213,420.6546" style="stroke: #A80036; stroke-width: 1.0;"/><line style="stroke: #A80036; stroke-width: 1.5;" x1="149" x2="149" y1="774.8848" y2="809.8848"/><polygon fill="#A80036" points="145,799.8848,149,809.8848,153,799.8848,149,803.8848" style="stroke: #A80036; stroke-width: 1.0;"/><line style="stroke: #A80036; stroke-width: 1.5;" x1="277" x2="277" y1="774.8848" y2="809.8848"/><polygon fill="#A80036" points="273,799.8848,277,809.8848,281,799.8848,277,803.8848" style="stroke: #A80036; stroke-width: 1.0;"/><line style="stroke: #A80036; stroke-width: 1.5;" x1="159" x2="149" y1="716.5498" y2="716.5498"/><line style="stroke: #A80036; stroke-width: 1.5;" x1="149" x2="149" y1="716.5498" y2="738.5498"/><polygon fill="#A80036" points="145,728.5498,149,738.5498,153,728.5498,149,732.5498" style="stroke: #A80036; stroke-width: 1.0;"/><line style="stroke: #A80036; stroke-width: 1.5;" x1="267" x2="277" y1="716.5498" y2="716.5498"/><line style="stroke: #A80036; stroke-width: 1.5;" x1="277" x2="277" y1="716.5498" y2="738.5498"/><polygon fill="#A80036" points="273,728.5498,277,738.5498,281,728.5498,277,732.5498" style="stroke: #A80036; stroke-width: 1.0;"/><line style="stroke: #A80036; stroke-width: 1.5;" x1="213" x2="213" y1="679.0681" y2="704.5498"/><polygon fill="#A80036" points="209,694.5498,213,704.5498,217,694.5498,213,698.5498" style="stroke: #A80036; stroke-width: 1.0;"/><line style="stroke: #A80036; stroke-width: 1.5;" x1="237" x2="329.5" y1="667.0681" y2="667.0681"/><polygon fill="#A80036" points="325.5,758.2173,329.5,768.2173,333.5,758.2173,329.5,762.2173" style="stroke: #A80036; stroke-width: 1.5;"/><line style="stroke: #A80036; stroke-width: 1.5;" x1="329.5" x2="329.5" y1="667.0681" y2="869.3665"/><line style="stroke: #A80036; stroke-width: 1.5;" x1="329.5" x2="213" y1="869.3665" y2="869.3665"/><line style="stroke: #A80036; stroke-width: 1.5;" x1="213" x2="213" y1="869.3665" y2="904.3665"/><polygon fill="#A80036" points="209,894.3665,213,904.3665,217,894.3665,213,898.3665" style="stroke: #A80036; stroke-width: 1.0;"/><line style="stroke: #A80036; stroke-width: 1.5;" x1="189" x2="179" y1="916.3665" y2="916.3665"/><polygon fill="#A80036" points="175,926.3665,179,936.3665,183,926.3665,179,930.3665" style="stroke: #A80036; stroke-width: 1.5;"/><line style="stroke: #A80036; stroke-width: 1.5;" x1="179" x2="179" y1="916.3665" y2="956.3665"/><line style="stroke: #A80036; stroke-width: 1.5;" x1="179" x2="201" y1="956.3665" y2="956.3665"/><polygon fill="#A80036" points="191,952.3665,201,956.3665,191,960.3665,195,956.3665" style="stroke: #A80036; stroke-width: 1.0;"/><line style="stroke: #A80036; stroke-width: 1.5;" x1="237" x2="247" y1="916.3665" y2="916.3665"/><polygon fill="#A80036" points="243,926.3665,247,936.3665,251,926.3665,247,930.3665" style="stroke: #A80036; stroke-width: 1.5;"/><line style="stroke: #A80036; stroke-width: 1.5;" x1="247" x2="247" y1="916.3665" y2="956.3665"/><line style="stroke: #A80036; stroke-width: 1.5;" x1="247" x2="225" y1="956.3665" y2="956.3665"/><polygon fill="#A80036" points="235,952.3665,225,956.3665,235,960.3665,231,956.3665" style="stroke: #A80036; stroke-width: 1.0;"/><line style="stroke: #A80036; stroke-width: 1.5;" x1="213" x2="213" y1="1027.3665" y2="1052.8482"/><polygon fill="#A80036" points="209,1042.8482,213,1052.8482,217,1042.8482,213,1046.8482" style="stroke: #A80036; stroke-width: 1.0;"/><line style="stroke: #A80036; stroke-width: 1.5;" x1="237" x2="328.5" y1="1015.3665" y2="1015.3665"/><polygon fill="#A80036" points="324.5,1061.0157,328.5,1071.0157,332.5,1061.0157,328.5,1065.0157" style="stroke: #A80036; stroke-width: 1.5;"/><line style="stroke: #A80036; stroke-width: 1.5;" x1="328.5" x2="328.5" y1="1015.3665" y2="1126.6649"/><line style="stroke: #A80036; stroke-width: 1.5;" x1="328.5" x2="225" y1="1126.6649" y2="1126.6649"/><polygon fill="#A80036" points="235,1122.6649,225,1126.6649,235,1130.6649,231,1126.6649" style="stroke: #A80036; stroke-width: 1.0;"/><line style="stroke: #A80036; stroke-width: 1.5;" x1="213" x2="213" y1="1089.1832" y2="1114.6649"/><polygon fill="#A80036" points="209,1104.6649,213,1114.6649,217,1104.6649,213,1108.6649" style="stroke: #A80036; stroke-width: 1.0;"/><line style="stroke: #A80036; stroke-width: 1.5;" x1="213" x2="213" y1="968.3665" y2="1003.3665"/><polygon fill="#A80036" points="209,993.3665,213,1003.3665,217,993.3665,213,997.3665" style="stroke: #A80036; stroke-width: 1.0;"/><line style="stroke: #A80036; stroke-width: 1.5;" x1="213" x2="213" y1="1197.6649" y2="1223.1466"/><polygon fill="#A80036" points="209,1213.1466,213,1223.1466,217,1213.1466,213,1217.1466" style="stroke: #A80036; stroke-width: 1.0;"/><line style="stroke: #A80036; stroke-width: 1.5;" x1="213" x2="213" y1="1259.4816" y2="1284.9633"/><polygon fill="#A80036" points="209,1274.9633,213,1284.9633,217,1274.9633,213,1278.9633" style="stroke: #A80036; stroke-width: 1.0;"/><line style="stroke: #A80036; stroke-width: 1.5;" x1="213" x2="213" y1="1138.6649" y2="1173.6649"/><polygon fill="#A80036" points="209,1163.6649,213,1173.6649,217,1163.6649,213,1167.6649" style="stroke: #A80036; stroke-width: 1.0;"/><line style="stroke: #A80036; stroke-width: 1.5;" x1="213" x2="213" y1="561.953" y2="655.0681"/><polygon fill="#A80036" points="209,645.0681,213,655.0681,217,645.0681,213,649.0681" style="stroke: #A80036; stroke-width: 1.0;"/><line style="stroke: #A80036; stroke-width: 1.5;" x1="213" x2="213" y1="1308.9633" y2="1363.9633"/><polygon fill="#A80036" points="209,1353.9633,213,1363.9633,217,1353.9633,213,1357.9633" style="stroke: #A80036; stroke-width: 1.0;"/><line style="stroke: #A80036; stroke-width: 1.5;" x1="147.5" x2="116.5" y1="1447.2983" y2="1447.2983"/><line style="stroke: #A80036; stroke-width: 1.5;" x1="116.5" x2="116.5" y1="1447.2983" y2="1469.2983"/><polygon fill="#A80036" points="112.5,1459.2983,116.5,1469.2983,120.5,1459.2983,116.5,1463.2983" style="stroke: #A80036; stroke-width: 1.0;"/><line style="stroke: #A80036; stroke-width: 1.5;" x1="278.5" x2="309.5" y1="1447.2983" y2="1447.2983"/><line style="stroke: #A80036; stroke-width: 1.5;" x1="309.5" x2="309.5" y1="1447.2983" y2="1469.2983"/><polygon fill="#A80036" points="305.5,1459.2983,309.5,1469.2983,313.5,1459.2983,309.5,1463.2983" style="stroke: #A80036; stroke-width: 1.0;"/><line style="stroke: #A80036; stroke-width: 1.5;" x1="116.5" x2="116.5" y1="1505.6333" y2="1523.6333"/><line style="stroke: #A80036; stroke-width: 1.5;" x1="116.5" x2="201" y1="1523.6333" y2="1523.6333"/><polygon fill="#A80036" points="191,1519.6333,201,1523.6333,191,1527.6333,195,1523.6333" style="stroke: #A80036; stroke-width: 1.0;"/><line style="stroke: #A80036; stroke-width: 1.5;" x1="309.5" x2="309.5" y1="1505.6333" y2="1523.6333"/><line style="stroke: #A80036; stroke-width: 1.5;" x1="309.5" x2="225" y1="1523.6333" y2="1523.6333"/><polygon fill="#A80036" points="235,1519.6333,225,1523.6333,235,1527.6333,231,1523.6333" style="stroke: #A80036; stroke-width: 1.0;"/><line style="stroke: #A80036; stroke-width: 1.5;" x1="213" x2="213" y1="1400.2983" y2="1435.2983"/><polygon fill="#A80036" points="209,1425.2983,213,1435.2983,217,1425.2983,213,1429.2983" style="stroke: #A80036; stroke-width: 1.0;"/><line style="stroke: #A80036; stroke-width: 1.5;" x1="213" x2="213" y1="1535.6333" y2="1570.6333"/><polygon fill="#A80036" points="209,1560.6333,213,1570.6333,217,1560.6333,213,1564.6333" style="stroke: #A80036; stroke-width: 1.0;"/><line style="stroke: #A80036; stroke-width: 1.5;" x1="213" x2="213" y1="1606.9684" y2="1641.9684"/><polygon fill="#A80036" points="209,1631.9684,213,1641.9684,217,1631.9684,213,1635.9684" style="stroke: #A80036; stroke-width: 1.0;"/><!--MD5=[dd6f19a2b0e5d42a43cda5a5330df31f]
@startuml

card "::main() -> int" {
    :::ExampleClass obj1;
    #lightgreen:return (&obj1)->switchExample(3);
    stop
    -[hidden]->
}

card "::ExampleClass::switchExample(int const paramA) -> int" {
    :int timestamp;
    :timestamp = ::time(0);
    if (timestamp & 1 == 0 ?) then (true)
        :timestamp = timestamp + paramA;
    else (false)
    endif

partition "switch:\ntimestamp % 3" {
    if ( 0 ? ) then (yes)
        if (timestamp != 0 ?) then (true)
            #lightgreen:return 0;
            stop
        else (false)
            #lightgreen:return 1;
            stop
        endif
    endif
    if ( 1 ? ) then (yes)
    endif
    if ( 2 ? ) then (yes)
        :timestamp = timestamp + paramA;
    endif
    if ( default ) then (yes)
        :timestamp = ::time(0);
    else
        -[hidden]->
    endif
}
    :timestamp = timestamp * 3;
    if (timestamp & 1 == 0 ?) then (true)
        :timestamp = timestamp + 1;
    else (false)
        :timestamp = timestamp + 2;
    endif
    #lightgreen:return timestamp % 2;
    stop
    -[hidden]->
}


@enduml

PlantUML version 1.2020.02(Sun Mar 01 11:22:07 CET 2020)
(GPL source distribution)
Java Runtime: Java(TM) SE Runtime Environment
JVM: Java HotSpot(TM) 64-Bit Server VM
Java Version: 1.8.0_212-b10
Operating System: Linux
Default Encoding: UTF-8
Language: en
Country: US
--></g></svg>