<?xml version="1.0" encoding="UTF-8" standalone="no"?><svg xmlns="http://www.w3.org/2000/svg" xmlns:xlink="http://www.w3.org/1999/xlink" contentScriptType="application/ecmascript" contentStyleType="text/css" height="1499px" preserveAspectRatio="none" style="width:412px;height:1499px;" version="1.1" viewBox="0 0 412 1499" width="412px" zoomAndPan="magnify"><defs><filter height="300%" id="f9vciti1nt703" width="300%" x="-1" y="-1"><feGaussianBlur result="blurOut" stdDeviation="2.0"/><feColorMatrix in="blurOut" result="blurOut2" type="matrix" values="0 0 0 0 0 0 0 0 0 0 0 0 0 0 0 0 0 0 .4 0"/><feOffset dx="4.0" dy="4.0" in="blurOut2" result="blurOut3"/><feBlend in="SourceGraphic" in2="blurOut3" mode="normal"/></filter></defs><g><rect fill="#FFFFFF" filter="url(#f9vciti1nt703)" height="223.7276" style="stroke: #000000; stroke-width: 2.0;" width="228" x="85" y="10.5997"/><line style="stroke: #000000; stroke-width: 2.0;" x1="85" x2="313" y1="33.6573" y2="33.6573"/><text fill="#000000" font-family="sans-serif" font-size="14" lengthAdjust="spacingAndGlyphs" textLength="89" x="154.5" y="27.5575">::main() -&gt; int</text><rect fill="#FEFECE" filter="url(#f9vciti1nt703)" height="36.335" rx="12.5" ry="12.5" style="stroke: #A80036; stroke-width: 1.5;" width="134" x="132" y="49.6573"/><text fill="#000000" font-family="sans-serif" font-size="12" lengthAdjust="spacingAndGlyphs" textLength="114" x="142" y="72.4782">::ExampleClass obj1;</text><rect fill="#90EE90" filter="url(#f9vciti1nt703)" height="36.335" rx="12.5" ry="12.5" style="stroke: #A80036; stroke-width: 1.5;" width="208" x="95" y="120.9923"/><text fill="#000000" font-family="sans-serif" font-size="12" lengthAdjust="spacingAndGlyphs" textLength="188" x="105" y="143.8132">return (&amp;obj1)-&gt;switchExample(3)</text><ellipse cx="199" cy="203.3273" fill="#FFFFFF" filter="url(#f9vciti1nt703)" rx="11" ry="11" style="stroke: #000000; stroke-width: 1.0;"/><ellipse cx="199" cy="203.3273" fill="#000000" rx="6" ry="6" style="stroke: #7F7F7F; stroke-width: 1.0;"/><rect fill="#FFFFFF" filter="url(#f9vciti1nt703)" height="1243.7429" style="stroke: #000000; stroke-width: 2.0;" width="390" x="10" y="244.9271"/><line style="stroke: #000000; stroke-width: 2.0;" x1="10" x2="400" y1="267.9846" y2="267.9846"/><text fill="#000000" font-family="sans-serif" font-size="14" lengthAdjust="spacingAndGlyphs" textLength="370" x="20" y="261.8848">::ExampleClass::switchExample(int const paramA) -&gt; int</text><rect fill="#FEFECE" filter="url(#f9vciti1nt703)" height="36.335" rx="12.5" ry="12.5" style="stroke: #A80036; stroke-width: 1.5;" width="100" x="149" y="283.9846"/><text fill="#000000" font-family="sans-serif" font-size="12" lengthAdjust="spacingAndGlyphs" textLength="80" x="159" y="306.8055">int timestamp;</text><rect fill="#FEFECE" filter="url(#f9vciti1nt703)" height="36.335" rx="12.5" ry="12.5" style="stroke: #A80036; stroke-width: 1.5;" width="139" x="129.5" y="355.3196"/><text fill="#000000" font-family="sans-serif" font-size="12" lengthAdjust="spacingAndGlyphs" textLength="119" x="139.5" y="378.1406">timestamp = ::time(0)</text><rect fill="#FEFECE" filter="url(#f9vciti1nt703)" height="36.335" rx="12.5" ry="12.5" style="stroke: #A80036; stroke-width: 1.5;" width="211" x="93.5" y="426.6546"/><text fill="#000000" font-family="sans-serif" font-size="12" lengthAdjust="spacingAndGlyphs" textLength="191" x="103.5" y="449.4756">timestamp = timestamp + paramA</text><rect fill="#FFFFFF" filter="url(#f9vciti1nt703)" height="771.0103" style="stroke: #000000; stroke-width: 2.0;" width="265" x="72.5" y="497.9897"/><path d="M182.5,498.9897 L182.5,529.1047 L172.5,539.1047 L72.5,539.1047 " fill="none" style="stroke: #000000; stroke-width: 2.0;"/><text fill="#000000" font-family="sans-serif" font-size="14" lengthAdjust="spacingAndGlyphs" textLength="47" x="75.5" y="513.9474">switch:</text><text fill="#000000" font-family="sans-serif" font-size="14" lengthAdjust="spacingAndGlyphs" textLength="100" x="75.5" y="533.005">timestamp % 3</text><polygon fill="#FEFECE" filter="url(#f9vciti1nt703)" points="157,605.5864,241,605.5864,253,617.5864,241,629.5864,157,629.5864,145,617.5864,157,605.5864" style="stroke: #A80036; stroke-width: 1.5;"/><text fill="#000000" font-family="sans-serif" font-size="11" lengthAdjust="spacingAndGlyphs" textLength="84" x="157" y="621.8491">timestamp != 0 ?</text><text fill="#000000" font-family="sans-serif" font-size="11" lengthAdjust="spacingAndGlyphs" textLength="22" x="123" y="614.3674">true</text><text fill="#000000" font-family="sans-serif" font-size="11" lengthAdjust="spacingAndGlyphs" textLength="24" x="253" y="614.3674">false</text><rect fill="#90EE90" filter="url(#f9vciti1nt703)" height="36.335" rx="12.5" ry="12.5" style="stroke: #A80036; stroke-width: 1.5;" width="65" x="102.5" y="639.5864"/><text fill="#000000" font-family="sans-serif" font-size="12" lengthAdjust="spacingAndGlyphs" textLength="45" x="112.5" y="662.4073">return 0</text><ellipse cx="135" cy="721.9214" fill="#FFFFFF" filter="url(#f9vciti1nt703)" rx="11" ry="11" style="stroke: #000000; stroke-width: 1.0;"/><ellipse cx="135" cy="721.9214" fill="#000000" rx="6" ry="6" style="stroke: #7F7F7F; stroke-width: 1.0;"/><rect fill="#90EE90" filter="url(#f9vciti1nt703)" height="36.335" rx="12.5" ry="12.5" style="stroke: #A80036; stroke-width: 1.5;" width="65" x="230.5" y="639.5864"/><text fill="#000000" font-family="sans-serif" font-size="12" lengthAdjust="spacingAndGlyphs" textLength="45" x="240.5" y="662.4073">return 1</text><ellipse cx="263" cy="721.9214" fill="#FFFFFF" filter="url(#f9vciti1nt703)" rx="11" ry="11" style="stroke: #000000; stroke-width: 1.0;"/><ellipse cx="263" cy="721.9214" fill="#000000" rx="6" ry="6" style="stroke: #7F7F7F; stroke-width: 1.0;"/><polygon fill="#FEFECE" filter="url(#f9vciti1nt703)" points="187,556.1047,211,556.1047,223,568.1047,211,580.1047,187,580.1047,175,568.1047,187,556.1047" style="stroke: #A80036; stroke-width: 1.5;"/><text fill="#000000" font-family="sans-serif" font-size="11" lengthAdjust="spacingAndGlyphs" textLength="17" x="203" y="591.8491">yes</text><text fill="#000000" font-family="sans-serif" font-size="11" lengthAdjust="spacingAndGlyphs" textLength="14" x="192" y="572.3674">0 ?</text><polygon fill="#FEFECE" filter="url(#f9vciti1nt703)" points="187,805.4031,211,805.4031,223,817.4031,211,829.4031,187,829.4031,175,817.4031,187,805.4031" style="stroke: #A80036; stroke-width: 1.5;"/><text fill="#000000" font-family="sans-serif" font-size="11" lengthAdjust="spacingAndGlyphs" textLength="14" x="192" y="821.6658">1 ?</text><text fill="#000000" font-family="sans-serif" font-size="11" lengthAdjust="spacingAndGlyphs" textLength="17" x="158" y="814.1841">yes</text><polygon fill="#FEFECE" filter="url(#f9vciti1nt703)" points="199,845.4031,211,857.4031,199,869.4031,187,857.4031,199,845.4031" style="stroke: #A80036; stroke-width: 1.5;"/><rect fill="#90EE90" filter="url(#f9vciti1nt703)" height="36.335" rx="12.5" ry="12.5" style="stroke: #A80036; stroke-width: 1.5;" width="65" x="166.5" y="953.8848"/><text fill="#000000" font-family="sans-serif" font-size="12" lengthAdjust="spacingAndGlyphs" textLength="45" x="176.5" y="976.7057">return 2</text><ellipse cx="199" cy="1036.2198" fill="#FFFFFF" filter="url(#f9vciti1nt703)" rx="11" ry="11" style="stroke: #000000; stroke-width: 1.0;"/><ellipse cx="199" cy="1036.2198" fill="#000000" rx="6" ry="6" style="stroke: #7F7F7F; stroke-width: 1.0;"/><polygon fill="#FEFECE" filter="url(#f9vciti1nt703)" points="187,904.4031,211,904.4031,223,916.4031,211,928.4031,187,928.4031,175,916.4031,187,904.4031" style="stroke: #A80036; stroke-width: 1.5;"/><text fill="#000000" font-family="sans-serif" font-size="11" lengthAdjust="spacingAndGlyphs" textLength="17" x="203" y="940.1475">yes</text><text fill="#000000" font-family="sans-serif" font-size="11" lengthAdjust="spacingAndGlyphs" textLength="14" x="192" y="920.6658">2 ?</text><rect fill="#FEFECE" filter="url(#f9vciti1nt703)" height="36.335" rx="12.5" ry="12.5" style="stroke: #A80036; stroke-width: 1.5;" width="139" x="129.5" y="1163.1832"/><text fill="#000000" font-family="sans-serif" font-size="12" lengthAdjust="spacingAndGlyphs" textLength="119" x="139.5" y="1186.0042">timestamp = ::time(0)</text><polygon fill="#FEFECE" filter="url(#f9vciti1nt703)" points="177.5,1113.7015,220.5,1113.7015,232.5,1125.7015,220.5,1137.7015,177.5,1137.7015,165.5,1125.7015,177.5,1113.7015" style="stroke: #A80036; stroke-width: 1.5;"/><text fill="#000000" font-family="sans-serif" font-size="11" lengthAdjust="spacingAndGlyphs" textLength="17" x="203" y="1149.4459">yes</text><text fill="#000000" font-family="sans-serif" font-size="11" lengthAdjust="spacingAndGlyphs" textLength="37" x="180.5" y="1129.9642">default</text><polygon fill="#FEFECE" filter="url(#f9vciti1nt703)" points="199,1224.9999,211,1236.9999,199,1248.9999,187,1236.9999,199,1224.9999" style="stroke: #A80036; stroke-width: 1.5;"/><rect fill="#FEFECE" filter="url(#f9vciti1nt703)" height="36.335" rx="12.5" ry="12.5" style="stroke: #A80036; stroke-width: 1.5;" width="173" x="112.5" y="1303.9999"/><text fill="#000000" font-family="sans-serif" font-size="12" lengthAdjust="spacingAndGlyphs" textLength="153" x="122.5" y="1326.8209">timestamp = timestamp * 3</text><rect fill="#90EE90" filter="url(#f9vciti1nt703)" height="36.335" rx="12.5" ry="12.5" style="stroke: #A80036; stroke-width: 1.5;" width="141" x="128.5" y="1375.3349"/><text fill="#000000" font-family="sans-serif" font-size="12" lengthAdjust="spacingAndGlyphs" textLength="121" x="138.5" y="1398.1559">return timestamp % 2</text><ellipse cx="199" cy="1457.67" fill="#FFFFFF" filter="url(#f9vciti1nt703)" rx="11" ry="11" style="stroke: #000000; stroke-width: 1.0;"/><ellipse cx="199" cy="1457.67" fill="#000000" rx="6" ry="6" style="stroke: #7F7F7F; stroke-width: 1.0;"/><line style="stroke: #A80036; stroke-width: 1.5;" x1="199" x2="199" y1="85.9923" y2="120.9923"/><polygon fill="#A80036" points="195,110.9923,199,120.9923,203,110.9923,199,114.9923" style="stroke: #A80036; stroke-width: 1.0;"/><line style="stroke: #A80036; stroke-width: 1.5;" x1="199" x2="199" y1="157.3273" y2="192.3273"/><polygon fill="#A80036" points="195,182.3273,199,192.3273,203,182.3273,199,186.3273" style="stroke: #A80036; stroke-width: 1.0;"/><line style="stroke: #A80036; stroke-width: 1.5;" x1="199" x2="199" y1="320.3196" y2="355.3196"/><polygon fill="#A80036" points="195,345.3196,199,355.3196,203,345.3196,199,349.3196" style="stroke: #A80036; stroke-width: 1.0;"/><line style="stroke: #A80036; stroke-width: 1.5;" x1="199" x2="199" y1="391.6546" y2="426.6546"/><polygon fill="#A80036" points="195,416.6546,199,426.6546,203,416.6546,199,420.6546" style="stroke: #A80036; stroke-width: 1.0;"/><line style="stroke: #A80036; stroke-width: 1.5;" x1="135" x2="135" y1="675.9214" y2="710.9214"/><polygon fill="#A80036" points="131,700.9214,135,710.9214,139,700.9214,135,704.9214" style="stroke: #A80036; stroke-width: 1.0;"/><line style="stroke: #A80036; stroke-width: 1.5;" x1="263" x2="263" y1="675.9214" y2="710.9214"/><polygon fill="#A80036" points="259,700.9214,263,710.9214,267,700.9214,263,704.9214" style="stroke: #A80036; stroke-width: 1.0;"/><line style="stroke: #A80036; stroke-width: 1.5;" x1="145" x2="135" y1="617.5864" y2="617.5864"/><line style="stroke: #A80036; stroke-width: 1.5;" x1="135" x2="135" y1="617.5864" y2="639.5864"/><polygon fill="#A80036" points="131,629.5864,135,639.5864,139,629.5864,135,633.5864" style="stroke: #A80036; stroke-width: 1.0;"/><line style="stroke: #A80036; stroke-width: 1.5;" x1="253" x2="263" y1="617.5864" y2="617.5864"/><line style="stroke: #A80036; stroke-width: 1.5;" x1="263" x2="263" y1="617.5864" y2="639.5864"/><polygon fill="#A80036" points="259,629.5864,263,639.5864,267,629.5864,263,633.5864" style="stroke: #A80036; stroke-width: 1.0;"/><line style="stroke: #A80036; stroke-width: 1.5;" x1="199" x2="199" y1="580.1047" y2="605.5864"/><polygon fill="#A80036" points="195,595.5864,199,605.5864,203,595.5864,199,599.5864" style="stroke: #A80036; stroke-width: 1.0;"/><line style="stroke: #A80036; stroke-width: 1.5;" x1="223" x2="315.5" y1="568.1047" y2="568.1047"/><polygon fill="#A80036" points="311.5,659.2539,315.5,669.2539,319.5,659.2539,315.5,663.2539" style="stroke: #A80036; stroke-width: 1.5;"/><line style="stroke: #A80036; stroke-width: 1.5;" x1="315.5" x2="315.5" y1="568.1047" y2="770.4031"/><line style="stroke: #A80036; stroke-width: 1.5;" x1="315.5" x2="199" y1="770.4031" y2="770.4031"/><line style="stroke: #A80036; stroke-width: 1.5;" x1="199" x2="199" y1="770.4031" y2="805.4031"/><polygon fill="#A80036" points="195,795.4031,199,805.4031,203,795.4031,199,799.4031" style="stroke: #A80036; stroke-width: 1.0;"/><line style="stroke: #A80036; stroke-width: 1.5;" x1="175" x2="165" y1="817.4031" y2="817.4031"/><polygon fill="#A80036" points="161,827.4031,165,837.4031,169,827.4031,165,831.4031" style="stroke: #A80036; stroke-width: 1.5;"/><line style="stroke: #A80036; stroke-width: 1.5;" x1="165" x2="165" y1="817.4031" y2="857.4031"/><line style="stroke: #A80036; stroke-width: 1.5;" x1="165" x2="187" y1="857.4031" y2="857.4031"/><polygon fill="#A80036" points="177,853.4031,187,857.4031,177,861.4031,181,857.4031" style="stroke: #A80036; stroke-width: 1.0;"/><line style="stroke: #A80036; stroke-width: 1.5;" x1="223" x2="233" y1="817.4031" y2="817.4031"/><polygon fill="#A80036" points="229,827.4031,233,837.4031,237,827.4031,233,831.4031" style="stroke: #A80036; stroke-width: 1.5;"/><line style="stroke: #A80036; stroke-width: 1.5;" x1="233" x2="233" y1="817.4031" y2="857.4031"/><line style="stroke: #A80036; stroke-width: 1.5;" x1="233" x2="211" y1="857.4031" y2="857.4031"/><polygon fill="#A80036" points="221,853.4031,211,857.4031,221,861.4031,217,857.4031" style="stroke: #A80036; stroke-width: 1.0;"/><line style="stroke: #A80036; stroke-width: 1.5;" x1="199" x2="199" y1="990.2198" y2="1025.2198"/><polygon fill="#A80036" points="195,1015.2198,199,1025.2198,203,1015.2198,199,1019.2198" style="stroke: #A80036; stroke-width: 1.0;"/><line style="stroke: #A80036; stroke-width: 1.5;" x1="199" x2="199" y1="928.4031" y2="953.8848"/><polygon fill="#A80036" points="195,943.8848,199,953.8848,203,943.8848,199,947.8848" style="stroke: #A80036; stroke-width: 1.0;"/><line style="stroke: #A80036; stroke-width: 1.5;" x1="223" x2="241.5" y1="916.4031" y2="916.4031"/><polygon fill="#A80036" points="237.5,987.5523,241.5,997.5523,245.5,987.5523,241.5,991.5523" style="stroke: #A80036; stroke-width: 1.5;"/><line style="stroke: #A80036; stroke-width: 1.5;" x1="241.5" x2="241.5" y1="916.4031" y2="1078.7015"/><line style="stroke: #A80036; stroke-width: 1.5;" x1="241.5" x2="199" y1="1078.7015" y2="1078.7015"/><line style="stroke: #A80036; stroke-width: 1.5;" x1="199" x2="199" y1="1078.7015" y2="1113.7015"/><polygon fill="#A80036" points="195,1103.7015,199,1113.7015,203,1103.7015,199,1107.7015" style="stroke: #A80036; stroke-width: 1.0;"/><line style="stroke: #A80036; stroke-width: 1.5;" x1="199" x2="199" y1="869.4031" y2="904.4031"/><polygon fill="#A80036" points="195,894.4031,199,904.4031,203,894.4031,199,898.4031" style="stroke: #A80036; stroke-width: 1.0;"/><line style="stroke: #A80036; stroke-width: 1.5;" x1="199" x2="199" y1="1137.7015" y2="1163.1832"/><polygon fill="#A80036" points="195,1153.1832,199,1163.1832,203,1153.1832,199,1157.1832" style="stroke: #A80036; stroke-width: 1.0;"/><line style="stroke: #A80036; stroke-width: 1.5;" x1="199" x2="199" y1="1199.5182" y2="1224.9999"/><polygon fill="#A80036" points="195,1214.9999,199,1224.9999,203,1214.9999,199,1218.9999" style="stroke: #A80036; stroke-width: 1.0;"/><line style="stroke: #A80036; stroke-width: 1.5;" x1="199" x2="199" y1="462.9897" y2="556.1047"/><polygon fill="#A80036" points="195,546.1047,199,556.1047,203,546.1047,199,550.1047" style="stroke: #A80036; stroke-width: 1.0;"/><line style="stroke: #A80036; stroke-width: 1.5;" x1="199" x2="199" y1="1248.9999" y2="1303.9999"/><polygon fill="#A80036" points="195,1293.9999,199,1303.9999,203,1293.9999,199,1297.9999" style="stroke: #A80036; stroke-width: 1.0;"/><line style="stroke: #A80036; stroke-width: 1.5;" x1="199" x2="199" y1="1340.3349" y2="1375.3349"/><polygon fill="#A80036" points="195,1365.3349,199,1375.3349,203,1365.3349,199,1369.3349" style="stroke: #A80036; stroke-width: 1.0;"/><line style="stroke: #A80036; stroke-width: 1.5;" x1="199" x2="199" y1="1411.67" y2="1446.67"/><polygon fill="#A80036" points="195,1436.67,199,1446.67,203,1436.67,199,1440.67" style="stroke: #A80036; stroke-width: 1.0;"/><!--MD5=[30bbadce3d12b21d21f35e774f10f5cc]
@startuml

card "::main() -> int" {
    :::ExampleClass obj1;;
    #lightgreen:return (&obj1)->switchExample(3);
    stop
    -[hidden]->
}

card "::ExampleClass::switchExample(int const paramA) -> int" {
    :int timestamp;;
    :timestamp = ::time(0);
    :timestamp = timestamp + paramA;

partition "switch:\ntimestamp % 3" {
    if ( 0 ? ) then (yes)
        if (timestamp != 0 ?) then (true)
            #lightgreen:return 0;
            stop
        else (false)
            #lightgreen:return 1;
            stop
        endif
    endif
    if ( 1 ? ) then (yes)
    endif
    if ( 2 ? ) then (yes)
        #lightgreen:return 2;
        stop
    endif
    if ( default ) then (yes)
        :timestamp = ::time(0);
    else
        -[hidden]->
    endif
}
    :timestamp = timestamp * 3;
    #lightgreen:return timestamp % 2;
    stop
    -[hidden]->
}


@enduml

PlantUML version 1.2020.02(Sun Mar 01 11:22:07 CET 2020)
(GPL source distribution)
Java Runtime: Java(TM) SE Runtime Environment
JVM: Java HotSpot(TM) 64-Bit Server VM
Java Version: 1.8.0_212-b10
Operating System: Linux
Default Encoding: UTF-8
Language: en
Country: US
--></g></svg>