<?xml version="1.0" encoding="UTF-8" standalone="no"?>
<!DOCTYPE svg PUBLIC "-//W3C//DTD SVG 1.1//EN"
 "http://www.w3.org/Graphics/SVG/1.1/DTD/svg11.dtd">
<!-- Generated by graphviz version 2.43.0 (0)
 -->
<!-- Title: %3 Pages: 1 -->
<svg width="402pt" height="1248pt"
 viewBox="0.00 0.00 402.00 1248.00" xmlns="http://www.w3.org/2000/svg" xmlns:xlink="http://www.w3.org/1999/xlink">
<g id="graph0" class="graph" transform="scale(1 1) rotate(0) translate(4 1244)">
<title>%3</title>
<polygon fill="white" stroke="transparent" points="-4,4 -4,-1244 398,-1244 398,4 -4,4"/>
<g id="clust1" class="cluster">
<title>cluster_item_0</title>
<polygon fill="none" stroke="black" points="62,-1072 62,-1232 250,-1232 250,-1072 62,-1072"/>
<text text-anchor="middle" x="114" y="-1216.8" font-family="SansSerif,sans-serif" font-size="14.00">::main() &#45;&gt; int</text>
</g>
<g id="clust2" class="cluster">
<title>cluster_item_4</title>
<polygon fill="none" stroke="black" points="8,-8 8,-1055 386,-1055 386,-8 8,-8"/>
<text text-anchor="middle" x="197" y="-1039.8" font-family="SansSerif,sans-serif" font-size="14.00">::ExampleClass::switchExample(int const paramA) &#45;&gt; int</text>
</g>
<g id="clust3" class="cluster">
<title>cluster_item_10</title>
<polygon fill="none" stroke="black" points="66,-331 66,-753 332,-753 332,-331 66,-331"/>
<text text-anchor="start" x="74" y="-737.8" font-family="SansSerif,sans-serif" font-size="14.00">switch:</text>
<text text-anchor="middle" x="123.5" y="-722.8" font-family="SansSerif,sans-serif" font-size="14.00">timestamp % 3</text>
</g>
<!-- item_1 -->
<g id="node1" class="node">
<title>item_1</title>
<path fill="#fefece" stroke="black" d="M202.67,-1201C202.67,-1201 109.33,-1201 109.33,-1201 105.17,-1201 101,-1196.83 101,-1192.67 101,-1192.67 101,-1184.33 101,-1184.33 101,-1180.17 105.17,-1176 109.33,-1176 109.33,-1176 202.67,-1176 202.67,-1176 206.83,-1176 211,-1180.17 211,-1184.33 211,-1184.33 211,-1192.67 211,-1192.67 211,-1196.83 206.83,-1201 202.67,-1201"/>
<text text-anchor="middle" x="156" y="-1186" font-family="SansSerif,sans-serif" font-size="10.00">::ExampleClass obj1;</text>
</g>
<!-- item_2 -->
<g id="node2" class="node">
<title>item_2</title>
<path fill="lightgreen" stroke="black" d="M233.17,-1149C233.17,-1149 78.83,-1149 78.83,-1149 74.67,-1149 70.5,-1144.83 70.5,-1140.67 70.5,-1140.67 70.5,-1132.33 70.5,-1132.33 70.5,-1128.17 74.67,-1124 78.83,-1124 78.83,-1124 233.17,-1124 233.17,-1124 237.33,-1124 241.5,-1128.17 241.5,-1132.33 241.5,-1132.33 241.5,-1140.67 241.5,-1140.67 241.5,-1144.83 237.33,-1149 233.17,-1149"/>
<text text-anchor="middle" x="156" y="-1134" font-family="SansSerif,sans-serif" font-size="10.00">return (&amp;obj1)&#45;&gt;switchExample(3)</text>
</g>
<!-- item_1&#45;&gt;item_2 -->
<g id="edge2" class="edge">
<title>item_1&#45;&gt;item_2</title>
<path fill="none" stroke="black" d="M156,-1175.9C156,-1170.98 156,-1165.07 156,-1159.39"/>
<polygon fill="black" stroke="black" points="159.5,-1159.03 156,-1149.03 152.5,-1159.03 159.5,-1159.03"/>
</g>
<!-- item_3 -->
<g id="node3" class="node">
<title>item_3</title>
<ellipse fill="black" stroke="black" cx="156" cy="-1088.5" rx="4.5" ry="4.5"/>
<ellipse fill="none" stroke="black" cx="156" cy="-1088.5" rx="8.5" ry="8.5"/>
</g>
<!-- item_2&#45;&gt;item_3 -->
<g id="edge1" class="edge">
<title>item_2&#45;&gt;item_3</title>
<path fill="none" stroke="black" d="M156,-1123.89C156,-1118.9 156,-1112.95 156,-1107.41"/>
<polygon fill="black" stroke="black" points="159.5,-1107.06 156,-1097.06 152.5,-1107.06 159.5,-1107.06"/>
</g>
<!-- item_5 -->
<g id="node4" class="node">
<title>item_5</title>
<path fill="#fefece" stroke="black" d="M189.17,-1024C189.17,-1024 122.83,-1024 122.83,-1024 118.67,-1024 114.5,-1019.83 114.5,-1015.67 114.5,-1015.67 114.5,-1007.33 114.5,-1007.33 114.5,-1003.17 118.67,-999 122.83,-999 122.83,-999 189.17,-999 189.17,-999 193.33,-999 197.5,-1003.17 197.5,-1007.33 197.5,-1007.33 197.5,-1015.67 197.5,-1015.67 197.5,-1019.83 193.33,-1024 189.17,-1024"/>
<text text-anchor="middle" x="156" y="-1009" font-family="SansSerif,sans-serif" font-size="10.00">int timestamp;</text>
</g>
<!-- item_3&#45;&gt;item_5 -->
<!-- item_6 -->
<g id="node5" class="node">
<title>item_6</title>
<path fill="#fefece" stroke="black" d="M205.67,-972C205.67,-972 106.33,-972 106.33,-972 102.17,-972 98,-967.83 98,-963.67 98,-963.67 98,-955.33 98,-955.33 98,-951.17 102.17,-947 106.33,-947 106.33,-947 205.67,-947 205.67,-947 209.83,-947 214,-951.17 214,-955.33 214,-955.33 214,-963.67 214,-963.67 214,-967.83 209.83,-972 205.67,-972"/>
<text text-anchor="middle" x="156" y="-957" font-family="SansSerif,sans-serif" font-size="10.00">timestamp = ::time(0)</text>
</g>
<!-- item_5&#45;&gt;item_6 -->
<g id="edge3" class="edge">
<title>item_5&#45;&gt;item_6</title>
<path fill="none" stroke="black" d="M156,-998.9C156,-993.98 156,-988.07 156,-982.39"/>
<polygon fill="black" stroke="black" points="159.5,-982.03 156,-972.03 152.5,-982.03 159.5,-982.03"/>
</g>
<!-- item_7 -->
<g id="node6" class="node">
<title>item_7</title>
<polygon fill="#fefece" stroke="black" points="156,-920 49,-901 156,-882 263,-901 156,-920"/>
<text text-anchor="middle" x="156" y="-898.5" font-family="SansSerif,sans-serif" font-size="10.00">timestamp &amp; 1 == 0</text>
</g>
<!-- item_6&#45;&gt;item_7 -->
<g id="edge7" class="edge">
<title>item_6&#45;&gt;item_7</title>
<path fill="none" stroke="black" d="M156,-946.79C156,-942.03 156,-936.29 156,-930.53"/>
<polygon fill="black" stroke="black" points="159.5,-930.37 156,-920.37 152.5,-930.37 159.5,-930.37"/>
</g>
<!-- item_8 -->
<g id="node7" class="node">
<title>item_8</title>
<path fill="#fefece" stroke="black" d="M207.17,-841C207.17,-841 50.83,-841 50.83,-841 46.67,-841 42.5,-836.83 42.5,-832.67 42.5,-832.67 42.5,-824.33 42.5,-824.33 42.5,-820.17 46.67,-816 50.83,-816 50.83,-816 207.17,-816 207.17,-816 211.33,-816 215.5,-820.17 215.5,-824.33 215.5,-824.33 215.5,-832.67 215.5,-832.67 215.5,-836.83 211.33,-841 207.17,-841"/>
<text text-anchor="middle" x="129" y="-826" font-family="SansSerif,sans-serif" font-size="10.00">timestamp = timestamp + paramA</text>
</g>
<!-- item_7&#45;&gt;item_8 -->
<g id="edge4" class="edge">
<title>item_7&#45;&gt;item_8</title>
<path fill="none" stroke="black" d="M149.46,-882.93C145.77,-873.28 141.11,-861.11 137.17,-850.83"/>
<polygon fill="black" stroke="black" points="140.38,-849.42 133.53,-841.33 133.84,-851.93 140.38,-849.42"/>
<text text-anchor="middle" x="159.5" y="-857.8" font-family="Times,serif" font-size="14.00">true</text>
</g>
<!-- item_9 -->
<g id="node8" class="node">
<title>item_9</title>
<polygon fill="#fefece" stroke="black" points="190,-789 183,-782 190,-775 197,-782 190,-789"/>
</g>
<!-- item_7&#45;&gt;item_9 -->
<g id="edge6" class="edge">
<title>item_7&#45;&gt;item_9</title>
<path fill="none" stroke="black" d="M181.01,-886.32C196.84,-876.13 215.97,-860.61 225,-841 229.65,-830.91 229.4,-826.2 225,-816 220.48,-805.53 210.83,-796.85 202.81,-791.02"/>
<polygon fill="black" stroke="black" points="204.55,-787.98 194.28,-785.4 200.7,-793.82 204.55,-787.98"/>
<text text-anchor="middle" x="245" y="-824.8" font-family="Times,serif" font-size="14.00">false</text>
</g>
<!-- item_8&#45;&gt;item_9 -->
<g id="edge5" class="edge">
<title>item_8&#45;&gt;item_9</title>
<path fill="none" stroke="black" d="M145.03,-815.81C155.51,-808.16 168.95,-798.35 178.4,-791.46"/>
<polygon fill="black" stroke="black" points="180.5,-794.27 186.51,-785.54 176.37,-788.61 180.5,-794.27"/>
</g>
<!-- item_12 -->
<g id="node9" class="node">
<title>item_12</title>
<polygon fill="#fefece" stroke="black" points="190,-707 163,-688 190,-669 217,-688 190,-707"/>
<text text-anchor="middle" x="190" y="-685.5" font-family="SansSerif,sans-serif" font-size="10.00">0</text>
</g>
<!-- item_9&#45;&gt;item_12 -->
<g id="edge20" class="edge">
<title>item_9&#45;&gt;item_12</title>
<path fill="none" stroke="black" d="M190,-774.96C190,-763.46 190,-737.72 190,-717.39"/>
<polygon fill="black" stroke="black" points="193.5,-717.36 190,-707.36 186.5,-717.36 193.5,-717.36"/>
</g>
<!-- item_13 -->
<g id="node10" class="node">
<title>item_13</title>
<polygon fill="#fefece" stroke="black" points="107,-628 80,-609 107,-590 134,-609 107,-628"/>
<text text-anchor="middle" x="107" y="-606.5" font-family="SansSerif,sans-serif" font-size="10.00">1</text>
</g>
<!-- item_12&#45;&gt;item_13 -->
<g id="edge8" class="edge">
<title>item_12&#45;&gt;item_13</title>
<path fill="none" stroke="black" d="M178.81,-676.62C165.19,-663.99 142.01,-642.48 125.68,-627.33"/>
<polygon fill="black" stroke="black" points="127.99,-624.7 118.28,-620.47 123.23,-629.83 127.99,-624.7"/>
</g>
<!-- item_16 -->
<g id="node13" class="node">
<title>item_16</title>
<polygon fill="#fefece" stroke="black" points="238,-628 152,-609 238,-590 324,-609 238,-628"/>
<text text-anchor="middle" x="238" y="-606.5" font-family="SansSerif,sans-serif" font-size="10.00">timestamp != 0</text>
</g>
<!-- item_12&#45;&gt;item_16 -->
<g id="edge15" class="edge">
<title>item_12&#45;&gt;item_16</title>
<path fill="none" stroke="black" d="M197.93,-674.29C204.63,-663.53 214.44,-647.8 222.67,-634.59"/>
<polygon fill="black" stroke="black" points="225.74,-636.28 228.06,-625.94 219.8,-632.57 225.74,-636.28"/>
<text text-anchor="middle" x="230.5" y="-644.8" font-family="Times,serif" font-size="14.00">yes</text>
</g>
<!-- item_14 -->
<g id="node11" class="node">
<title>item_14</title>
<polygon fill="#fefece" stroke="black" points="127,-549 100,-530 127,-511 154,-530 127,-549"/>
<text text-anchor="middle" x="127" y="-527.5" font-family="SansSerif,sans-serif" font-size="10.00">2</text>
</g>
<!-- item_13&#45;&gt;item_14 -->
<g id="edge9" class="edge">
<title>item_13&#45;&gt;item_14</title>
<path fill="none" stroke="black" d="M111.05,-592.42C113.75,-582.02 117.36,-568.11 120.47,-556.16"/>
<polygon fill="black" stroke="black" points="123.9,-556.85 123.03,-546.3 117.13,-555.1 123.9,-556.85"/>
</g>
<!-- item_15 -->
<g id="node12" class="node">
<title>item_15</title>
<polygon fill="#fefece" stroke="black" points="127,-470 74,-451 127,-432 180,-451 127,-470"/>
<text text-anchor="middle" x="127" y="-448.5" font-family="SansSerif,sans-serif" font-size="10.00">default:</text>
</g>
<!-- item_14&#45;&gt;item_15 -->
<g id="edge10" class="edge">
<title>item_14&#45;&gt;item_15</title>
<path fill="none" stroke="black" d="M127,-510.75C127,-501.64 127,-490.42 127,-480.23"/>
<polygon fill="black" stroke="black" points="130.5,-480.12 127,-470.12 123.5,-480.12 130.5,-480.12"/>
</g>
<!-- item_22 -->
<g id="node18" class="node">
<title>item_22</title>
<path fill="lightgreen" stroke="black" d="M245.17,-463.5C245.17,-463.5 206.83,-463.5 206.83,-463.5 202.67,-463.5 198.5,-459.33 198.5,-455.17 198.5,-455.17 198.5,-446.83 198.5,-446.83 198.5,-442.67 202.67,-438.5 206.83,-438.5 206.83,-438.5 245.17,-438.5 245.17,-438.5 249.33,-438.5 253.5,-442.67 253.5,-446.83 253.5,-446.83 253.5,-455.17 253.5,-455.17 253.5,-459.33 249.33,-463.5 245.17,-463.5"/>
<text text-anchor="middle" x="226" y="-448.5" font-family="SansSerif,sans-serif" font-size="10.00">return 2</text>
</g>
<!-- item_14&#45;&gt;item_22 -->
<g id="edge17" class="edge">
<title>item_14&#45;&gt;item_22</title>
<path fill="none" stroke="black" d="M139.54,-519.25C155.47,-506.85 183.28,-485.23 203.05,-469.85"/>
<polygon fill="black" stroke="black" points="205.23,-472.59 210.98,-463.68 200.94,-467.06 205.23,-472.59"/>
<text text-anchor="middle" x="197.5" y="-486.8" font-family="Times,serif" font-size="14.00">yes</text>
</g>
<!-- item_24 -->
<g id="node20" class="node">
<title>item_24</title>
<path fill="#fefece" stroke="black" d="M181.67,-405C181.67,-405 82.33,-405 82.33,-405 78.17,-405 74,-400.83 74,-396.67 74,-396.67 74,-388.33 74,-388.33 74,-384.17 78.17,-380 82.33,-380 82.33,-380 181.67,-380 181.67,-380 185.83,-380 190,-384.17 190,-388.33 190,-388.33 190,-396.67 190,-396.67 190,-400.83 185.83,-405 181.67,-405"/>
<text text-anchor="middle" x="132" y="-390" font-family="SansSerif,sans-serif" font-size="10.00">timestamp = ::time(0)</text>
</g>
<!-- item_15&#45;&gt;item_24 -->
<g id="edge18" class="edge">
<title>item_15&#45;&gt;item_24</title>
<path fill="none" stroke="black" d="M128.55,-432.43C129.03,-427.06 129.56,-421.09 130.06,-415.47"/>
<polygon fill="black" stroke="black" points="133.56,-415.61 130.95,-405.34 126.58,-414.99 133.56,-415.61"/>
</g>
<!-- item_17 -->
<g id="node14" class="node">
<title>item_17</title>
<path fill="lightgreen" stroke="black" d="M242.17,-542.5C242.17,-542.5 203.83,-542.5 203.83,-542.5 199.67,-542.5 195.5,-538.33 195.5,-534.17 195.5,-534.17 195.5,-525.83 195.5,-525.83 195.5,-521.67 199.67,-517.5 203.83,-517.5 203.83,-517.5 242.17,-517.5 242.17,-517.5 246.33,-517.5 250.5,-521.67 250.5,-525.83 250.5,-525.83 250.5,-534.17 250.5,-534.17 250.5,-538.33 246.33,-542.5 242.17,-542.5"/>
<text text-anchor="middle" x="223" y="-527.5" font-family="SansSerif,sans-serif" font-size="10.00">return 0</text>
</g>
<!-- item_16&#45;&gt;item_17 -->
<g id="edge13" class="edge">
<title>item_16&#45;&gt;item_17</title>
<path fill="none" stroke="black" d="M234.6,-590.53C232.43,-579.38 229.59,-564.85 227.27,-552.94"/>
<polygon fill="black" stroke="black" points="230.67,-552.05 225.32,-542.9 223.79,-553.38 230.67,-552.05"/>
<text text-anchor="middle" x="246.5" y="-565.8" font-family="Times,serif" font-size="14.00">true</text>
</g>
<!-- item_19 -->
<g id="node16" class="node">
<title>item_19</title>
<path fill="lightgreen" stroke="black" d="M315.17,-542.5C315.17,-542.5 276.83,-542.5 276.83,-542.5 272.67,-542.5 268.5,-538.33 268.5,-534.17 268.5,-534.17 268.5,-525.83 268.5,-525.83 268.5,-521.67 272.67,-517.5 276.83,-517.5 276.83,-517.5 315.17,-517.5 315.17,-517.5 319.33,-517.5 323.5,-521.67 323.5,-525.83 323.5,-525.83 323.5,-534.17 323.5,-534.17 323.5,-538.33 319.33,-542.5 315.17,-542.5"/>
<text text-anchor="middle" x="296" y="-527.5" font-family="SansSerif,sans-serif" font-size="10.00">return 1</text>
</g>
<!-- item_16&#45;&gt;item_19 -->
<g id="edge14" class="edge">
<title>item_16&#45;&gt;item_19</title>
<path fill="none" stroke="black" d="M251.24,-592.77C255.42,-587.82 259.99,-582.24 264,-577 270.35,-568.69 277.02,-559.25 282.61,-551.08"/>
<polygon fill="black" stroke="black" points="285.68,-552.79 288.39,-542.55 279.88,-548.86 285.68,-552.79"/>
<text text-anchor="middle" x="291" y="-565.8" font-family="Times,serif" font-size="14.00">false</text>
</g>
<!-- item_18 -->
<g id="node15" class="node">
<title>item_18</title>
<ellipse fill="black" stroke="black" cx="280" cy="-451" rx="4.5" ry="4.5"/>
<ellipse fill="none" stroke="black" cx="280" cy="-451" rx="8.5" ry="8.5"/>
</g>
<!-- item_17&#45;&gt;item_18 -->
<g id="edge11" class="edge">
<title>item_17&#45;&gt;item_18</title>
<path fill="none" stroke="black" d="M231.66,-517.31C241.67,-503.78 258.18,-481.48 269.07,-466.77"/>
<polygon fill="black" stroke="black" points="272.15,-468.48 275.29,-458.36 266.53,-464.32 272.15,-468.48"/>
</g>
<!-- item_20 -->
<g id="node17" class="node">
<title>item_20</title>
<ellipse fill="black" stroke="black" cx="315" cy="-451" rx="4.5" ry="4.5"/>
<ellipse fill="none" stroke="black" cx="315" cy="-451" rx="8.5" ry="8.5"/>
</g>
<!-- item_19&#45;&gt;item_20 -->
<g id="edge12" class="edge">
<title>item_19&#45;&gt;item_20</title>
<path fill="none" stroke="black" d="M298.89,-517.31C302.03,-504.57 307.09,-484.05 310.7,-469.42"/>
<polygon fill="black" stroke="black" points="314.13,-470.14 313.13,-459.6 307.33,-468.47 314.13,-470.14"/>
</g>
<!-- item_23 -->
<g id="node19" class="node">
<title>item_23</title>
<ellipse fill="black" stroke="black" cx="226" cy="-392.5" rx="4.5" ry="4.5"/>
<ellipse fill="none" stroke="black" cx="226" cy="-392.5" rx="8.5" ry="8.5"/>
</g>
<!-- item_22&#45;&gt;item_23 -->
<g id="edge16" class="edge">
<title>item_22&#45;&gt;item_23</title>
<path fill="none" stroke="black" d="M226,-438.29C226,-430.48 226,-420.05 226,-411.22"/>
<polygon fill="black" stroke="black" points="229.5,-411.21 226,-401.21 222.5,-411.21 229.5,-411.21"/>
</g>
<!-- item_11 -->
<g id="node21" class="node">
<title>item_11</title>
<polygon fill="#fefece" stroke="black" points="132,-353 125,-346 132,-339 139,-346 132,-353"/>
</g>
<!-- item_24&#45;&gt;item_11 -->
<g id="edge19" class="edge">
<title>item_24&#45;&gt;item_11</title>
<path fill="none" stroke="black" d="M132,-379.81C132,-374.79 132,-368.85 132,-363.4"/>
<polygon fill="black" stroke="black" points="135.5,-363.39 132,-353.39 128.5,-363.39 135.5,-363.39"/>
</g>
<!-- item_25 -->
<g id="node22" class="node">
<title>item_25</title>
<path fill="#fefece" stroke="black" d="M194.67,-309C194.67,-309 69.33,-309 69.33,-309 65.17,-309 61,-304.83 61,-300.67 61,-300.67 61,-292.33 61,-292.33 61,-288.17 65.17,-284 69.33,-284 69.33,-284 194.67,-284 194.67,-284 198.83,-284 203,-288.17 203,-292.33 203,-292.33 203,-300.67 203,-300.67 203,-304.83 198.83,-309 194.67,-309"/>
<text text-anchor="middle" x="132" y="-294" font-family="SansSerif,sans-serif" font-size="10.00">timestamp = timestamp * 3</text>
</g>
<!-- item_11&#45;&gt;item_25 -->
<g id="edge21" class="edge">
<title>item_11&#45;&gt;item_25</title>
<path fill="none" stroke="black" d="M132,-338.79C132,-333.91 132,-326.78 132,-319.83"/>
<polygon fill="black" stroke="black" points="135.5,-319.37 132,-309.37 128.5,-319.37 135.5,-319.37"/>
</g>
<!-- item_26 -->
<g id="node23" class="node">
<title>item_26</title>
<polygon fill="#fefece" stroke="black" points="132,-257 25,-238 132,-219 239,-238 132,-257"/>
<text text-anchor="middle" x="132" y="-235.5" font-family="SansSerif,sans-serif" font-size="10.00">timestamp &amp; 1 == 0</text>
</g>
<!-- item_25&#45;&gt;item_26 -->
<g id="edge26" class="edge">
<title>item_25&#45;&gt;item_26</title>
<path fill="none" stroke="black" d="M132,-283.79C132,-279.03 132,-273.29 132,-267.53"/>
<polygon fill="black" stroke="black" points="135.5,-267.37 132,-257.37 128.5,-267.37 135.5,-267.37"/>
</g>
<!-- item_27 -->
<g id="node24" class="node">
<title>item_27</title>
<path fill="#fefece" stroke="black" d="M173.17,-178C173.17,-178 46.83,-178 46.83,-178 42.67,-178 38.5,-173.83 38.5,-169.67 38.5,-169.67 38.5,-161.33 38.5,-161.33 38.5,-157.17 42.67,-153 46.83,-153 46.83,-153 173.17,-153 173.17,-153 177.33,-153 181.5,-157.17 181.5,-161.33 181.5,-161.33 181.5,-169.67 181.5,-169.67 181.5,-173.83 177.33,-178 173.17,-178"/>
<text text-anchor="middle" x="110" y="-163" font-family="SansSerif,sans-serif" font-size="10.00">timestamp = timestamp + 1</text>
</g>
<!-- item_26&#45;&gt;item_27 -->
<g id="edge22" class="edge">
<title>item_26&#45;&gt;item_27</title>
<path fill="none" stroke="black" d="M126.67,-219.93C123.69,-210.38 119.94,-198.36 116.76,-188.15"/>
<polygon fill="black" stroke="black" points="120.01,-186.84 113.69,-178.33 113.33,-188.92 120.01,-186.84"/>
<text text-anchor="middle" x="137.5" y="-194.8" font-family="Times,serif" font-size="14.00">true</text>
</g>
<!-- item_28 -->
<g id="node25" class="node">
<title>item_28</title>
<path fill="#fefece" stroke="black" d="M334.17,-178C334.17,-178 207.83,-178 207.83,-178 203.67,-178 199.5,-173.83 199.5,-169.67 199.5,-169.67 199.5,-161.33 199.5,-161.33 199.5,-157.17 203.67,-153 207.83,-153 207.83,-153 334.17,-153 334.17,-153 338.33,-153 342.5,-157.17 342.5,-161.33 342.5,-161.33 342.5,-169.67 342.5,-169.67 342.5,-173.83 338.33,-178 334.17,-178"/>
<text text-anchor="middle" x="271" y="-163" font-family="SansSerif,sans-serif" font-size="10.00">timestamp = timestamp + 2</text>
</g>
<!-- item_26&#45;&gt;item_28 -->
<g id="edge24" class="edge">
<title>item_26&#45;&gt;item_28</title>
<path fill="none" stroke="black" d="M158.47,-223.57C181.42,-211.93 214.68,-195.06 239.1,-182.68"/>
<polygon fill="black" stroke="black" points="240.97,-185.66 248.31,-178.01 237.8,-179.41 240.97,-185.66"/>
<text text-anchor="middle" x="239" y="-194.8" font-family="Times,serif" font-size="14.00">false</text>
</g>
<!-- item_29 -->
<g id="node26" class="node">
<title>item_29</title>
<polygon fill="#fefece" stroke="black" points="151,-126 144,-119 151,-112 158,-119 151,-126"/>
</g>
<!-- item_27&#45;&gt;item_29 -->
<g id="edge23" class="edge">
<title>item_27&#45;&gt;item_29</title>
<path fill="none" stroke="black" d="M120.77,-152.81C127.04,-146.01 134.88,-137.5 141,-130.85"/>
<polygon fill="black" stroke="black" points="143.78,-133 147.99,-123.27 138.64,-128.25 143.78,-133"/>
</g>
<!-- item_28&#45;&gt;item_29 -->
<g id="edge25" class="edge">
<title>item_28&#45;&gt;item_29</title>
<path fill="none" stroke="black" d="M239.78,-152.92C215.75,-144.01 183.63,-132.1 165.34,-125.32"/>
<polygon fill="black" stroke="black" points="166.34,-121.95 155.74,-121.76 163.9,-128.52 166.34,-121.95"/>
</g>
<!-- item_30 -->
<g id="node27" class="node">
<title>item_30</title>
<path fill="lightgreen" stroke="black" d="M201.17,-85C201.17,-85 100.83,-85 100.83,-85 96.67,-85 92.5,-80.83 92.5,-76.67 92.5,-76.67 92.5,-68.33 92.5,-68.33 92.5,-64.17 96.67,-60 100.83,-60 100.83,-60 201.17,-60 201.17,-60 205.33,-60 209.5,-64.17 209.5,-68.33 209.5,-68.33 209.5,-76.67 209.5,-76.67 209.5,-80.83 205.33,-85 201.17,-85"/>
<text text-anchor="middle" x="151" y="-70" font-family="SansSerif,sans-serif" font-size="10.00">return timestamp % 2</text>
</g>
<!-- item_29&#45;&gt;item_30 -->
<g id="edge28" class="edge">
<title>item_29&#45;&gt;item_30</title>
<path fill="none" stroke="black" d="M151,-111.81C151,-107.51 151,-101.5 151,-95.51"/>
<polygon fill="black" stroke="black" points="154.5,-95.13 151,-85.13 147.5,-95.13 154.5,-95.13"/>
</g>
<!-- item_31 -->
<g id="node28" class="node">
<title>item_31</title>
<ellipse fill="black" stroke="black" cx="151" cy="-24.5" rx="4.5" ry="4.5"/>
<ellipse fill="none" stroke="black" cx="151" cy="-24.5" rx="8.5" ry="8.5"/>
</g>
<!-- item_30&#45;&gt;item_31 -->
<g id="edge27" class="edge">
<title>item_30&#45;&gt;item_31</title>
<path fill="none" stroke="black" d="M151,-59.89C151,-54.9 151,-48.95 151,-43.41"/>
<polygon fill="black" stroke="black" points="154.5,-43.06 151,-33.06 147.5,-43.06 154.5,-43.06"/>
</g>
</g>
</svg>
