<?xml version="1.0" encoding="UTF-8" standalone="no"?><svg xmlns="http://www.w3.org/2000/svg" xmlns:xlink="http://www.w3.org/1999/xlink" contentScriptType="application/ecmascript" contentStyleType="text/css" height="1121px" preserveAspectRatio="none" style="width:450px;height:1121px;" version="1.1" viewBox="0 0 450 1121" width="450px" zoomAndPan="magnify"><defs><filter height="300%" id="fm9yla89gs9sl" width="300%" x="-1" y="-1"><feGaussianBlur result="blurOut" stdDeviation="2.0"/><feColorMatrix in="blurOut" result="blurOut2" type="matrix" values="0 0 0 0 0 0 0 0 0 0 0 0 0 0 0 0 0 0 .4 0"/><feOffset dx="4.0" dy="4.0" in="blurOut2" result="blurOut3"/><feBlend in="SourceGraphic" in2="blurOut3" mode="normal"/></filter></defs><g><rect fill="#FFFFFF" filter="url(#fm9yla89gs9sl)" height="223.7276" style="stroke: #000000; stroke-width: 2.0;" width="228" x="39" y="10.5997"/><line style="stroke: #000000; stroke-width: 2.0;" x1="39" x2="267" y1="33.6573" y2="33.6573"/><text fill="#000000" font-family="sans-serif" font-size="14" lengthAdjust="spacingAndGlyphs" textLength="89" x="108.5" y="27.5575">::main() -&gt; int</text><rect fill="#FEFECE" filter="url(#fm9yla89gs9sl)" height="36.335" rx="12.5" ry="12.5" style="stroke: #A80036; stroke-width: 1.5;" width="134" x="86" y="49.6573"/><text fill="#000000" font-family="sans-serif" font-size="12" lengthAdjust="spacingAndGlyphs" textLength="114" x="96" y="72.4782">::ExampleClass obj1;</text><rect fill="#90EE90" filter="url(#fm9yla89gs9sl)" height="36.335" rx="12.5" ry="12.5" style="stroke: #A80036; stroke-width: 1.5;" width="208" x="49" y="120.9923"/><text fill="#000000" font-family="sans-serif" font-size="12" lengthAdjust="spacingAndGlyphs" textLength="188" x="59" y="143.8132">return (&amp;obj1)-&gt;switchExample(3)</text><ellipse cx="153" cy="203.3273" fill="#FFFFFF" filter="url(#fm9yla89gs9sl)" rx="11" ry="11" style="stroke: #000000; stroke-width: 1.0;"/><ellipse cx="153" cy="203.3273" fill="#000000" rx="6" ry="6" style="stroke: #7F7F7F; stroke-width: 1.0;"/><rect fill="#FFFFFF" filter="url(#fm9yla89gs9sl)" height="865.1461" style="stroke: #000000; stroke-width: 2.0;" width="428.5" x="10" y="244.9271"/><line style="stroke: #000000; stroke-width: 2.0;" x1="10" x2="438.5" y1="267.9846" y2="267.9846"/><text fill="#000000" font-family="sans-serif" font-size="14" lengthAdjust="spacingAndGlyphs" textLength="370" x="39.25" y="261.8848">::ExampleClass::switchExample(int const paramA) -&gt; int</text><rect fill="#FEFECE" filter="url(#fm9yla89gs9sl)" height="36.335" rx="12.5" ry="12.5" style="stroke: #A80036; stroke-width: 1.5;" width="100" x="103" y="283.9846"/><text fill="#000000" font-family="sans-serif" font-size="12" lengthAdjust="spacingAndGlyphs" textLength="80" x="113" y="306.8055">int timestamp;</text><rect fill="#FEFECE" filter="url(#fm9yla89gs9sl)" height="36.335" rx="12.5" ry="12.5" style="stroke: #A80036; stroke-width: 1.5;" width="139" x="83.5" y="355.3196"/><text fill="#000000" font-family="sans-serif" font-size="12" lengthAdjust="spacingAndGlyphs" textLength="119" x="93.5" y="378.1406">timestamp = ::time(0)</text><rect fill="#FEFECE" filter="url(#fm9yla89gs9sl)" height="36.335" rx="12.5" ry="12.5" style="stroke: #A80036; stroke-width: 1.5;" width="211" x="47.5" y="426.6546"/><text fill="#000000" font-family="sans-serif" font-size="12" lengthAdjust="spacingAndGlyphs" textLength="191" x="57.5" y="449.4756">timestamp = timestamp + paramA</text><rect fill="#FFFFFF" filter="url(#fm9yla89gs9sl)" height="392.4135" style="stroke: #000000; stroke-width: 2.0;" width="408.5" x="20" y="497.9897"/><path d="M130,498.9897 L130,529.1047 L120,539.1047 L20,539.1047 " fill="none" style="stroke: #000000; stroke-width: 2.0;"/><text fill="#000000" font-family="sans-serif" font-size="14" lengthAdjust="spacingAndGlyphs" textLength="47" x="23" y="513.9474">switch:</text><text fill="#000000" font-family="sans-serif" font-size="14" lengthAdjust="spacingAndGlyphs" textLength="100" x="23" y="533.005">timestamp % 3</text><polygon fill="#FEFECE" filter="url(#fm9yla89gs9sl)" points="141,556.1047,165,556.1047,177,568.1047,165,580.1047,141,580.1047,129,568.1047,141,556.1047" style="stroke: #A80036; stroke-width: 1.5;"/><text fill="#000000" font-family="sans-serif" font-size="11" lengthAdjust="spacingAndGlyphs" textLength="14" x="146" y="572.3674">0 ?</text><text fill="#000000" font-family="sans-serif" font-size="11" lengthAdjust="spacingAndGlyphs" textLength="17" x="112" y="564.8857">yes</text><rect fill="#90EE90" filter="url(#fm9yla89gs9sl)" height="36.335" rx="12.5" ry="12.5" style="stroke: #A80036; stroke-width: 1.5;" width="65" x="40" y="590.1047"/><text fill="#000000" font-family="sans-serif" font-size="12" lengthAdjust="spacingAndGlyphs" textLength="45" x="50" y="612.9257">return 0</text><ellipse cx="72.5" cy="672.4397" fill="#FFFFFF" filter="url(#fm9yla89gs9sl)" rx="11" ry="11" style="stroke: #000000; stroke-width: 1.0;"/><ellipse cx="72.5" cy="672.4397" fill="#000000" rx="6" ry="6" style="stroke: #7F7F7F; stroke-width: 1.0;"/><path d="M312.5,608.2618 L312.5,635.9476 L408.5,635.9476 L408.5,618.2618 L398.5,608.2618 L312.5,608.2618 " fill="#FBFB77" filter="url(#fm9yla89gs9sl)" style="stroke: #A80036; stroke-width: 1.0;"/><path d="M398.5,608.2618 L398.5,618.2618 L408.5,618.2618 L398.5,608.2618 " fill="#FBFB77" style="stroke: #A80036; stroke-width: 1.0;"/><text fill="#000000" font-family="sans-serif" font-size="13" lengthAdjust="spacingAndGlyphs" textLength="75" x="318.5" y="627.143">[fallthrough]</text><polygon fill="#FEFECE" filter="url(#fm9yla89gs9sl)" points="221.5,590.1047,245.5,590.1047,257.5,602.1047,245.5,614.1047,221.5,614.1047,209.5,602.1047,221.5,590.1047" style="stroke: #A80036; stroke-width: 1.5;"/><text fill="#000000" font-family="sans-serif" font-size="11" lengthAdjust="spacingAndGlyphs" textLength="14" x="226.5" y="606.3674">1 ?</text><text fill="#000000" font-family="sans-serif" font-size="11" lengthAdjust="spacingAndGlyphs" textLength="17" x="192.5" y="598.8857">yes</text><polygon fill="#FEFECE" filter="url(#fm9yla89gs9sl)" points="233.5,630.1047,245.5,642.1047,233.5,654.1047,221.5,642.1047,233.5,630.1047" style="stroke: #A80036; stroke-width: 1.5;"/><polygon fill="#FEFECE" filter="url(#fm9yla89gs9sl)" points="221.5,689.1047,245.5,689.1047,257.5,701.1047,245.5,713.1047,221.5,713.1047,209.5,701.1047,221.5,689.1047" style="stroke: #A80036; stroke-width: 1.5;"/><text fill="#000000" font-family="sans-serif" font-size="11" lengthAdjust="spacingAndGlyphs" textLength="14" x="226.5" y="705.3674">2 ?</text><text fill="#000000" font-family="sans-serif" font-size="11" lengthAdjust="spacingAndGlyphs" textLength="17" x="192.5" y="697.8857">yes</text><rect fill="#90EE90" filter="url(#fm9yla89gs9sl)" height="36.335" rx="12.5" ry="12.5" style="stroke: #A80036; stroke-width: 1.5;" width="65" x="135" y="723.1047"/><text fill="#000000" font-family="sans-serif" font-size="12" lengthAdjust="spacingAndGlyphs" textLength="45" x="145" y="745.9257">return 2</text><ellipse cx="167.5" cy="805.4397" fill="#FFFFFF" filter="url(#fm9yla89gs9sl)" rx="11" ry="11" style="stroke: #000000; stroke-width: 1.0;"/><ellipse cx="167.5" cy="805.4397" fill="#000000" rx="6" ry="6" style="stroke: #7F7F7F; stroke-width: 1.0;"/><rect fill="#FEFECE" filter="url(#fm9yla89gs9sl)" height="36.335" rx="12.5" ry="12.5" style="stroke: #A80036; stroke-width: 1.5;" width="139" x="230" y="772.5864"/><text fill="#000000" font-family="sans-serif" font-size="12" lengthAdjust="spacingAndGlyphs" textLength="119" x="240" y="795.4073">timestamp = ::time(0)</text><polygon fill="#FEFECE" filter="url(#fm9yla89gs9sl)" points="278,723.1047,321,723.1047,333,735.1047,321,747.1047,278,747.1047,266,735.1047,278,723.1047" style="stroke: #A80036; stroke-width: 1.5;"/><text fill="#000000" font-family="sans-serif" font-size="11" lengthAdjust="spacingAndGlyphs" textLength="17" x="303.5" y="758.8491">yes</text><text fill="#000000" font-family="sans-serif" font-size="11" lengthAdjust="spacingAndGlyphs" textLength="37" x="281" y="739.3674">default</text><polygon fill="#FEFECE" filter="url(#fm9yla89gs9sl)" points="299.5,834.4031,311.5,846.4031,299.5,858.4031,287.5,846.4031,299.5,834.4031" style="stroke: #A80036; stroke-width: 1.5;"/><rect fill="#FEFECE" filter="url(#fm9yla89gs9sl)" height="36.335" rx="12.5" ry="12.5" style="stroke: #A80036; stroke-width: 1.5;" width="173" x="66.5" y="925.4031"/><text fill="#000000" font-family="sans-serif" font-size="12" lengthAdjust="spacingAndGlyphs" textLength="153" x="76.5" y="948.2241">timestamp = timestamp * 3</text><rect fill="#90EE90" filter="url(#fm9yla89gs9sl)" height="36.335" rx="12.5" ry="12.5" style="stroke: #A80036; stroke-width: 1.5;" width="141" x="82.5" y="996.7381"/><text fill="#000000" font-family="sans-serif" font-size="12" lengthAdjust="spacingAndGlyphs" textLength="121" x="92.5" y="1019.5591">return timestamp % 2</text><ellipse cx="153" cy="1079.0732" fill="#FFFFFF" filter="url(#fm9yla89gs9sl)" rx="11" ry="11" style="stroke: #000000; stroke-width: 1.0;"/><ellipse cx="153" cy="1079.0732" fill="#000000" rx="6" ry="6" style="stroke: #7F7F7F; stroke-width: 1.0;"/><line style="stroke: #A80036; stroke-width: 1.5;" x1="153" x2="153" y1="85.9923" y2="120.9923"/><polygon fill="#A80036" points="149,110.9923,153,120.9923,157,110.9923,153,114.9923" style="stroke: #A80036; stroke-width: 1.0;"/><line style="stroke: #A80036; stroke-width: 1.5;" x1="153" x2="153" y1="157.3273" y2="192.3273"/><polygon fill="#A80036" points="149,182.3273,153,192.3273,157,182.3273,153,186.3273" style="stroke: #A80036; stroke-width: 1.0;"/><line style="stroke: #A80036; stroke-width: 1.5;" x1="153" x2="153" y1="320.3196" y2="355.3196"/><polygon fill="#A80036" points="149,345.3196,153,355.3196,157,345.3196,153,349.3196" style="stroke: #A80036; stroke-width: 1.0;"/><line style="stroke: #A80036; stroke-width: 1.5;" x1="153" x2="153" y1="391.6546" y2="426.6546"/><polygon fill="#A80036" points="149,416.6546,153,426.6546,157,416.6546,153,420.6546" style="stroke: #A80036; stroke-width: 1.0;"/><line style="stroke: #A80036; stroke-width: 1.5;" x1="72.5" x2="72.5" y1="626.4397" y2="661.4397"/><polygon fill="#A80036" points="68.5,651.4397,72.5,661.4397,76.5,651.4397,72.5,655.4397" style="stroke: #A80036; stroke-width: 1.0;"/><line style="stroke: #A80036; stroke-width: 1.5;" x1="209.5" x2="199.5" y1="602.1047" y2="602.1047"/><polygon fill="#A80036" points="195.5,612.1047,199.5,622.1047,203.5,612.1047,199.5,616.1047" style="stroke: #A80036; stroke-width: 1.5;"/><line style="stroke: #A80036; stroke-width: 1.5;" x1="199.5" x2="199.5" y1="602.1047" y2="642.1047"/><line style="stroke: #A80036; stroke-width: 1.5;" x1="199.5" x2="221.5" y1="642.1047" y2="642.1047"/><polygon fill="#A80036" points="211.5,638.1047,221.5,642.1047,211.5,646.1047,215.5,642.1047" style="stroke: #A80036; stroke-width: 1.0;"/><line style="stroke: #A80036; stroke-width: 1.5;" x1="257.5" x2="267.5" y1="602.1047" y2="602.1047"/><polygon fill="#A80036" points="263.5,612.1047,267.5,622.1047,271.5,612.1047,267.5,616.1047" style="stroke: #A80036; stroke-width: 1.5;"/><line style="stroke: #A80036; stroke-width: 1.5;" x1="267.5" x2="267.5" y1="602.1047" y2="642.1047"/><line style="stroke: #A80036; stroke-width: 1.5;" x1="267.5" x2="245.5" y1="642.1047" y2="642.1047"/><polygon fill="#A80036" points="255.5,638.1047,245.5,642.1047,255.5,646.1047,251.5,642.1047" style="stroke: #A80036; stroke-width: 1.0;"/><line style="stroke: #A80036; stroke-width: 1.5;" x1="167.5" x2="167.5" y1="759.4397" y2="794.4397"/><polygon fill="#A80036" points="163.5,784.4397,167.5,794.4397,171.5,784.4397,167.5,788.4397" style="stroke: #A80036; stroke-width: 1.0;"/><line style="stroke: #A80036; stroke-width: 1.5;" x1="299.5" x2="299.5" y1="747.1047" y2="772.5864"/><polygon fill="#A80036" points="295.5,762.5864,299.5,772.5864,303.5,762.5864,299.5,766.5864" style="stroke: #A80036; stroke-width: 1.0;"/><line style="stroke: #A80036; stroke-width: 1.5;" x1="299.5" x2="299.5" y1="808.9214" y2="834.4031"/><polygon fill="#A80036" points="295.5,824.4031,299.5,834.4031,303.5,824.4031,299.5,828.4031" style="stroke: #A80036; stroke-width: 1.0;"/><line style="stroke: #A80036; stroke-width: 1.5;" x1="209.5" x2="167.5" y1="701.1047" y2="701.1047"/><line style="stroke: #A80036; stroke-width: 1.5;" x1="167.5" x2="167.5" y1="701.1047" y2="723.1047"/><polygon fill="#A80036" points="163.5,713.1047,167.5,723.1047,171.5,713.1047,167.5,717.1047" style="stroke: #A80036; stroke-width: 1.0;"/><line style="stroke: #A80036; stroke-width: 1.5;" x1="257.5" x2="299.5" y1="701.1047" y2="701.1047"/><line style="stroke: #A80036; stroke-width: 1.5;" x1="299.5" x2="299.5" y1="701.1047" y2="723.1047"/><polygon fill="#A80036" points="295.5,713.1047,299.5,723.1047,303.5,713.1047,299.5,717.1047" style="stroke: #A80036; stroke-width: 1.0;"/><line style="stroke: #A80036; stroke-width: 1.5;" x1="299.5" x2="299.5" y1="858.4031" y2="870.4031"/><line style="stroke: #A80036; stroke-width: 1.5;" x1="299.5" x2="153" y1="870.4031" y2="870.4031"/><line style="stroke: #A80036; stroke-width: 1.5;" x1="153" x2="153" y1="870.4031" y2="925.4031"/><polygon fill="#A80036" points="149,915.4031,153,925.4031,157,915.4031,153,919.4031" style="stroke: #A80036; stroke-width: 1.0;"/><line style="stroke: #A80036; stroke-width: 1.5;" x1="233.5" x2="233.5" y1="654.1047" y2="689.1047"/><polygon fill="#A80036" points="229.5,679.1047,233.5,689.1047,237.5,679.1047,233.5,683.1047" style="stroke: #A80036; stroke-width: 1.0;"/><line style="stroke: #A80036; stroke-width: 1.5;" x1="129" x2="72.5" y1="568.1047" y2="568.1047"/><line style="stroke: #A80036; stroke-width: 1.5;" x1="72.5" x2="72.5" y1="568.1047" y2="590.1047"/><polygon fill="#A80036" points="68.5,580.1047,72.5,590.1047,76.5,580.1047,72.5,584.1047" style="stroke: #A80036; stroke-width: 1.0;"/><line style="stroke: #A80036; stroke-width: 1.5;" x1="177" x2="233.5" y1="568.1047" y2="568.1047"/><line style="stroke: #A80036; stroke-width: 1.5;" x1="233.5" x2="233.5" y1="568.1047" y2="590.1047"/><polygon fill="#A80036" points="229.5,580.1047,233.5,590.1047,237.5,580.1047,233.5,584.1047" style="stroke: #A80036; stroke-width: 1.0;"/><line style="stroke: #A80036; stroke-width: 1.5;" x1="153" x2="153" y1="462.9897" y2="556.1047"/><polygon fill="#A80036" points="149,546.1047,153,556.1047,157,546.1047,153,550.1047" style="stroke: #A80036; stroke-width: 1.0;"/><line style="stroke: #A80036; stroke-width: 1.5;" x1="153" x2="153" y1="961.7381" y2="996.7381"/><polygon fill="#A80036" points="149,986.7381,153,996.7381,157,986.7381,153,990.7381" style="stroke: #A80036; stroke-width: 1.0;"/><line style="stroke: #A80036; stroke-width: 1.5;" x1="153" x2="153" y1="1033.0732" y2="1068.0732"/><polygon fill="#A80036" points="149,1058.0732,153,1068.0732,157,1058.0732,153,1062.0732" style="stroke: #A80036; stroke-width: 1.0;"/><!--MD5=[aaa85c04015024bee0460b3dbbfbd3fc]
@startuml

card "::main() -> int" {
    :::ExampleClass obj1;;
    #lightgreen:return (&obj1)->switchExample(3);
    stop
    -[hidden]->
}

card "::ExampleClass::switchExample(int const paramA) -> int" {
    :int timestamp;;
    :timestamp = ::time(0);
    :timestamp = timestamp + paramA;

partition "switch:\ntimestamp % 3" {
    if ( 0 ? ) then (yes)
        #lightgreen:return 0;
        stop
    else
        if ( 1 ? ) then (yes)
        endif
        note right: [fallthrough]
        if ( 2 ? ) then (yes)
            #lightgreen:return 2;
            stop
        else
            if ( default ) then (yes)
                :timestamp = ::time(0);
            else
                -[hidden]->
            endif
        endif
    endif
}
    :timestamp = timestamp * 3;
    #lightgreen:return timestamp % 2;
    stop
    -[hidden]->
}


@enduml

PlantUML version 1.2020.02(Sun Mar 01 11:22:07 CET 2020)
(GPL source distribution)
Java Runtime: Java(TM) SE Runtime Environment
JVM: Java HotSpot(TM) 64-Bit Server VM
Java Version: 1.8.0_212-b10
Operating System: Linux
Default Encoding: UTF-8
Language: en
Country: US
--></g></svg>