<?xml version="1.0" encoding="UTF-8" standalone="no"?><svg xmlns="http://www.w3.org/2000/svg" xmlns:xlink="http://www.w3.org/1999/xlink" contentScriptType="application/ecmascript" contentStyleType="text/css" height="575px" preserveAspectRatio="none" style="width:1627px;height:575px;" version="1.1" viewBox="0 0 1627 575" width="1627px" zoomAndPan="magnify"><defs><filter height="300%" id="f133vno0eys955" width="300%" x="-1" y="-1"><feGaussianBlur result="blurOut" stdDeviation="2.0"/><feColorMatrix in="blurOut" result="blurOut2" type="matrix" values="0 0 0 0 0 0 0 0 0 0 0 0 0 0 0 0 0 0 .4 0"/><feOffset dx="4.0" dy="4.0" in="blurOut2" result="blurOut3"/><feBlend in="SourceGraphic" in2="blurOut3" mode="normal"/></filter></defs><g><!--MD5=[9435a3030d50ad9ddb3fe51a501c3141]
class @16--><rect fill="#FEFECE" filter="url(#f133vno0eys955)" height="62.9634" id="@16" style="stroke: #A80036; stroke-width: 1.5;" width="188" x="6" y="30.5"/><ellipse cx="21" cy="46.5" fill="#ADD1B2" rx="11" ry="11" style="stroke: #A80036; stroke-width: 1.0;"/><path d="M23.9688,52.1406 Q23.3906,52.4375 22.75,52.5859 Q22.1094,52.7344 21.4063,52.7344 Q18.9063,52.7344 17.5859,51.0859 Q16.2656,49.4375 16.2656,46.3125 Q16.2656,43.1875 17.5859,41.5313 Q18.9063,39.875 21.4063,39.875 Q22.1094,39.875 22.7578,40.0313 Q23.4063,40.1875 23.9688,40.4844 L23.9688,43.2031 Q23.3438,42.625 22.75,42.3516 Q22.1563,42.0781 21.5313,42.0781 Q20.1875,42.0781 19.5,43.1484 Q18.8125,44.2188 18.8125,46.3125 Q18.8125,48.4063 19.5,49.4766 Q20.1875,50.5469 21.5313,50.5469 Q22.1563,50.5469 22.75,50.2734 Q23.3438,50 23.9688,49.4219 L23.9688,52.1406 Z "/><text fill="#000000" font-family="sans-serif" font-size="12" lengthAdjust="spacingAndGlyphs" textLength="156" x="35" y="51.1534">::[anonymous]::AnonNSItem</text><line style="stroke: #A80036; stroke-width: 1.5;" x1="7" x2="193" y1="62.5" y2="62.5"/><ellipse cx="17" cy="73.5" fill="none" rx="3" ry="3" style="stroke: #038048; stroke-width: 1.0;"/><text fill="#000000" font-family="sans-serif" font-size="11" lengthAdjust="spacingAndGlyphs" textLength="40" x="26" y="78.2444">int data</text><line style="stroke: #A80036; stroke-width: 1.5;" x1="7" x2="193" y1="85.4634" y2="85.4634"/><!--MD5=[1e6bb4863ca9fe25376eb15f06cc3edc]
class @57--><rect fill="#FEFECE" filter="url(#f133vno0eys955)" height="107.8535" id="@57" style="stroke: #A80036; stroke-width: 1.5;" width="162" x="229" y="8"/><ellipse cx="244" cy="24" fill="#ADD1B2" rx="11" ry="11" style="stroke: #A80036; stroke-width: 1.0;"/><path d="M246.9688,29.6406 Q246.3906,29.9375 245.75,30.0859 Q245.1094,30.2344 244.4063,30.2344 Q241.9063,30.2344 240.5859,28.5859 Q239.2656,26.9375 239.2656,23.8125 Q239.2656,20.6875 240.5859,19.0313 Q241.9063,17.375 244.4063,17.375 Q245.1094,17.375 245.7578,17.5313 Q246.4063,17.6875 246.9688,17.9844 L246.9688,20.7031 Q246.3438,20.125 245.75,19.8516 Q245.1563,19.5781 244.5313,19.5781 Q243.1875,19.5781 242.5,20.6484 Q241.8125,21.7188 241.8125,23.8125 Q241.8125,25.9063 242.5,26.9766 Q243.1875,28.0469 244.5313,28.0469 Q245.1563,28.0469 245.75,27.7734 Q246.3438,27.5 246.9688,26.9219 L246.9688,29.6406 Z "/><text fill="#000000" font-family="sans-serif" font-size="12" lengthAdjust="spacingAndGlyphs" textLength="130" x="258" y="28.6534">::membersns::SubClass</text><line style="stroke: #A80036; stroke-width: 1.5;" x1="230" x2="390" y1="40" y2="40"/><polygon fill="none" points="240,46,244,50,240,54,236,50" style="stroke: #B38D22; stroke-width: 1.0;"/><text fill="#000000" font-family="sans-serif" font-size="11" lengthAdjust="spacingAndGlyphs" text-decoration="underline" textLength="100" x="249" y="55.7444">int const staticField</text><line style="stroke: #A80036; stroke-width: 1.5;" x1="230" x2="390" y1="62.9634" y2="62.9634"/><ellipse cx="240" cy="73.9634" fill="#84BE84" rx="3" ry="3" style="stroke: #038048; stroke-width: 1.0;"/><text fill="#000000" font-family="sans-serif" font-size="11" lengthAdjust="spacingAndGlyphs" textLength="84" x="249" y="78.7078">virt int * virtFn()</text><polygon fill="#FFFF44" points="240,83.9268,244,87.9268,240,91.9268,236,87.9268" style="stroke: #B38D22; stroke-width: 1.0;"/><text fill="#000000" font-family="sans-serif" font-size="11" lengthAdjust="spacingAndGlyphs" textLength="109" x="249" y="93.6711">virt void virtPureFn()</text><ellipse cx="240" cy="103.8901" fill="#84BE84" rx="3" ry="3" style="stroke: #038048; stroke-width: 1.0;"/><text fill="#000000" font-family="sans-serif" font-size="11" lengthAdjust="spacingAndGlyphs" textLength="128" x="249" y="108.6345">virt  ~SubClass() =default</text><!--MD5=[0e67b0e793378a8778b7d554625c7cdf]
class @71--><rect fill="#FEFECE" filter="url(#f133vno0eys955)" height="62.9634" id="@71" style="stroke: #A80036; stroke-width: 1.5;" width="219" x="568.5" y="30.5"/><ellipse cx="583.5" cy="46.5" fill="#ADD1B2" rx="11" ry="11" style="stroke: #A80036; stroke-width: 1.0;"/><path d="M586.4688,52.1406 Q585.8906,52.4375 585.25,52.5859 Q584.6094,52.7344 583.9063,52.7344 Q581.4063,52.7344 580.0859,51.0859 Q578.7656,49.4375 578.7656,46.3125 Q578.7656,43.1875 580.0859,41.5313 Q581.4063,39.875 583.9063,39.875 Q584.6094,39.875 585.2578,40.0313 Q585.9063,40.1875 586.4688,40.4844 L586.4688,43.2031 Q585.8438,42.625 585.25,42.3516 Q584.6563,42.0781 584.0313,42.0781 Q582.6875,42.0781 582,43.1484 Q581.3125,44.2188 581.3125,46.3125 Q581.3125,48.4063 582,49.4766 Q582.6875,50.5469 584.0313,50.5469 Q584.6563,50.5469 585.25,50.2734 Q585.8438,50 586.4688,49.4219 L586.4688,52.1406 Z "/><text fill="#000000" font-family="sans-serif" font-size="12" lengthAdjust="spacingAndGlyphs" textLength="187" x="597.5" y="51.1534">::templatens::TemplInheritDouble</text><line style="stroke: #A80036; stroke-width: 1.5;" x1="569.5" x2="786.5" y1="62.5" y2="62.5"/><ellipse cx="579.5" cy="73.5" fill="none" rx="3" ry="3" style="stroke: #038048; stroke-width: 1.0;"/><text fill="#000000" font-family="sans-serif" font-size="11" lengthAdjust="spacingAndGlyphs" textLength="57" x="588.5" y="78.2444">bool dataA</text><line style="stroke: #A80036; stroke-width: 1.5;" x1="569.5" x2="786.5" y1="85.4634" y2="85.4634"/><!--MD5=[bf073342f51dafc2de3fed4be47e6f0d]
class @74--><rect fill="#FEFECE" filter="url(#f133vno0eys955)" height="197.6338" id="@74" style="stroke: #A80036; stroke-width: 1.5;" width="255" x="182.5" y="195"/><ellipse cx="237.25" cy="211" fill="#ADD1B2" rx="11" ry="11" style="stroke: #A80036; stroke-width: 1.0;"/><path d="M240.2188,216.6406 Q239.6406,216.9375 239,217.0859 Q238.3594,217.2344 237.6563,217.2344 Q235.1563,217.2344 233.8359,215.5859 Q232.5156,213.9375 232.5156,210.8125 Q232.5156,207.6875 233.8359,206.0313 Q235.1563,204.375 237.6563,204.375 Q238.3594,204.375 239.0078,204.5313 Q239.6563,204.6875 240.2188,204.9844 L240.2188,207.7031 Q239.5938,207.125 239,206.8516 Q238.4063,206.5781 237.7813,206.5781 Q236.4375,206.5781 235.75,207.6484 Q235.0625,208.7188 235.0625,210.8125 Q235.0625,212.9063 235.75,213.9766 Q236.4375,215.0469 237.7813,215.0469 Q238.4063,215.0469 239,214.7734 Q239.5938,214.5 240.2188,213.9219 L240.2188,216.6406 Z "/><text fill="#000000" font-family="sans-serif" font-size="12" lengthAdjust="spacingAndGlyphs" textLength="137" x="257.75" y="215.6534">::membersns::BaseClass</text><line style="stroke: #A80036; stroke-width: 1.5;" x1="183.5" x2="436.5" y1="227" y2="227"/><ellipse cx="193.5" cy="238" fill="none" rx="3" ry="3" style="stroke: #038048; stroke-width: 1.0;"/><text fill="#000000" font-family="sans-serif" font-size="11" lengthAdjust="spacingAndGlyphs" textLength="171" x="202.5" y="242.7444">__vtbl_ptr_type * _vptr.BaseClass</text><ellipse cx="193.5" cy="252.9634" fill="none" rx="3" ry="3" style="stroke: #038048; stroke-width: 1.0;"/><text fill="#000000" font-family="sans-serif" font-size="11" lengthAdjust="spacingAndGlyphs" textLength="91" x="202.5" y="257.7078">bool publicFieldA</text><ellipse cx="193.5" cy="267.9268" fill="none" rx="3" ry="3" style="stroke: #038048; stroke-width: 1.0;"/><text fill="#000000" font-family="sans-serif" font-size="11" lengthAdjust="spacingAndGlyphs" textLength="110" x="202.5" y="272.6711">bool protectedFieldB</text><rect fill="none" height="6" style="stroke: #C82930; stroke-width: 1.0;" width="6" x="190.5" y="279.8901"/><text fill="#000000" font-family="sans-serif" font-size="11" lengthAdjust="spacingAndGlyphs" textLength="86" x="202.5" y="287.6345">int privateFieldC</text><line style="stroke: #A80036; stroke-width: 1.5;" x1="183.5" x2="436.5" y1="294.8535" y2="294.8535"/><ellipse cx="193.5" cy="305.8535" fill="#84BE84" rx="3" ry="3" style="stroke: #038048; stroke-width: 1.0;"/><text fill="#000000" font-family="sans-serif" font-size="11" lengthAdjust="spacingAndGlyphs" textLength="102" x="202.5" y="310.5979">BaseClass() =default</text><ellipse cx="193.5" cy="320.8169" fill="#84BE84" rx="3" ry="3" style="stroke: #038048; stroke-width: 1.0;"/><text fill="#000000" font-family="sans-serif" font-size="11" lengthAdjust="spacingAndGlyphs" textLength="132" x="202.5" y="325.5613">virt  ~BaseClass() =default</text><ellipse cx="193.5" cy="335.7803" fill="#84BE84" rx="3" ry="3" style="stroke: #038048; stroke-width: 1.0;"/><text fill="#000000" font-family="sans-serif" font-size="11" lengthAdjust="spacingAndGlyphs" textLength="229" x="202.5" y="340.5247">int regularFn(int paramA, bool /*anonym*/)</text><ellipse cx="193.5" cy="350.7437" fill="#84BE84" rx="3" ry="3" style="stroke: #038048; stroke-width: 1.0;"/><text fill="#000000" font-family="sans-serif" font-size="11" lengthAdjust="spacingAndGlyphs" textLength="84" x="202.5" y="355.488">virt int * virtFn()</text><ellipse cx="193.5" cy="365.707" fill="#84BE84" rx="3" ry="3" style="stroke: #038048; stroke-width: 1.0;"/><text fill="#000000" font-family="sans-serif" font-size="11" lengthAdjust="spacingAndGlyphs" text-decoration="underline" textLength="184" x="202.5" y="370.4514">void staticFn(double const paramA)</text><polygon fill="#FFFF44" points="193.5,375.6704,197.5,379.6704,193.5,383.6704,189.5,379.6704" style="stroke: #B38D22; stroke-width: 1.0;"/><text fill="#000000" font-family="sans-serif" font-size="11" font-style="italic" lengthAdjust="spacingAndGlyphs" textLength="111" x="202.5" y="385.4148">virt void virtPureFn() =0</text><!--MD5=[e9ed99b6d28ea18007e1ce78d5b2d844]
class @94--><rect fill="#FEFECE" filter="url(#f133vno0eys955)" height="62.9634" id="@94" style="stroke: #A80036; stroke-width: 1.5;" width="179" x="1006.5" y="30.5"/><ellipse cx="1021.5" cy="46.5" fill="#ADD1B2" rx="11" ry="11" style="stroke: #A80036; stroke-width: 1.0;"/><path d="M1024.4688,52.1406 Q1023.8906,52.4375 1023.25,52.5859 Q1022.6094,52.7344 1021.9063,52.7344 Q1019.4063,52.7344 1018.0859,51.0859 Q1016.7656,49.4375 1016.7656,46.3125 Q1016.7656,43.1875 1018.0859,41.5313 Q1019.4063,39.875 1021.9063,39.875 Q1022.6094,39.875 1023.2578,40.0313 Q1023.9063,40.1875 1024.4688,40.4844 L1024.4688,43.2031 Q1023.8438,42.625 1023.25,42.3516 Q1022.6563,42.0781 1022.0313,42.0781 Q1020.6875,42.0781 1020,43.1484 Q1019.3125,44.2188 1019.3125,46.3125 Q1019.3125,48.4063 1020,49.4766 Q1020.6875,50.5469 1022.0313,50.5469 Q1022.6563,50.5469 1023.25,50.2734 Q1023.8438,50 1024.4688,49.4219 L1024.4688,52.1406 Z "/><text fill="#000000" font-family="sans-serif" font-size="12" lengthAdjust="spacingAndGlyphs" textLength="147" x="1035.5" y="51.1534">::templatens::TemplInherit</text><line style="stroke: #A80036; stroke-width: 1.5;" x1="1007.5" x2="1184.5" y1="62.5" y2="62.5"/><ellipse cx="1017.5" cy="73.5" fill="none" rx="3" ry="3" style="stroke: #038048; stroke-width: 1.0;"/><text fill="#000000" font-family="sans-serif" font-size="11" lengthAdjust="spacingAndGlyphs" textLength="74" x="1026.5" y="78.2444">int8_t fieldA :3</text><line style="stroke: #A80036; stroke-width: 1.5;" x1="1007.5" x2="1184.5" y1="85.4634" y2="85.4634"/><!--MD5=[0cbcfcd35d97907faf3b919e235ed420]
class @89--><rect fill="#FEFECE" filter="url(#f133vno0eys955)" height="92.8901" id="@89" style="stroke: #A80036; stroke-width: 1.5;" width="201" x="472.5" y="247.5"/><ellipse cx="487.5" cy="263.5" fill="#ADD1B2" rx="11" ry="11" style="stroke: #A80036; stroke-width: 1.0;"/><path d="M490.4688,269.1406 Q489.8906,269.4375 489.25,269.5859 Q488.6094,269.7344 487.9063,269.7344 Q485.4063,269.7344 484.0859,268.0859 Q482.7656,266.4375 482.7656,263.3125 Q482.7656,260.1875 484.0859,258.5313 Q485.4063,256.875 487.9063,256.875 Q488.6094,256.875 489.2578,257.0313 Q489.9063,257.1875 490.4688,257.4844 L490.4688,260.2031 Q489.8438,259.625 489.25,259.3516 Q488.6563,259.0781 488.0313,259.0781 Q486.6875,259.0781 486,260.1484 Q485.3125,261.2188 485.3125,263.3125 Q485.3125,265.4063 486,266.4766 Q486.6875,267.5469 488.0313,267.5469 Q488.6563,267.5469 489.25,267.2734 Q489.8438,267 490.4688,266.4219 L490.4688,269.1406 Z "/><text fill="#000000" font-family="sans-serif" font-size="12" lengthAdjust="spacingAndGlyphs" textLength="131" x="501.5" y="268.1534">::templatens::AbcTempl</text><rect fill="#FFFFFF" height="18.335" style="stroke: #000000; stroke-width: 1.0; stroke-dasharray: 2.0,2.0;" width="36" x="640.5" y="244.5"/><text fill="#000000" font-family="sans-serif" font-size="12" font-style="italic" lengthAdjust="spacingAndGlyphs" textLength="34" x="641.5" y="258.321">int, int</text><line style="stroke: #A80036; stroke-width: 1.5;" x1="473.5" x2="672.5" y1="279.5" y2="279.5"/><ellipse cx="483.5" cy="290.5" fill="none" rx="3" ry="3" style="stroke: #038048; stroke-width: 1.0;"/><text fill="#000000" font-family="sans-serif" font-size="11" lengthAdjust="spacingAndGlyphs" textLength="46" x="492.5" y="295.2444">int field1</text><ellipse cx="483.5" cy="305.4634" fill="none" rx="3" ry="3" style="stroke: #038048; stroke-width: 1.0;"/><text fill="#000000" font-family="sans-serif" font-size="11" lengthAdjust="spacingAndGlyphs" textLength="56" x="492.5" y="310.2078">bool field2</text><ellipse cx="483.5" cy="320.4268" fill="none" rx="3" ry="3" style="stroke: #038048; stroke-width: 1.0;"/><text fill="#000000" font-family="sans-serif" font-size="11" lengthAdjust="spacingAndGlyphs" textLength="46" x="492.5" y="325.1711">int field3</text><line style="stroke: #A80036; stroke-width: 1.5;" x1="473.5" x2="672.5" y1="332.3901" y2="332.3901"/><!--MD5=[404e2798d76c84e1ad3e847b38f1ccab]
class @90--><rect fill="#FEFECE" filter="url(#f133vno0eys955)" height="92.8901" id="@90" style="stroke: #A80036; stroke-width: 1.5;" width="247" x="708.5" y="247.5"/><ellipse cx="723.5" cy="263.5" fill="#ADD1B2" rx="11" ry="11" style="stroke: #A80036; stroke-width: 1.0;"/><path d="M726.4688,269.1406 Q725.8906,269.4375 725.25,269.5859 Q724.6094,269.7344 723.9063,269.7344 Q721.4063,269.7344 720.0859,268.0859 Q718.7656,266.4375 718.7656,263.3125 Q718.7656,260.1875 720.0859,258.5313 Q721.4063,256.875 723.9063,256.875 Q724.6094,256.875 725.2578,257.0313 Q725.9063,257.1875 726.4688,257.4844 L726.4688,260.2031 Q725.8438,259.625 725.25,259.3516 Q724.6563,259.0781 724.0313,259.0781 Q722.6875,259.0781 722,260.1484 Q721.3125,261.2188 721.3125,263.3125 Q721.3125,265.4063 722,266.4766 Q722.6875,267.5469 724.0313,267.5469 Q724.6563,267.5469 725.25,267.2734 Q725.8438,267 726.4688,266.4219 L726.4688,269.1406 Z "/><text fill="#000000" font-family="sans-serif" font-size="12" lengthAdjust="spacingAndGlyphs" textLength="131" x="737.5" y="268.1534">::templatens::AbcTempl</text><rect fill="#FFFFFF" height="18.335" style="stroke: #000000; stroke-width: 1.0; stroke-dasharray: 2.0,2.0;" width="82" x="876.5" y="244.5"/><text fill="#000000" font-family="sans-serif" font-size="12" font-style="italic" lengthAdjust="spacingAndGlyphs" textLength="80" x="877.5" y="258.321">double, double</text><line style="stroke: #A80036; stroke-width: 1.5;" x1="709.5" x2="954.5" y1="279.5" y2="279.5"/><ellipse cx="719.5" cy="290.5" fill="none" rx="3" ry="3" style="stroke: #038048; stroke-width: 1.0;"/><text fill="#000000" font-family="sans-serif" font-size="11" lengthAdjust="spacingAndGlyphs" textLength="69" x="728.5" y="295.2444">double field1</text><ellipse cx="719.5" cy="305.4634" fill="none" rx="3" ry="3" style="stroke: #038048; stroke-width: 1.0;"/><text fill="#000000" font-family="sans-serif" font-size="11" lengthAdjust="spacingAndGlyphs" textLength="56" x="728.5" y="310.2078">bool field2</text><ellipse cx="719.5" cy="320.4268" fill="none" rx="3" ry="3" style="stroke: #038048; stroke-width: 1.0;"/><text fill="#000000" font-family="sans-serif" font-size="11" lengthAdjust="spacingAndGlyphs" textLength="69" x="728.5" y="325.1711">double field3</text><line style="stroke: #A80036; stroke-width: 1.5;" x1="709.5" x2="954.5" y1="332.3901" y2="332.3901"/><!--MD5=[d76a049bce74d361724cf5312e060c5c]
class @125--><rect fill="#FEFECE" filter="url(#f133vno0eys955)" height="92.8901" id="@125" style="stroke: #A80036; stroke-width: 1.5;" width="249" x="707.5" y="472"/><ellipse cx="722.5" cy="488" fill="#FF7700" rx="11" ry="11" style="stroke: #A80036; stroke-width: 1.0;"/><path d="M723.3438,494.75 L720.8906,494.75 L720.8906,484.5 L717.75,484.5 L717.75,482.3594 L726.4844,482.3594 L726.4844,484.5 L723.3438,484.5 L723.3438,494.75 Z "/><text fill="#000000" font-family="sans-serif" font-size="12" lengthAdjust="spacingAndGlyphs" textLength="131" x="736.5" y="492.6534">::templatens::AbcTempl</text><rect fill="#FFFFFF" height="18.335" style="stroke: #000000; stroke-width: 1.0; stroke-dasharray: 2.0,2.0;" width="84" x="875.5" y="469"/><text fill="#000000" font-family="sans-serif" font-size="12" font-style="italic" lengthAdjust="spacingAndGlyphs" textLength="82" x="876.5" y="482.821">TTypeA, TTypeB</text><line style="stroke: #A80036; stroke-width: 1.5;" x1="708.5" x2="955.5" y1="504" y2="504"/><ellipse cx="718.5" cy="515" fill="none" rx="3" ry="3" style="stroke: #038048; stroke-width: 1.0;"/><text fill="#000000" font-family="sans-serif" font-size="11" lengthAdjust="spacingAndGlyphs" textLength="70" x="727.5" y="519.7444">TTypeA field1</text><ellipse cx="718.5" cy="529.9634" fill="none" rx="3" ry="3" style="stroke: #038048; stroke-width: 1.0;"/><text fill="#000000" font-family="sans-serif" font-size="11" lengthAdjust="spacingAndGlyphs" textLength="56" x="727.5" y="534.7078">bool field2</text><ellipse cx="718.5" cy="544.9268" fill="none" rx="3" ry="3" style="stroke: #038048; stroke-width: 1.0;"/><text fill="#000000" font-family="sans-serif" font-size="11" lengthAdjust="spacingAndGlyphs" textLength="70" x="727.5" y="549.6711">TTypeB field3</text><line style="stroke: #A80036; stroke-width: 1.5;" x1="708.5" x2="955.5" y1="556.8901" y2="556.8901"/><!--MD5=[b3cd8b5d4b96f22ae07f4f432544b688]
class @187--><rect fill="#FEFECE" filter="url(#f133vno0eys955)" height="92.8901" id="@187" style="stroke: #A80036; stroke-width: 1.5;" width="160" x="1346" y="15.5"/><ellipse cx="1372.7" cy="31.5" fill="#ADD1B2" rx="11" ry="11" style="stroke: #A80036; stroke-width: 1.0;"/><path d="M1375.6688,37.1406 Q1375.0906,37.4375 1374.45,37.5859 Q1373.8094,37.7344 1373.1063,37.7344 Q1370.6063,37.7344 1369.2859,36.0859 Q1367.9656,34.4375 1367.9656,31.3125 Q1367.9656,28.1875 1369.2859,26.5313 Q1370.6063,24.875 1373.1063,24.875 Q1373.8094,24.875 1374.4578,25.0313 Q1375.1063,25.1875 1375.6688,25.4844 L1375.6688,28.2031 Q1375.0438,27.625 1374.45,27.3516 Q1373.8563,27.0781 1373.2313,27.0781 Q1371.8875,27.0781 1371.2,28.1484 Q1370.5125,29.2188 1370.5125,31.3125 Q1370.5125,33.4063 1371.2,34.4766 Q1371.8875,35.5469 1373.2313,35.5469 Q1373.8563,35.5469 1374.45,35.2734 Q1375.0438,35 1375.6688,34.4219 L1375.6688,37.1406 Z "/><text fill="#000000" font-family="sans-serif" font-size="12" lengthAdjust="spacingAndGlyphs" textLength="102" x="1389.3" y="36.1534">::diamondns::Cbc1</text><line style="stroke: #A80036; stroke-width: 1.5;" x1="1347" x2="1505" y1="47.5" y2="47.5"/><ellipse cx="1357" cy="58.5" fill="none" rx="3" ry="3" style="stroke: #038048; stroke-width: 1.0;"/><text fill="#000000" font-family="sans-serif" font-size="11" lengthAdjust="spacingAndGlyphs" textLength="54" x="1366" y="63.2444">int fieldD1</text><ellipse cx="1357" cy="73.4634" fill="none" rx="3" ry="3" style="stroke: #038048; stroke-width: 1.0;"/><text fill="#000000" font-family="sans-serif" font-size="11" lengthAdjust="spacingAndGlyphs" textLength="81" x="1366" y="78.2078">int8_t fieldD2 :5</text><ellipse cx="1357" cy="88.4268" fill="none" rx="3" ry="3" style="stroke: #038048; stroke-width: 1.0;"/><text fill="#000000" font-family="sans-serif" font-size="11" lengthAdjust="spacingAndGlyphs" textLength="134" x="1366" y="93.1711">mutable uint8_t fieldD3 :5</text><line style="stroke: #A80036; stroke-width: 1.5;" x1="1347" x2="1505" y1="100.3901" y2="100.3901"/><!--MD5=[c3c76748c20a8b46be8900fa85bd90a7]
class @121--><rect fill="#FEFECE" filter="url(#f133vno0eys955)" height="92.8901" id="@121" style="stroke: #A80036; stroke-width: 1.5;" width="211" x="990.5" y="247.5"/><ellipse cx="1005.5" cy="263.5" fill="#ADD1B2" rx="11" ry="11" style="stroke: #A80036; stroke-width: 1.0;"/><path d="M1008.4688,269.1406 Q1007.8906,269.4375 1007.25,269.5859 Q1006.6094,269.7344 1005.9063,269.7344 Q1003.4063,269.7344 1002.0859,268.0859 Q1000.7656,266.4375 1000.7656,263.3125 Q1000.7656,260.1875 1002.0859,258.5313 Q1003.4063,256.875 1005.9063,256.875 Q1006.6094,256.875 1007.2578,257.0313 Q1007.9063,257.1875 1008.4688,257.4844 L1008.4688,260.2031 Q1007.8438,259.625 1007.25,259.3516 Q1006.6563,259.0781 1006.0313,259.0781 Q1004.6875,259.0781 1004,260.1484 Q1003.3125,261.2188 1003.3125,263.3125 Q1003.3125,265.4063 1004,266.4766 Q1004.6875,267.5469 1006.0313,267.5469 Q1006.6563,267.5469 1007.25,267.2734 Q1007.8438,267 1008.4688,266.4219 L1008.4688,269.1406 Z "/><text fill="#000000" font-family="sans-serif" font-size="12" lengthAdjust="spacingAndGlyphs" textLength="131" x="1019.5" y="268.1534">::templatens::AbcTempl</text><rect fill="#FFFFFF" height="18.335" style="stroke: #000000; stroke-width: 1.0; stroke-dasharray: 2.0,2.0;" width="46" x="1158.5" y="244.5"/><text fill="#000000" font-family="sans-serif" font-size="12" font-style="italic" lengthAdjust="spacingAndGlyphs" textLength="44" x="1159.5" y="258.321">int, bool</text><line style="stroke: #A80036; stroke-width: 1.5;" x1="991.5" x2="1200.5" y1="279.5" y2="279.5"/><ellipse cx="1001.5" cy="290.5" fill="none" rx="3" ry="3" style="stroke: #038048; stroke-width: 1.0;"/><text fill="#000000" font-family="sans-serif" font-size="11" lengthAdjust="spacingAndGlyphs" textLength="46" x="1010.5" y="295.2444">int field1</text><ellipse cx="1001.5" cy="305.4634" fill="none" rx="3" ry="3" style="stroke: #038048; stroke-width: 1.0;"/><text fill="#000000" font-family="sans-serif" font-size="11" lengthAdjust="spacingAndGlyphs" textLength="56" x="1010.5" y="310.2078">bool field2</text><ellipse cx="1001.5" cy="320.4268" fill="none" rx="3" ry="3" style="stroke: #038048; stroke-width: 1.0;"/><text fill="#000000" font-family="sans-serif" font-size="11" lengthAdjust="spacingAndGlyphs" textLength="56" x="1010.5" y="325.1711">bool field3</text><line style="stroke: #A80036; stroke-width: 1.5;" x1="991.5" x2="1200.5" y1="332.3901" y2="332.3901"/><!--MD5=[7ca645b83f1bac60c2495067742d9cf2]
class @231--><rect fill="#FEFECE" filter="url(#f133vno0eys955)" height="77.9268" id="@231" style="stroke: #A80036; stroke-width: 1.5;" width="172" x="1237" y="255"/><ellipse cx="1269.1" cy="271" fill="#ADD1B2" rx="11" ry="11" style="stroke: #A80036; stroke-width: 1.0;"/><path d="M1272.0688,276.6406 Q1271.4906,276.9375 1270.85,277.0859 Q1270.2094,277.2344 1269.5063,277.2344 Q1267.0063,277.2344 1265.6859,275.5859 Q1264.3656,273.9375 1264.3656,270.8125 Q1264.3656,267.6875 1265.6859,266.0313 Q1267.0063,264.375 1269.5063,264.375 Q1270.2094,264.375 1270.8578,264.5313 Q1271.5063,264.6875 1272.0688,264.9844 L1272.0688,267.7031 Q1271.4438,267.125 1270.85,266.8516 Q1270.2563,266.5781 1269.6313,266.5781 Q1268.2875,266.5781 1267.6,267.6484 Q1266.9125,268.7188 1266.9125,270.8125 Q1266.9125,272.9063 1267.6,273.9766 Q1268.2875,275.0469 1269.6313,275.0469 Q1270.2563,275.0469 1270.85,274.7734 Q1271.4438,274.5 1272.0688,273.9219 L1272.0688,276.6406 Z "/><text fill="#000000" font-family="sans-serif" font-size="12" lengthAdjust="spacingAndGlyphs" textLength="102" x="1286.9" y="275.6534">::diamondns::Bbc2</text><line style="stroke: #A80036; stroke-width: 1.5;" x1="1238" x2="1408" y1="287" y2="287"/><ellipse cx="1248" cy="298" fill="none" rx="3" ry="3" style="stroke: #038048; stroke-width: 1.0;"/><text fill="#000000" font-family="sans-serif" font-size="11" lengthAdjust="spacingAndGlyphs" textLength="146" x="1257" y="302.7444">__vtbl_ptr_type * _vptr.Bbc2</text><ellipse cx="1248" cy="312.9634" fill="none" rx="3" ry="3" style="stroke: #038048; stroke-width: 1.0;"/><text fill="#000000" font-family="sans-serif" font-size="11" lengthAdjust="spacingAndGlyphs" textLength="56" x="1257" y="317.7078">char fieldC</text><line style="stroke: #A80036; stroke-width: 1.5;" x1="1238" x2="1408" y1="324.9268" y2="324.9268"/><!--MD5=[3576e74fa7969a6040eea162ded17fbf]
class @230--><rect fill="#FEFECE" filter="url(#f133vno0eys955)" height="77.9268" id="@230" style="stroke: #A80036; stroke-width: 1.5;" width="172" x="1444" y="255"/><ellipse cx="1476.1" cy="271" fill="#ADD1B2" rx="11" ry="11" style="stroke: #A80036; stroke-width: 1.0;"/><path d="M1479.0688,276.6406 Q1478.4906,276.9375 1477.85,277.0859 Q1477.2094,277.2344 1476.5063,277.2344 Q1474.0063,277.2344 1472.6859,275.5859 Q1471.3656,273.9375 1471.3656,270.8125 Q1471.3656,267.6875 1472.6859,266.0313 Q1474.0063,264.375 1476.5063,264.375 Q1477.2094,264.375 1477.8578,264.5313 Q1478.5063,264.6875 1479.0688,264.9844 L1479.0688,267.7031 Q1478.4438,267.125 1477.85,266.8516 Q1477.2563,266.5781 1476.6313,266.5781 Q1475.2875,266.5781 1474.6,267.6484 Q1473.9125,268.7188 1473.9125,270.8125 Q1473.9125,272.9063 1474.6,273.9766 Q1475.2875,275.0469 1476.6313,275.0469 Q1477.2563,275.0469 1477.85,274.7734 Q1478.4438,274.5 1479.0688,273.9219 L1479.0688,276.6406 Z "/><text fill="#000000" font-family="sans-serif" font-size="12" lengthAdjust="spacingAndGlyphs" textLength="102" x="1493.9" y="275.6534">::diamondns::Bbc1</text><line style="stroke: #A80036; stroke-width: 1.5;" x1="1445" x2="1615" y1="287" y2="287"/><ellipse cx="1455" cy="298" fill="none" rx="3" ry="3" style="stroke: #038048; stroke-width: 1.0;"/><text fill="#000000" font-family="sans-serif" font-size="11" lengthAdjust="spacingAndGlyphs" textLength="146" x="1464" y="302.7444">__vtbl_ptr_type * _vptr.Bbc1</text><ellipse cx="1455" cy="312.9634" fill="none" rx="3" ry="3" style="stroke: #038048; stroke-width: 1.0;"/><text fill="#000000" font-family="sans-serif" font-size="11" lengthAdjust="spacingAndGlyphs" textLength="57" x="1464" y="317.7078">bool fieldB</text><line style="stroke: #A80036; stroke-width: 1.5;" x1="1445" x2="1615" y1="324.9268" y2="324.9268"/><!--MD5=[0bd4e3273d1a212bf1ca21a50071d2fc]
class @272--><rect fill="#FEFECE" filter="url(#f133vno0eys955)" height="62.9634" id="@272" style="stroke: #A80036; stroke-width: 1.5;" width="134" x="1329" y="487"/><ellipse cx="1344" cy="503" fill="#ADD1B2" rx="11" ry="11" style="stroke: #A80036; stroke-width: 1.0;"/><path d="M1346.9688,508.6406 Q1346.3906,508.9375 1345.75,509.0859 Q1345.1094,509.2344 1344.4063,509.2344 Q1341.9063,509.2344 1340.5859,507.5859 Q1339.2656,505.9375 1339.2656,502.8125 Q1339.2656,499.6875 1340.5859,498.0313 Q1341.9063,496.375 1344.4063,496.375 Q1345.1094,496.375 1345.7578,496.5313 Q1346.4063,496.6875 1346.9688,496.9844 L1346.9688,499.7031 Q1346.3438,499.125 1345.75,498.8516 Q1345.1563,498.5781 1344.5313,498.5781 Q1343.1875,498.5781 1342.5,499.6484 Q1341.8125,500.7188 1341.8125,502.8125 Q1341.8125,504.9063 1342.5,505.9766 Q1343.1875,507.0469 1344.5313,507.0469 Q1345.1563,507.0469 1345.75,506.7734 Q1346.3438,506.5 1346.9688,505.9219 L1346.9688,508.6406 Z "/><text fill="#000000" font-family="sans-serif" font-size="12" lengthAdjust="spacingAndGlyphs" textLength="102" x="1358" y="507.6534">::diamondns::Abc1</text><line style="stroke: #A80036; stroke-width: 1.5;" x1="1330" x2="1462" y1="519" y2="519"/><ellipse cx="1340" cy="530" fill="none" rx="3" ry="3" style="stroke: #038048; stroke-width: 1.0;"/><text fill="#000000" font-family="sans-serif" font-size="11" lengthAdjust="spacingAndGlyphs" textLength="47" x="1349" y="534.7444">int fieldA</text><line style="stroke: #A80036; stroke-width: 1.5;" x1="1330" x2="1462" y1="541.9634" y2="541.9634"/><!--MD5=[a306a1d2705b598b9fc0e56c42e3d0aa]
link @57 to @74--><path d="M310,116.06 C310,133.66 310,154.02 310,174.53 " fill="none" id="@57-&gt;@74" style="stroke: #A80036; stroke-width: 1.0;"/><polygon fill="none" points="317,174.57,310,194.57,303,174.57,317,174.57" style="stroke: #A80036; stroke-width: 1.0;"/><text fill="#000000" font-family="sans-serif" font-size="13" lengthAdjust="spacingAndGlyphs" textLength="24" x="311" y="160.8812">pub</text><!--MD5=[c003345a24a98008af98468473f7028f]
link @71 to @89--><path d="M664.06,93.54 C648.37,127.89 622.46,184.65 602.28,228.86 " fill="none" id="@71-&gt;@89" style="stroke: #A80036; stroke-width: 1.0;"/><polygon fill="none" points="608.56,231.95,593.89,247.24,595.83,226.14,608.56,231.95" style="stroke: #A80036; stroke-width: 1.0;"/><text fill="#000000" font-family="sans-serif" font-size="13" lengthAdjust="spacingAndGlyphs" textLength="24" x="639" y="160.8812">pub</text><!--MD5=[267f8c71ce03dbcc65081d4e2ebb795a]
link @71 to @90--><path d="M698.45,93.54 C721.71,128.28 760.31,185.93 790.04,230.34 " fill="none" id="@71-&gt;@90" style="stroke: #A80036; stroke-width: 1.0;"/><polygon fill="none" points="796.05,226.73,801.36,247.24,784.42,234.52,796.05,226.73" style="stroke: #A80036; stroke-width: 1.0;"/><text fill="#000000" font-family="sans-serif" font-size="13" lengthAdjust="spacingAndGlyphs" textLength="24" x="747" y="160.8812">pub</text><!--MD5=[f83aec901231eea5ef1ab434616463ea]
link @94 to @121--><path d="M1096,93.54 C1096,127.43 1096,183.13 1096,227.07 " fill="none" id="@94-&gt;@121" style="stroke: #A80036; stroke-width: 1.0;"/><polygon fill="none" points="1103,227.24,1096,247.24,1089,227.24,1103,227.24" style="stroke: #A80036; stroke-width: 1.0;"/><text fill="#000000" font-family="sans-serif" font-size="13" lengthAdjust="spacingAndGlyphs" textLength="24" x="1097" y="160.8812">pub</text><!--MD5=[77c16570416b5b61a7790116f234df7c]
link @89 to @125--><path d="M626.04,340.56 C669.42,377.83 730.65,430.43 775.06,468.58 " fill="none" id="@89-&gt;@125" style="stroke: #A80036; stroke-width: 1.0; stroke-dasharray: 7.0,7.0;"/><polygon fill="#A80036" points="779.03,472,774.7999,463.1059,775.2337,468.746,769.5935,469.1799,779.03,472" style="stroke: #A80036; stroke-width: 1.0;"/><text fill="#000000" font-family="sans-serif" font-size="13" lengthAdjust="spacingAndGlyphs" textLength="30" x="742" y="437.8812">spec.</text><!--MD5=[e061103e8afc887c8289853da4291a03]
link @90 to @125--><path d="M832,340.56 C832,377.31 832,428.95 832,466.96 " fill="none" id="@90-&gt;@125" style="stroke: #A80036; stroke-width: 1.0; stroke-dasharray: 7.0,7.0;"/><polygon fill="#A80036" points="832,472,836,463,832,467,828,463,832,472" style="stroke: #A80036; stroke-width: 1.0;"/><text fill="#000000" font-family="sans-serif" font-size="13" lengthAdjust="spacingAndGlyphs" textLength="30" x="833" y="437.8812">spec.</text><!--MD5=[36fcc2923c1327a07abd3e3d243d8f1a]
link @187 to @230--><path d="M1446.67,108.72 C1463.28,145.45 1486.69,197.21 1504.47,236.53 " fill="none" id="@187-&gt;@230" style="stroke: #A80036; stroke-width: 1.0;"/><polygon fill="none" points="1510.95,233.88,1512.81,254.99,1498.19,239.65,1510.95,233.88" style="stroke: #A80036; stroke-width: 1.0;"/><text fill="#000000" font-family="sans-serif" font-size="13" lengthAdjust="spacingAndGlyphs" textLength="24" x="1473" y="160.8812">pub</text><!--MD5=[f7e3dbff56c94ad1a1c537cb1408416f]
link @187 to @231--><path d="M1405.53,108.72 C1389.08,145.45 1365.9,197.21 1348.29,236.53 " fill="none" id="@187-&gt;@231" style="stroke: #A80036; stroke-width: 1.0;"/><polygon fill="none" points="1354.59,239.59,1340.02,254.99,1341.81,233.87,1354.59,239.59" style="stroke: #A80036; stroke-width: 1.0;"/><text fill="#000000" font-family="sans-serif" font-size="13" lengthAdjust="spacingAndGlyphs" textLength="24" x="1388" y="160.8812">pub</text><!--MD5=[1239791f5fc1015e5aed17ed1e22f24e]
link @121 to @125--><path d="M1041.94,340.56 C997.72,377.83 935.31,430.43 890.04,468.58 " fill="none" id="@121-&gt;@125" style="stroke: #A80036; stroke-width: 1.0; stroke-dasharray: 7.0,7.0;"/><polygon fill="#A80036" points="885.99,472,895.4438,469.2385,889.8064,468.7696,890.2752,463.1323,885.99,472" style="stroke: #A80036; stroke-width: 1.0;"/><text fill="#000000" font-family="sans-serif" font-size="13" lengthAdjust="spacingAndGlyphs" textLength="30" x="942" y="437.8812">spec.</text><!--MD5=[b81ff4f83a3a2d77cde0d0948b9c6cfb]
link @231 to @272--><path d="M1335.55,333.25 C1347.75,370.45 1366.36,427.15 1379.7,467.83 " fill="none" id="@231-&gt;@272" style="stroke: #A80036; stroke-width: 1.0;"/><polygon fill="none" points="1386.38,465.71,1385.96,486.9,1373.07,470.07,1386.38,465.71" style="stroke: #A80036; stroke-width: 1.0;"/><text fill="#000000" font-family="sans-serif" font-size="13" lengthAdjust="spacingAndGlyphs" textLength="47" x="1372" y="437.8812">virt pub</text><!--MD5=[05e600b724de09823c7f375ceb266c89]
link @230 to @272--><path d="M1506.96,333.25 C1484.2,371.05 1449.32,428.97 1424.75,469.76 " fill="none" id="@230-&gt;@272" style="stroke: #A80036; stroke-width: 1.0;"/><polygon fill="none" points="1430.75,473.37,1414.43,486.9,1418.75,466.15,1430.75,473.37" style="stroke: #A80036; stroke-width: 1.0;"/><text fill="#000000" font-family="sans-serif" font-size="13" lengthAdjust="spacingAndGlyphs" textLength="47" x="1452" y="437.8812">virt pub</text><!--MD5=[21b5e4634b32496f68cfb0eb23597681]
@startuml

class "::[anonymous]::AnonNSItem" as @16 {
    {field} + int data
}
class "::membersns::SubClass" as @57 {
    {field} {static} # int const staticField
    {method} +virt int * virtFn() 
    {method} #virt void virtPureFn() 
    {method} +virt  ~SubClass() =default
}
class "::templatens::TemplInheritDouble" as @71 {
    {field} + bool dataA
}
class "::membersns::BaseClass" as @74 {
    {field} + __vtbl_ptr_type * _vptr.BaseClass
    {field} + bool publicFieldA
    {field} + bool protectedFieldB
    {field} - int privateFieldC
    {method} +  BaseClass() =default
    {method} +virt  ~BaseClass() =default
    {method} + int regularFn(int paramA, bool /*anonym*/) 
    {method} +virt int * virtFn() 
    {method} {static} + void staticFn(double const paramA) 
    {method} {abstract} #virt void virtPureFn() =0
}
class "::templatens::TemplInherit" as @94 {
    {field} + int8_t fieldA :3
}
class "::templatens::AbcTempl<int, int>" as @89 {
    {field} + int field1
    {field} + bool field2
    {field} + int field3
}
class "::templatens::AbcTempl<double, double>" as @90 {
    {field} + double field1
    {field} + bool field2
    {field} + double field3
}
class "::templatens::AbcTempl<TTypeA, TTypeB>" as @125 <<T,#FF7700>> {
    {field} + TTypeA field1
    {field} + bool field2
    {field} + TTypeB field3
}
class "::diamondns::Cbc1" as @187 {
    {field} + int fieldD1
    {field} + int8_t fieldD2 :5
    {field} + mutable uint8_t fieldD3 :5
}
class "::templatens::AbcTempl<int, bool>" as @121 {
    {field} + int field1
    {field} + bool field2
    {field} + bool field3
}
class "::diamondns::Bbc2" as @231 {
    {field} + __vtbl_ptr_type * _vptr.Bbc2
    {field} + char fieldC
}
class "::diamondns::Bbc1" as @230 {
    {field} + __vtbl_ptr_type * _vptr.Bbc1
    {field} + bool fieldB
}
class "::diamondns::Abc1" as @272 {
    {field} + int fieldA
}

"@57" - -|> "@74": "pub"
"@71" - -|> "@89": "pub"
"@71" - -|> "@90": "pub"
"@94" - -|> "@121": "pub"
"@89" ..> "@125": spec.
"@90" ..> "@125": spec.
"@187" - -|> "@230": "pub"
"@187" - -|> "@231": "pub"
"@121" ..> "@125": spec.
"@231" - -|> "@272": "virt pub"
"@230" - -|> "@272": "virt pub"

@enduml

PlantUML version 1.2020.02(Sun Mar 01 11:22:07 CET 2020)
(GPL source distribution)
Java Runtime: Java(TM) SE Runtime Environment
JVM: Java HotSpot(TM) 64-Bit Server VM
Java Version: 1.8.0_212-b10
Operating System: Linux
Default Encoding: UTF-8
Language: en
Country: US
--></g></svg>