<?xml version="1.0" encoding="UTF-8" standalone="no"?><svg xmlns="http://www.w3.org/2000/svg" xmlns:xlink="http://www.w3.org/1999/xlink" contentScriptType="application/ecmascript" contentStyleType="text/css" height="575px" preserveAspectRatio="none" style="width:1450px;height:575px;" version="1.1" viewBox="0 0 1450 575" width="1450px" zoomAndPan="magnify"><defs><filter height="300%" id="fzhedijf8l1jd" width="300%" x="-1" y="-1"><feGaussianBlur result="blurOut" stdDeviation="2.0"/><feColorMatrix in="blurOut" result="blurOut2" type="matrix" values="0 0 0 0 0 0 0 0 0 0 0 0 0 0 0 0 0 0 .4 0"/><feOffset dx="4.0" dy="4.0" in="blurOut2" result="blurOut3"/><feBlend in="SourceGraphic" in2="blurOut3" mode="normal"/></filter></defs><g><!--MD5=[b7c06f5feb3564724b68aabd036140db]
class item_0--><rect fill="#FEFECE" filter="url(#fzhedijf8l1jd)" height="107.8535" id="item_0" style="stroke: #A80036; stroke-width: 1.5;" width="162" x="52.5" y="8"/><ellipse cx="67.5" cy="24" fill="#ADD1B2" rx="11" ry="11" style="stroke: #A80036; stroke-width: 1.0;"/><path d="M70.4688,29.6406 Q69.8906,29.9375 69.25,30.0859 Q68.6094,30.2344 67.9063,30.2344 Q65.4063,30.2344 64.0859,28.5859 Q62.7656,26.9375 62.7656,23.8125 Q62.7656,20.6875 64.0859,19.0313 Q65.4063,17.375 67.9063,17.375 Q68.6094,17.375 69.2578,17.5313 Q69.9063,17.6875 70.4688,17.9844 L70.4688,20.7031 Q69.8438,20.125 69.25,19.8516 Q68.6563,19.5781 68.0313,19.5781 Q66.6875,19.5781 66,20.6484 Q65.3125,21.7188 65.3125,23.8125 Q65.3125,25.9063 66,26.9766 Q66.6875,28.0469 68.0313,28.0469 Q68.6563,28.0469 69.25,27.7734 Q69.8438,27.5 70.4688,26.9219 L70.4688,29.6406 Z "/><text fill="#000000" font-family="sans-serif" font-size="12" lengthAdjust="spacingAndGlyphs" textLength="130" x="81.5" y="28.6534">::membersns::SubClass</text><line style="stroke: #A80036; stroke-width: 1.5;" x1="53.5" x2="213.5" y1="40" y2="40"/><polygon fill="none" points="63.5,46,67.5,50,63.5,54,59.5,50" style="stroke: #B38D22; stroke-width: 1.0;"/><text fill="#000000" font-family="sans-serif" font-size="11" lengthAdjust="spacingAndGlyphs" text-decoration="underline" textLength="100" x="72.5" y="55.7444">const int staticField</text><line style="stroke: #A80036; stroke-width: 1.5;" x1="53.5" x2="213.5" y1="62.9634" y2="62.9634"/><ellipse cx="63.5" cy="73.9634" fill="#84BE84" rx="3" ry="3" style="stroke: #038048; stroke-width: 1.0;"/><text fill="#000000" font-family="sans-serif" font-size="11" lengthAdjust="spacingAndGlyphs" textLength="84" x="72.5" y="78.7078">virt int * virtFn()</text><polygon fill="#FFFF44" points="63.5,83.9268,67.5,87.9268,63.5,91.9268,59.5,87.9268" style="stroke: #B38D22; stroke-width: 1.0;"/><text fill="#000000" font-family="sans-serif" font-size="11" lengthAdjust="spacingAndGlyphs" textLength="109" x="72.5" y="93.6711">virt void virtPureFn()</text><ellipse cx="63.5" cy="103.8901" fill="#84BE84" rx="3" ry="3" style="stroke: #038048; stroke-width: 1.0;"/><text fill="#000000" font-family="sans-serif" font-size="11" lengthAdjust="spacingAndGlyphs" textLength="128" x="72.5" y="108.6345">virt  ~SubClass() =default</text><!--MD5=[67abc0ac09d4f9129e2e31b058b9b756]
class item_1--><rect fill="#FEFECE" filter="url(#fzhedijf8l1jd)" height="197.6338" id="item_1" style="stroke: #A80036; stroke-width: 1.5;" width="255" x="6" y="195"/><ellipse cx="60.75" cy="211" fill="#ADD1B2" rx="11" ry="11" style="stroke: #A80036; stroke-width: 1.0;"/><path d="M63.7188,216.6406 Q63.1406,216.9375 62.5,217.0859 Q61.8594,217.2344 61.1563,217.2344 Q58.6563,217.2344 57.3359,215.5859 Q56.0156,213.9375 56.0156,210.8125 Q56.0156,207.6875 57.3359,206.0313 Q58.6563,204.375 61.1563,204.375 Q61.8594,204.375 62.5078,204.5313 Q63.1563,204.6875 63.7188,204.9844 L63.7188,207.7031 Q63.0938,207.125 62.5,206.8516 Q61.9063,206.5781 61.2813,206.5781 Q59.9375,206.5781 59.25,207.6484 Q58.5625,208.7188 58.5625,210.8125 Q58.5625,212.9063 59.25,213.9766 Q59.9375,215.0469 61.2813,215.0469 Q61.9063,215.0469 62.5,214.7734 Q63.0938,214.5 63.7188,213.9219 L63.7188,216.6406 Z "/><text fill="#000000" font-family="sans-serif" font-size="12" lengthAdjust="spacingAndGlyphs" textLength="137" x="81.25" y="215.6534">::membersns::BaseClass</text><line style="stroke: #A80036; stroke-width: 1.5;" x1="7" x2="260" y1="227" y2="227"/><ellipse cx="17" cy="238" fill="none" rx="3" ry="3" style="stroke: #038048; stroke-width: 1.0;"/><text fill="#000000" font-family="sans-serif" font-size="11" lengthAdjust="spacingAndGlyphs" textLength="171" x="26" y="242.7444">__vtbl_ptr_type * _vptr.BaseClass</text><ellipse cx="17" cy="252.9634" fill="none" rx="3" ry="3" style="stroke: #038048; stroke-width: 1.0;"/><text fill="#000000" font-family="sans-serif" font-size="11" lengthAdjust="spacingAndGlyphs" textLength="91" x="26" y="257.7078">bool publicFieldA</text><ellipse cx="17" cy="267.9268" fill="none" rx="3" ry="3" style="stroke: #038048; stroke-width: 1.0;"/><text fill="#000000" font-family="sans-serif" font-size="11" lengthAdjust="spacingAndGlyphs" textLength="110" x="26" y="272.6711">bool protectedFieldB</text><rect fill="none" height="6" style="stroke: #C82930; stroke-width: 1.0;" width="6" x="14" y="279.8901"/><text fill="#000000" font-family="sans-serif" font-size="11" lengthAdjust="spacingAndGlyphs" textLength="86" x="26" y="287.6345">int privateFieldC</text><line style="stroke: #A80036; stroke-width: 1.5;" x1="7" x2="260" y1="294.8535" y2="294.8535"/><ellipse cx="17" cy="305.8535" fill="#84BE84" rx="3" ry="3" style="stroke: #038048; stroke-width: 1.0;"/><text fill="#000000" font-family="sans-serif" font-size="11" lengthAdjust="spacingAndGlyphs" textLength="102" x="26" y="310.5979">BaseClass() =default</text><ellipse cx="17" cy="320.8169" fill="#84BE84" rx="3" ry="3" style="stroke: #038048; stroke-width: 1.0;"/><text fill="#000000" font-family="sans-serif" font-size="11" lengthAdjust="spacingAndGlyphs" textLength="132" x="26" y="325.5613">virt  ~BaseClass() =default</text><ellipse cx="17" cy="335.7803" fill="#84BE84" rx="3" ry="3" style="stroke: #038048; stroke-width: 1.0;"/><text fill="#000000" font-family="sans-serif" font-size="11" lengthAdjust="spacingAndGlyphs" textLength="229" x="26" y="340.5247">int regularFn(int paramA, bool /*anonym*/)</text><ellipse cx="17" cy="350.7437" fill="#84BE84" rx="3" ry="3" style="stroke: #038048; stroke-width: 1.0;"/><text fill="#000000" font-family="sans-serif" font-size="11" lengthAdjust="spacingAndGlyphs" textLength="84" x="26" y="355.488">virt int * virtFn()</text><ellipse cx="17" cy="365.707" fill="#84BE84" rx="3" ry="3" style="stroke: #038048; stroke-width: 1.0;"/><text fill="#000000" font-family="sans-serif" font-size="11" lengthAdjust="spacingAndGlyphs" text-decoration="underline" textLength="184" x="26" y="370.4514">void staticFn(double const paramA)</text><polygon fill="#FFFF44" points="17,375.6704,21,379.6704,17,383.6704,13,379.6704" style="stroke: #B38D22; stroke-width: 1.0;"/><text fill="#000000" font-family="sans-serif" font-size="11" font-style="italic" lengthAdjust="spacingAndGlyphs" textLength="111" x="26" y="385.4148">virt void virtPureFn() =0</text><!--MD5=[4f73b7f3aa0ed1a38b0cc636090c630f]
class item_2--><rect fill="#FEFECE" filter="url(#fzhedijf8l1jd)" height="62.9634" id="item_2" style="stroke: #A80036; stroke-width: 1.5;" width="219" x="415" y="30.5"/><ellipse cx="430" cy="46.5" fill="#ADD1B2" rx="11" ry="11" style="stroke: #A80036; stroke-width: 1.0;"/><path d="M432.9688,52.1406 Q432.3906,52.4375 431.75,52.5859 Q431.1094,52.7344 430.4063,52.7344 Q427.9063,52.7344 426.5859,51.0859 Q425.2656,49.4375 425.2656,46.3125 Q425.2656,43.1875 426.5859,41.5313 Q427.9063,39.875 430.4063,39.875 Q431.1094,39.875 431.7578,40.0313 Q432.4063,40.1875 432.9688,40.4844 L432.9688,43.2031 Q432.3438,42.625 431.75,42.3516 Q431.1563,42.0781 430.5313,42.0781 Q429.1875,42.0781 428.5,43.1484 Q427.8125,44.2188 427.8125,46.3125 Q427.8125,48.4063 428.5,49.4766 Q429.1875,50.5469 430.5313,50.5469 Q431.1563,50.5469 431.75,50.2734 Q432.3438,50 432.9688,49.4219 L432.9688,52.1406 Z "/><text fill="#000000" font-family="sans-serif" font-size="12" lengthAdjust="spacingAndGlyphs" textLength="187" x="444" y="51.1534">::templatens::TemplInheritDouble</text><line style="stroke: #A80036; stroke-width: 1.5;" x1="416" x2="633" y1="62.5" y2="62.5"/><ellipse cx="426" cy="73.5" fill="none" rx="3" ry="3" style="stroke: #038048; stroke-width: 1.0;"/><text fill="#000000" font-family="sans-serif" font-size="11" lengthAdjust="spacingAndGlyphs" textLength="57" x="435" y="78.2444">bool dataA</text><line style="stroke: #A80036; stroke-width: 1.5;" x1="416" x2="633" y1="85.4634" y2="85.4634"/><!--MD5=[553a5253e21cbce75d4632c410a198f3]
class item_3--><rect fill="#FEFECE" filter="url(#fzhedijf8l1jd)" height="62.9634" id="item_3" style="stroke: #A80036; stroke-width: 1.5;" width="179" x="830" y="30.5"/><ellipse cx="845" cy="46.5" fill="#ADD1B2" rx="11" ry="11" style="stroke: #A80036; stroke-width: 1.0;"/><path d="M847.9688,52.1406 Q847.3906,52.4375 846.75,52.5859 Q846.1094,52.7344 845.4063,52.7344 Q842.9063,52.7344 841.5859,51.0859 Q840.2656,49.4375 840.2656,46.3125 Q840.2656,43.1875 841.5859,41.5313 Q842.9063,39.875 845.4063,39.875 Q846.1094,39.875 846.7578,40.0313 Q847.4063,40.1875 847.9688,40.4844 L847.9688,43.2031 Q847.3438,42.625 846.75,42.3516 Q846.1563,42.0781 845.5313,42.0781 Q844.1875,42.0781 843.5,43.1484 Q842.8125,44.2188 842.8125,46.3125 Q842.8125,48.4063 843.5,49.4766 Q844.1875,50.5469 845.5313,50.5469 Q846.1563,50.5469 846.75,50.2734 Q847.3438,50 847.9688,49.4219 L847.9688,52.1406 Z "/><text fill="#000000" font-family="sans-serif" font-size="12" lengthAdjust="spacingAndGlyphs" textLength="147" x="859" y="51.1534">::templatens::TemplInherit</text><line style="stroke: #A80036; stroke-width: 1.5;" x1="831" x2="1008" y1="62.5" y2="62.5"/><ellipse cx="841" cy="73.5" fill="none" rx="3" ry="3" style="stroke: #038048; stroke-width: 1.0;"/><text fill="#000000" font-family="sans-serif" font-size="11" lengthAdjust="spacingAndGlyphs" textLength="60" x="850" y="78.2444">??? fieldA :3</text><line style="stroke: #A80036; stroke-width: 1.5;" x1="831" x2="1008" y1="85.4634" y2="85.4634"/><!--MD5=[f65a8c8d5669a1f88987da8496579a95]
class item_4--><rect fill="#FEFECE" filter="url(#fzhedijf8l1jd)" height="92.8901" id="item_4" style="stroke: #A80036; stroke-width: 1.5;" width="249" x="554" y="472"/><ellipse cx="569" cy="488" fill="#FF7700" rx="11" ry="11" style="stroke: #A80036; stroke-width: 1.0;"/><path d="M569.8438,494.75 L567.3906,494.75 L567.3906,484.5 L564.25,484.5 L564.25,482.3594 L572.9844,482.3594 L572.9844,484.5 L569.8438,484.5 L569.8438,494.75 Z "/><text fill="#000000" font-family="sans-serif" font-size="12" lengthAdjust="spacingAndGlyphs" textLength="131" x="583" y="492.6534">::templatens::AbcTempl</text><rect fill="#FFFFFF" height="18.335" style="stroke: #000000; stroke-width: 1.0; stroke-dasharray: 2.0,2.0;" width="84" x="722" y="469"/><text fill="#000000" font-family="sans-serif" font-size="12" font-style="italic" lengthAdjust="spacingAndGlyphs" textLength="82" x="723" y="482.821">TTypeA, TTypeB</text><line style="stroke: #A80036; stroke-width: 1.5;" x1="555" x2="802" y1="504" y2="504"/><ellipse cx="565" cy="515" fill="none" rx="3" ry="3" style="stroke: #038048; stroke-width: 1.0;"/><text fill="#000000" font-family="sans-serif" font-size="11" lengthAdjust="spacingAndGlyphs" textLength="70" x="574" y="519.7444">TTypeA field1</text><ellipse cx="565" cy="529.9634" fill="none" rx="3" ry="3" style="stroke: #038048; stroke-width: 1.0;"/><text fill="#000000" font-family="sans-serif" font-size="11" lengthAdjust="spacingAndGlyphs" textLength="56" x="574" y="534.7078">bool field2</text><ellipse cx="565" cy="544.9268" fill="none" rx="3" ry="3" style="stroke: #038048; stroke-width: 1.0;"/><text fill="#000000" font-family="sans-serif" font-size="11" lengthAdjust="spacingAndGlyphs" textLength="70" x="574" y="549.6711">TTypeB field3</text><line style="stroke: #A80036; stroke-width: 1.5;" x1="555" x2="802" y1="556.8901" y2="556.8901"/><!--MD5=[d9a90545485db8316589b1539e3ecd32]
class item_5--><rect fill="#FEFECE" filter="url(#fzhedijf8l1jd)" height="92.8901" id="item_5" style="stroke: #A80036; stroke-width: 1.5;" width="247" x="296" y="247.5"/><ellipse cx="311" cy="263.5" fill="#ADD1B2" rx="11" ry="11" style="stroke: #A80036; stroke-width: 1.0;"/><path d="M313.9688,269.1406 Q313.3906,269.4375 312.75,269.5859 Q312.1094,269.7344 311.4063,269.7344 Q308.9063,269.7344 307.5859,268.0859 Q306.2656,266.4375 306.2656,263.3125 Q306.2656,260.1875 307.5859,258.5313 Q308.9063,256.875 311.4063,256.875 Q312.1094,256.875 312.7578,257.0313 Q313.4063,257.1875 313.9688,257.4844 L313.9688,260.2031 Q313.3438,259.625 312.75,259.3516 Q312.1563,259.0781 311.5313,259.0781 Q310.1875,259.0781 309.5,260.1484 Q308.8125,261.2188 308.8125,263.3125 Q308.8125,265.4063 309.5,266.4766 Q310.1875,267.5469 311.5313,267.5469 Q312.1563,267.5469 312.75,267.2734 Q313.3438,267 313.9688,266.4219 L313.9688,269.1406 Z "/><text fill="#000000" font-family="sans-serif" font-size="12" lengthAdjust="spacingAndGlyphs" textLength="131" x="325" y="268.1534">::templatens::AbcTempl</text><rect fill="#FFFFFF" height="18.335" style="stroke: #000000; stroke-width: 1.0; stroke-dasharray: 2.0,2.0;" width="82" x="464" y="244.5"/><text fill="#000000" font-family="sans-serif" font-size="12" font-style="italic" lengthAdjust="spacingAndGlyphs" textLength="80" x="465" y="258.321">double, double</text><line style="stroke: #A80036; stroke-width: 1.5;" x1="297" x2="542" y1="279.5" y2="279.5"/><ellipse cx="307" cy="290.5" fill="none" rx="3" ry="3" style="stroke: #038048; stroke-width: 1.0;"/><text fill="#000000" font-family="sans-serif" font-size="11" lengthAdjust="spacingAndGlyphs" textLength="69" x="316" y="295.2444">double field1</text><ellipse cx="307" cy="305.4634" fill="none" rx="3" ry="3" style="stroke: #038048; stroke-width: 1.0;"/><text fill="#000000" font-family="sans-serif" font-size="11" lengthAdjust="spacingAndGlyphs" textLength="56" x="316" y="310.2078">bool field2</text><ellipse cx="307" cy="320.4268" fill="none" rx="3" ry="3" style="stroke: #038048; stroke-width: 1.0;"/><text fill="#000000" font-family="sans-serif" font-size="11" lengthAdjust="spacingAndGlyphs" textLength="69" x="316" y="325.1711">double field3</text><line style="stroke: #A80036; stroke-width: 1.5;" x1="297" x2="542" y1="332.3901" y2="332.3901"/><!--MD5=[42ba691002f9ca9dd78feb0aee94fae3]
class item_6--><rect fill="#FEFECE" filter="url(#fzhedijf8l1jd)" height="92.8901" id="item_6" style="stroke: #A80036; stroke-width: 1.5;" width="201" x="578" y="247.5"/><ellipse cx="593" cy="263.5" fill="#ADD1B2" rx="11" ry="11" style="stroke: #A80036; stroke-width: 1.0;"/><path d="M595.9688,269.1406 Q595.3906,269.4375 594.75,269.5859 Q594.1094,269.7344 593.4063,269.7344 Q590.9063,269.7344 589.5859,268.0859 Q588.2656,266.4375 588.2656,263.3125 Q588.2656,260.1875 589.5859,258.5313 Q590.9063,256.875 593.4063,256.875 Q594.1094,256.875 594.7578,257.0313 Q595.4063,257.1875 595.9688,257.4844 L595.9688,260.2031 Q595.3438,259.625 594.75,259.3516 Q594.1563,259.0781 593.5313,259.0781 Q592.1875,259.0781 591.5,260.1484 Q590.8125,261.2188 590.8125,263.3125 Q590.8125,265.4063 591.5,266.4766 Q592.1875,267.5469 593.5313,267.5469 Q594.1563,267.5469 594.75,267.2734 Q595.3438,267 595.9688,266.4219 L595.9688,269.1406 Z "/><text fill="#000000" font-family="sans-serif" font-size="12" lengthAdjust="spacingAndGlyphs" textLength="131" x="607" y="268.1534">::templatens::AbcTempl</text><rect fill="#FFFFFF" height="18.335" style="stroke: #000000; stroke-width: 1.0; stroke-dasharray: 2.0,2.0;" width="36" x="746" y="244.5"/><text fill="#000000" font-family="sans-serif" font-size="12" font-style="italic" lengthAdjust="spacingAndGlyphs" textLength="34" x="747" y="258.321">int, int</text><line style="stroke: #A80036; stroke-width: 1.5;" x1="579" x2="778" y1="279.5" y2="279.5"/><ellipse cx="589" cy="290.5" fill="none" rx="3" ry="3" style="stroke: #038048; stroke-width: 1.0;"/><text fill="#000000" font-family="sans-serif" font-size="11" lengthAdjust="spacingAndGlyphs" textLength="46" x="598" y="295.2444">int field1</text><ellipse cx="589" cy="305.4634" fill="none" rx="3" ry="3" style="stroke: #038048; stroke-width: 1.0;"/><text fill="#000000" font-family="sans-serif" font-size="11" lengthAdjust="spacingAndGlyphs" textLength="56" x="598" y="310.2078">bool field2</text><ellipse cx="589" cy="320.4268" fill="none" rx="3" ry="3" style="stroke: #038048; stroke-width: 1.0;"/><text fill="#000000" font-family="sans-serif" font-size="11" lengthAdjust="spacingAndGlyphs" textLength="46" x="598" y="325.1711">int field3</text><line style="stroke: #A80036; stroke-width: 1.5;" x1="579" x2="778" y1="332.3901" y2="332.3901"/><!--MD5=[a0c8154704175bb9968436355ac7ca11]
class item_7--><rect fill="#FEFECE" filter="url(#fzhedijf8l1jd)" height="92.8901" id="item_7" style="stroke: #A80036; stroke-width: 1.5;" width="211" x="814" y="247.5"/><ellipse cx="829" cy="263.5" fill="#ADD1B2" rx="11" ry="11" style="stroke: #A80036; stroke-width: 1.0;"/><path d="M831.9688,269.1406 Q831.3906,269.4375 830.75,269.5859 Q830.1094,269.7344 829.4063,269.7344 Q826.9063,269.7344 825.5859,268.0859 Q824.2656,266.4375 824.2656,263.3125 Q824.2656,260.1875 825.5859,258.5313 Q826.9063,256.875 829.4063,256.875 Q830.1094,256.875 830.7578,257.0313 Q831.4063,257.1875 831.9688,257.4844 L831.9688,260.2031 Q831.3438,259.625 830.75,259.3516 Q830.1563,259.0781 829.5313,259.0781 Q828.1875,259.0781 827.5,260.1484 Q826.8125,261.2188 826.8125,263.3125 Q826.8125,265.4063 827.5,266.4766 Q828.1875,267.5469 829.5313,267.5469 Q830.1563,267.5469 830.75,267.2734 Q831.3438,267 831.9688,266.4219 L831.9688,269.1406 Z "/><text fill="#000000" font-family="sans-serif" font-size="12" lengthAdjust="spacingAndGlyphs" textLength="131" x="843" y="268.1534">::templatens::AbcTempl</text><rect fill="#FFFFFF" height="18.335" style="stroke: #000000; stroke-width: 1.0; stroke-dasharray: 2.0,2.0;" width="46" x="982" y="244.5"/><text fill="#000000" font-family="sans-serif" font-size="12" font-style="italic" lengthAdjust="spacingAndGlyphs" textLength="44" x="983" y="258.321">int, bool</text><line style="stroke: #A80036; stroke-width: 1.5;" x1="815" x2="1024" y1="279.5" y2="279.5"/><ellipse cx="825" cy="290.5" fill="none" rx="3" ry="3" style="stroke: #038048; stroke-width: 1.0;"/><text fill="#000000" font-family="sans-serif" font-size="11" lengthAdjust="spacingAndGlyphs" textLength="46" x="834" y="295.2444">int field1</text><ellipse cx="825" cy="305.4634" fill="none" rx="3" ry="3" style="stroke: #038048; stroke-width: 1.0;"/><text fill="#000000" font-family="sans-serif" font-size="11" lengthAdjust="spacingAndGlyphs" textLength="56" x="834" y="310.2078">bool field2</text><ellipse cx="825" cy="320.4268" fill="none" rx="3" ry="3" style="stroke: #038048; stroke-width: 1.0;"/><text fill="#000000" font-family="sans-serif" font-size="11" lengthAdjust="spacingAndGlyphs" textLength="56" x="834" y="325.1711">bool field3</text><line style="stroke: #A80036; stroke-width: 1.5;" x1="815" x2="1024" y1="332.3901" y2="332.3901"/><!--MD5=[64c744476acf385ad814825b9b41564a]
class item_8--><rect fill="#FEFECE" filter="url(#fzhedijf8l1jd)" height="92.8901" id="item_8" style="stroke: #A80036; stroke-width: 1.5;" width="134" x="1182.5" y="15.5"/><ellipse cx="1197.5" cy="31.5" fill="#ADD1B2" rx="11" ry="11" style="stroke: #A80036; stroke-width: 1.0;"/><path d="M1200.4688,37.1406 Q1199.8906,37.4375 1199.25,37.5859 Q1198.6094,37.7344 1197.9063,37.7344 Q1195.4063,37.7344 1194.0859,36.0859 Q1192.7656,34.4375 1192.7656,31.3125 Q1192.7656,28.1875 1194.0859,26.5313 Q1195.4063,24.875 1197.9063,24.875 Q1198.6094,24.875 1199.2578,25.0313 Q1199.9063,25.1875 1200.4688,25.4844 L1200.4688,28.2031 Q1199.8438,27.625 1199.25,27.3516 Q1198.6563,27.0781 1198.0313,27.0781 Q1196.6875,27.0781 1196,28.1484 Q1195.3125,29.2188 1195.3125,31.3125 Q1195.3125,33.4063 1196,34.4766 Q1196.6875,35.5469 1198.0313,35.5469 Q1198.6563,35.5469 1199.25,35.2734 Q1199.8438,35 1200.4688,34.4219 L1200.4688,37.1406 Z "/><text fill="#000000" font-family="sans-serif" font-size="12" lengthAdjust="spacingAndGlyphs" textLength="102" x="1211.5" y="36.1534">::diamondns::Cbc1</text><line style="stroke: #A80036; stroke-width: 1.5;" x1="1183.5" x2="1315.5" y1="47.5" y2="47.5"/><ellipse cx="1193.5" cy="58.5" fill="none" rx="3" ry="3" style="stroke: #038048; stroke-width: 1.0;"/><text fill="#000000" font-family="sans-serif" font-size="11" lengthAdjust="spacingAndGlyphs" textLength="54" x="1202.5" y="63.2444">int fieldD1</text><ellipse cx="1193.5" cy="73.4634" fill="none" rx="3" ry="3" style="stroke: #038048; stroke-width: 1.0;"/><text fill="#000000" font-family="sans-serif" font-size="11" lengthAdjust="spacingAndGlyphs" textLength="67" x="1202.5" y="78.2078">??? fieldD2 :5</text><ellipse cx="1193.5" cy="88.4268" fill="none" rx="3" ry="3" style="stroke: #038048; stroke-width: 1.0;"/><text fill="#000000" font-family="sans-serif" font-size="11" lengthAdjust="spacingAndGlyphs" textLength="67" x="1202.5" y="93.1711">??? fieldD3 :5</text><line style="stroke: #A80036; stroke-width: 1.5;" x1="1183.5" x2="1315.5" y1="100.3901" y2="100.3901"/><!--MD5=[6fa5dba4b6130086386de497c9e56a14]
class item_9--><rect fill="#FEFECE" filter="url(#fzhedijf8l1jd)" height="77.9268" id="item_9" style="stroke: #A80036; stroke-width: 1.5;" width="172" x="1060.5" y="255"/><ellipse cx="1092.6" cy="271" fill="#ADD1B2" rx="11" ry="11" style="stroke: #A80036; stroke-width: 1.0;"/><path d="M1095.5688,276.6406 Q1094.9906,276.9375 1094.35,277.0859 Q1093.7094,277.2344 1093.0063,277.2344 Q1090.5063,277.2344 1089.1859,275.5859 Q1087.8656,273.9375 1087.8656,270.8125 Q1087.8656,267.6875 1089.1859,266.0313 Q1090.5063,264.375 1093.0063,264.375 Q1093.7094,264.375 1094.3578,264.5313 Q1095.0063,264.6875 1095.5688,264.9844 L1095.5688,267.7031 Q1094.9438,267.125 1094.35,266.8516 Q1093.7563,266.5781 1093.1313,266.5781 Q1091.7875,266.5781 1091.1,267.6484 Q1090.4125,268.7188 1090.4125,270.8125 Q1090.4125,272.9063 1091.1,273.9766 Q1091.7875,275.0469 1093.1313,275.0469 Q1093.7563,275.0469 1094.35,274.7734 Q1094.9438,274.5 1095.5688,273.9219 L1095.5688,276.6406 Z "/><text fill="#000000" font-family="sans-serif" font-size="12" lengthAdjust="spacingAndGlyphs" textLength="102" x="1110.4" y="275.6534">::diamondns::Bbc2</text><line style="stroke: #A80036; stroke-width: 1.5;" x1="1061.5" x2="1231.5" y1="287" y2="287"/><ellipse cx="1071.5" cy="298" fill="none" rx="3" ry="3" style="stroke: #038048; stroke-width: 1.0;"/><text fill="#000000" font-family="sans-serif" font-size="11" lengthAdjust="spacingAndGlyphs" textLength="146" x="1080.5" y="302.7444">__vtbl_ptr_type * _vptr.Bbc2</text><ellipse cx="1071.5" cy="312.9634" fill="none" rx="3" ry="3" style="stroke: #038048; stroke-width: 1.0;"/><text fill="#000000" font-family="sans-serif" font-size="11" lengthAdjust="spacingAndGlyphs" textLength="56" x="1080.5" y="317.7078">char fieldC</text><line style="stroke: #A80036; stroke-width: 1.5;" x1="1061.5" x2="1231.5" y1="324.9268" y2="324.9268"/><!--MD5=[fd026c98a8a5ab031450314d3a87c83f]
class item_10--><rect fill="#FEFECE" filter="url(#fzhedijf8l1jd)" height="77.9268" id="item_10" style="stroke: #A80036; stroke-width: 1.5;" width="172" x="1267.5" y="255"/><ellipse cx="1299.6" cy="271" fill="#ADD1B2" rx="11" ry="11" style="stroke: #A80036; stroke-width: 1.0;"/><path d="M1302.5688,276.6406 Q1301.9906,276.9375 1301.35,277.0859 Q1300.7094,277.2344 1300.0063,277.2344 Q1297.5063,277.2344 1296.1859,275.5859 Q1294.8656,273.9375 1294.8656,270.8125 Q1294.8656,267.6875 1296.1859,266.0313 Q1297.5063,264.375 1300.0063,264.375 Q1300.7094,264.375 1301.3578,264.5313 Q1302.0063,264.6875 1302.5688,264.9844 L1302.5688,267.7031 Q1301.9438,267.125 1301.35,266.8516 Q1300.7563,266.5781 1300.1313,266.5781 Q1298.7875,266.5781 1298.1,267.6484 Q1297.4125,268.7188 1297.4125,270.8125 Q1297.4125,272.9063 1298.1,273.9766 Q1298.7875,275.0469 1300.1313,275.0469 Q1300.7563,275.0469 1301.35,274.7734 Q1301.9438,274.5 1302.5688,273.9219 L1302.5688,276.6406 Z "/><text fill="#000000" font-family="sans-serif" font-size="12" lengthAdjust="spacingAndGlyphs" textLength="102" x="1317.4" y="275.6534">::diamondns::Bbc1</text><line style="stroke: #A80036; stroke-width: 1.5;" x1="1268.5" x2="1438.5" y1="287" y2="287"/><ellipse cx="1278.5" cy="298" fill="none" rx="3" ry="3" style="stroke: #038048; stroke-width: 1.0;"/><text fill="#000000" font-family="sans-serif" font-size="11" lengthAdjust="spacingAndGlyphs" textLength="146" x="1287.5" y="302.7444">__vtbl_ptr_type * _vptr.Bbc1</text><ellipse cx="1278.5" cy="312.9634" fill="none" rx="3" ry="3" style="stroke: #038048; stroke-width: 1.0;"/><text fill="#000000" font-family="sans-serif" font-size="11" lengthAdjust="spacingAndGlyphs" textLength="57" x="1287.5" y="317.7078">bool fieldB</text><line style="stroke: #A80036; stroke-width: 1.5;" x1="1268.5" x2="1438.5" y1="324.9268" y2="324.9268"/><!--MD5=[886351bbebe05b493d7be670bc997c21]
class item_11--><rect fill="#FEFECE" filter="url(#fzhedijf8l1jd)" height="62.9634" id="item_11" style="stroke: #A80036; stroke-width: 1.5;" width="134" x="1152.5" y="487"/><ellipse cx="1167.5" cy="503" fill="#ADD1B2" rx="11" ry="11" style="stroke: #A80036; stroke-width: 1.0;"/><path d="M1170.4688,508.6406 Q1169.8906,508.9375 1169.25,509.0859 Q1168.6094,509.2344 1167.9063,509.2344 Q1165.4063,509.2344 1164.0859,507.5859 Q1162.7656,505.9375 1162.7656,502.8125 Q1162.7656,499.6875 1164.0859,498.0313 Q1165.4063,496.375 1167.9063,496.375 Q1168.6094,496.375 1169.2578,496.5313 Q1169.9063,496.6875 1170.4688,496.9844 L1170.4688,499.7031 Q1169.8438,499.125 1169.25,498.8516 Q1168.6563,498.5781 1168.0313,498.5781 Q1166.6875,498.5781 1166,499.6484 Q1165.3125,500.7188 1165.3125,502.8125 Q1165.3125,504.9063 1166,505.9766 Q1166.6875,507.0469 1168.0313,507.0469 Q1168.6563,507.0469 1169.25,506.7734 Q1169.8438,506.5 1170.4688,505.9219 L1170.4688,508.6406 Z "/><text fill="#000000" font-family="sans-serif" font-size="12" lengthAdjust="spacingAndGlyphs" textLength="102" x="1181.5" y="507.6534">::diamondns::Abc1</text><line style="stroke: #A80036; stroke-width: 1.5;" x1="1153.5" x2="1285.5" y1="519" y2="519"/><ellipse cx="1163.5" cy="530" fill="none" rx="3" ry="3" style="stroke: #038048; stroke-width: 1.0;"/><text fill="#000000" font-family="sans-serif" font-size="11" lengthAdjust="spacingAndGlyphs" textLength="47" x="1172.5" y="534.7444">int fieldA</text><line style="stroke: #A80036; stroke-width: 1.5;" x1="1153.5" x2="1285.5" y1="541.9634" y2="541.9634"/><!--MD5=[3fa8ea63e4dec619c6d243c49dd6d82b]
link item_0 to item_1--><path d="M133.5,116.06 C133.5,133.66 133.5,154.02 133.5,174.53 " fill="none" id="item_0-&gt;item_1" style="stroke: #A80036; stroke-width: 1.0;"/><polygon fill="none" points="140.5,174.57,133.5,194.57,126.5,174.57,140.5,174.57" style="stroke: #A80036; stroke-width: 1.0;"/><text fill="#000000" font-family="sans-serif" font-size="13" lengthAdjust="spacingAndGlyphs" textLength="24" x="134.5" y="160.8812">pub</text><!--MD5=[b75d3fcdf564cc4d7d6fcb46570db575]
link item_2 to item_6--><path d="M544.95,93.54 C568.21,128.28 606.81,185.93 636.54,230.34 " fill="none" id="item_2-&gt;item_6" style="stroke: #A80036; stroke-width: 1.0;"/><polygon fill="none" points="642.55,226.73,647.86,247.24,630.92,234.52,642.55,226.73" style="stroke: #A80036; stroke-width: 1.0;"/><text fill="#000000" font-family="sans-serif" font-size="13" lengthAdjust="spacingAndGlyphs" textLength="24" x="593.5" y="160.8812">pub</text><!--MD5=[4d3f58fc735f0e05369e23f4cffdf81f]
link item_2 to item_5--><path d="M510.56,93.54 C494.87,127.89 468.96,184.65 448.78,228.86 " fill="none" id="item_2-&gt;item_5" style="stroke: #A80036; stroke-width: 1.0;"/><polygon fill="none" points="455.06,231.95,440.39,247.24,442.33,226.14,455.06,231.95" style="stroke: #A80036; stroke-width: 1.0;"/><text fill="#000000" font-family="sans-serif" font-size="13" lengthAdjust="spacingAndGlyphs" textLength="24" x="485.5" y="160.8812">pub</text><!--MD5=[72acc92ce67de3a9710d3297e541df69]
link item_3 to item_7--><path d="M919.5,93.54 C919.5,127.43 919.5,183.13 919.5,227.07 " fill="none" id="item_3-&gt;item_7" style="stroke: #A80036; stroke-width: 1.0;"/><polygon fill="none" points="926.5,227.24,919.5,247.24,912.5,227.24,926.5,227.24" style="stroke: #A80036; stroke-width: 1.0;"/><text fill="#000000" font-family="sans-serif" font-size="13" lengthAdjust="spacingAndGlyphs" textLength="24" x="920.5" y="160.8812">pub</text><!--MD5=[25fd28c70ebdd47dc330cdfc995759d7]
link item_5 to item_4--><path d="M472.54,340.56 C515.92,377.83 577.15,430.43 621.56,468.58 " fill="none" id="item_5-&gt;item_4" style="stroke: #A80036; stroke-width: 1.0; stroke-dasharray: 7.0,7.0;"/><polygon fill="#A80036" points="625.53,472,621.2999,463.1059,621.7337,468.746,616.0935,469.1799,625.53,472" style="stroke: #A80036; stroke-width: 1.0;"/><!--MD5=[f6f29c9c0583341c848f629fedeffcf4]
link item_6 to item_4--><path d="M678.5,340.56 C678.5,377.31 678.5,428.95 678.5,466.96 " fill="none" id="item_6-&gt;item_4" style="stroke: #A80036; stroke-width: 1.0; stroke-dasharray: 7.0,7.0;"/><polygon fill="#A80036" points="678.5,472,682.5,463,678.5,467,674.5,463,678.5,472" style="stroke: #A80036; stroke-width: 1.0;"/><!--MD5=[62c40f16aa0f7c8b3dda3cd9a1fca5ec]
link item_7 to item_4--><path d="M870.15,340.56 C829.86,377.76 773.04,430.22 731.73,468.35 " fill="none" id="item_7-&gt;item_4" style="stroke: #A80036; stroke-width: 1.0; stroke-dasharray: 7.0,7.0;"/><polygon fill="#A80036" points="727.79,472,737.1112,468.8196,731.4585,468.6027,731.6755,462.95,727.79,472" style="stroke: #A80036; stroke-width: 1.0;"/><!--MD5=[42c6abf99ea9665a3a9b021630c32161]
link item_8 to item_10--><path d="M1270.17,108.72 C1286.78,145.45 1310.19,197.21 1327.97,236.53 " fill="none" id="item_8-&gt;item_10" style="stroke: #A80036; stroke-width: 1.0;"/><polygon fill="none" points="1334.45,233.88,1336.31,254.99,1321.69,239.65,1334.45,233.88" style="stroke: #A80036; stroke-width: 1.0;"/><text fill="#000000" font-family="sans-serif" font-size="13" lengthAdjust="spacingAndGlyphs" textLength="24" x="1296.5" y="160.8812">pub</text><!--MD5=[258ab9500eabf03361c18eb43aa98a66]
link item_8 to item_9--><path d="M1229.03,108.72 C1212.58,145.45 1189.4,197.21 1171.79,236.53 " fill="none" id="item_8-&gt;item_9" style="stroke: #A80036; stroke-width: 1.0;"/><polygon fill="none" points="1178.09,239.59,1163.52,254.99,1165.31,233.87,1178.09,239.59" style="stroke: #A80036; stroke-width: 1.0;"/><text fill="#000000" font-family="sans-serif" font-size="13" lengthAdjust="spacingAndGlyphs" textLength="24" x="1211.5" y="160.8812">pub</text><!--MD5=[a50dd13f82830f95da7509d79e784a70]
link item_9 to item_11--><path d="M1159.05,333.25 C1171.25,370.45 1189.86,427.15 1203.2,467.83 " fill="none" id="item_9-&gt;item_11" style="stroke: #A80036; stroke-width: 1.0;"/><polygon fill="none" points="1209.88,465.71,1209.46,486.9,1196.57,470.07,1209.88,465.71" style="stroke: #A80036; stroke-width: 1.0;"/><text fill="#000000" font-family="sans-serif" font-size="13" lengthAdjust="spacingAndGlyphs" textLength="47" x="1195.5" y="437.8812">virt pub</text><!--MD5=[2294eb8e57c72870ec7a694a7bbcee6c]
link item_10 to item_11--><path d="M1330.46,333.25 C1307.7,371.05 1272.82,428.97 1248.25,469.76 " fill="none" id="item_10-&gt;item_11" style="stroke: #A80036; stroke-width: 1.0;"/><polygon fill="none" points="1254.25,473.37,1237.93,486.9,1242.25,466.15,1254.25,473.37" style="stroke: #A80036; stroke-width: 1.0;"/><text fill="#000000" font-family="sans-serif" font-size="13" lengthAdjust="spacingAndGlyphs" textLength="47" x="1275.5" y="437.8812">virt pub</text><!--MD5=[07c01511e932835d4dd0511284e2a076]
@startuml

class "::membersns::SubClass" as item_0 {
    {field} {static} # const int staticField
    {method} +virt int * virtFn() 
    {method} #virt void virtPureFn() 
    {method} +virt  ~SubClass() =default
}
class "::membersns::BaseClass" as item_1 {
    {field} + __vtbl_ptr_type * _vptr.BaseClass
    {field} + bool publicFieldA
    {field} + bool protectedFieldB
    {field} - int privateFieldC
    {method} +  BaseClass() =default
    {method} +virt  ~BaseClass() =default
    {method} + int regularFn(int paramA, bool /*anonym*/) 
    {method} +virt int * virtFn() 
    {method} {static} + void staticFn(double const paramA) 
    {method} {abstract} #virt void virtPureFn() =0
}
class "::templatens::TemplInheritDouble" as item_2 {
    {field} + bool dataA
}
class "::templatens::TemplInherit" as item_3 {
    {field} + ??? fieldA :3
}
class "::templatens::AbcTempl" as item_4 <TTypeA, TTypeB> <<T,#FF7700>> {
    {field} + TTypeA field1
    {field} + bool field2
    {field} + TTypeB field3
}
class "::templatens::AbcTempl<double, double>" as item_5 {
    {field} + double field1
    {field} + bool field2
    {field} + double field3
}
class "::templatens::AbcTempl<int, int>" as item_6 {
    {field} + int field1
    {field} + bool field2
    {field} + int field3
}
class "::templatens::AbcTempl<int, bool>" as item_7 {
    {field} + int field1
    {field} + bool field2
    {field} + bool field3
}
class "::diamondns::Cbc1" as item_8 {
    {field} + int fieldD1
    {field} + ??? fieldD2 :5
    {field} + ??? fieldD3 :5
}
class "::diamondns::Bbc2" as item_9 {
    {field} + __vtbl_ptr_type * _vptr.Bbc2
    {field} + char fieldC
}
class "::diamondns::Bbc1" as item_10 {
    {field} + __vtbl_ptr_type * _vptr.Bbc1
    {field} + bool fieldB
}
class "::diamondns::Abc1" as item_11 {
    {field} + int fieldA
}

item_0 - -|> item_1: "pub"
item_2 - -|> item_6: "pub"
item_2 - -|> item_5: "pub"
item_3 - -|> item_7: "pub"
item_5 ..> item_4
item_6 ..> item_4
item_7 ..> item_4
item_8 - -|> item_10: "pub"
item_8 - -|> item_9: "pub"
item_9 - -|> item_11: "virt pub"
item_10 - -|> item_11: "virt pub"

@enduml

PlantUML version 1.2020.02(Sun Mar 01 11:22:07 CET 2020)
(GPL source distribution)
Java Runtime: Java(TM) SE Runtime Environment
JVM: Java HotSpot(TM) 64-Bit Server VM
Java Version: 1.8.0_212-b10
Operating System: Linux
Default Encoding: UTF-8
Language: en
Country: US
--></g></svg>