<?xml version="1.0" encoding="UTF-8" standalone="no"?>
<!DOCTYPE svg PUBLIC "-//W3C//DTD SVG 1.1//EN"
 "http://www.w3.org/Graphics/SVG/1.1/DTD/svg11.dtd">
<!-- Generated by graphviz version 2.43.0 (0)
 -->
<!-- Title: memory_layout Pages: 1 -->
<svg width="1294pt" height="976pt"
 viewBox="0.00 0.00 1294.00 976.00" xmlns="http://www.w3.org/2000/svg" xmlns:xlink="http://www.w3.org/1999/xlink">
<g id="graph0" class="graph" transform="scale(1 1) rotate(0) translate(4 972)">
<title>memory_layout</title>
<polygon fill="white" stroke="transparent" points="-4,4 -4,-972 1290,-972 1290,4 -4,4"/>
<!-- &#45;templatens&#45;TemplInheritDouble -->
<g id="node1" class="node">
<title>&#45;templatens&#45;TemplInheritDouble</title>
<polygon fill="PaleGreen" stroke="transparent" points="0,-547 0,-575 378,-575 378,-547 0,-547"/>
<polygon fill="none" stroke="black" points="0,-547 0,-575 378,-575 378,-547 0,-547"/>
<text text-anchor="start" x="31" y="-558.2" font-family="Helvetica,Arial,sans-serif" font-size="16.00"> </text>
<text text-anchor="start" x="36" y="-558.2" font-family="Helvetica,Arial,sans-serif" font-weight="bold" font-size="16.00">::templatens::TemplInheritDouble</text>
<text text-anchor="start" x="291" y="-558.2" font-family="Helvetica,Arial,sans-serif" font-size="16.00"> &#160;(384b)</text>
<polygon fill="none" stroke="black" points="0,-519 0,-547 38,-547 38,-519 0,-519"/>
<text text-anchor="start" x="23" y="-529.2" font-family="Helvetica,Arial,sans-serif" font-size="16.00">0</text>
<polygon fill="none" stroke="black" points="38,-519 38,-547 76,-547 76,-519 38,-519"/>
<text text-anchor="start" x="52" y="-529.2" font-family="Helvetica,Arial,sans-serif" font-size="16.00">96</text>
<polygon fill="#fefece" stroke="transparent" points="76,-519 76,-547 378,-547 378,-519 76,-519"/>
<polygon fill="none" stroke="black" points="76,-519 76,-547 378,-547 378,-519 76,-519"/>
<text text-anchor="start" x="81" y="-529.2" font-family="Helvetica,Arial,sans-serif" font-size="16.00">::templatens::AbcTempl&lt;int, int&gt;</text>
<polygon fill="none" stroke="black" points="0,-491 0,-519 38,-519 38,-491 0,-491"/>
<text text-anchor="start" x="14" y="-501.2" font-family="Helvetica,Arial,sans-serif" font-size="16.00">96</text>
<polygon fill="none" stroke="black" points="38,-491 38,-519 76,-519 76,-491 38,-491"/>
<text text-anchor="start" x="52" y="-501.2" font-family="Helvetica,Arial,sans-serif" font-size="16.00">32</text>
<polygon fill="lightgray" stroke="transparent" points="76,-491 76,-519 378,-519 378,-491 76,-491"/>
<polygon fill="none" stroke="black" points="76,-491 76,-519 378,-519 378,-491 76,-491"/>
<text text-anchor="start" x="81" y="-501.2" font-family="Helvetica,Arial,sans-serif" font-size="16.00">[padding]</text>
<polygon fill="none" stroke="black" points="0,-463 0,-491 38,-491 38,-463 0,-463"/>
<text text-anchor="start" x="5" y="-473.2" font-family="Helvetica,Arial,sans-serif" font-size="16.00">128</text>
<polygon fill="none" stroke="black" points="38,-463 38,-491 76,-491 76,-463 38,-463"/>
<text text-anchor="start" x="43" y="-473.2" font-family="Helvetica,Arial,sans-serif" font-size="16.00">192</text>
<polygon fill="#fefece" stroke="transparent" points="76,-463 76,-491 378,-491 378,-463 76,-463"/>
<polygon fill="none" stroke="black" points="76,-463 76,-491 378,-491 378,-463 76,-463"/>
<text text-anchor="start" x="81" y="-473.2" font-family="Helvetica,Arial,sans-serif" font-size="16.00">::templatens::AbcTempl&lt;double, double&gt;</text>
<polygon fill="none" stroke="black" points="0,-435 0,-463 38,-463 38,-435 0,-435"/>
<text text-anchor="start" x="5" y="-445.2" font-family="Helvetica,Arial,sans-serif" font-size="16.00">320</text>
<polygon fill="none" stroke="black" points="38,-435 38,-463 76,-463 76,-435 38,-435"/>
<text text-anchor="start" x="61" y="-445.2" font-family="Helvetica,Arial,sans-serif" font-size="16.00">8</text>
<polygon fill="none" stroke="black" points="76,-435 76,-463 378,-463 378,-435 76,-435"/>
<text text-anchor="start" x="81" y="-445.2" font-family="Helvetica,Arial,sans-serif" font-size="16.00">dataA: bool</text>
<polygon fill="none" stroke="black" points="0,-407 0,-435 38,-435 38,-407 0,-407"/>
<text text-anchor="start" x="5" y="-417.2" font-family="Helvetica,Arial,sans-serif" font-size="16.00">328</text>
<polygon fill="none" stroke="black" points="38,-407 38,-435 76,-435 76,-407 38,-407"/>
<text text-anchor="start" x="52" y="-417.2" font-family="Helvetica,Arial,sans-serif" font-size="16.00">56</text>
<polygon fill="lightgray" stroke="transparent" points="76,-407 76,-435 378,-435 378,-407 76,-407"/>
<polygon fill="none" stroke="black" points="76,-407 76,-435 378,-435 378,-407 76,-407"/>
<text text-anchor="start" x="81" y="-417.2" font-family="Helvetica,Arial,sans-serif" font-size="16.00">[padding]</text>
</g>
<!-- &#45;templatens&#45;AbcTempl&lt;double, double&gt; -->
<g id="node5" class="node">
<title>&#45;templatens&#45;AbcTempl&lt;double, double&gt;</title>
<polygon fill="PaleGreen" stroke="transparent" points="522.5,-428 522.5,-456 907.5,-456 907.5,-428 522.5,-428"/>
<polygon fill="none" stroke="black" points="522.5,-428 522.5,-456 907.5,-456 907.5,-428 522.5,-428"/>
<text text-anchor="start" x="527.5" y="-439.2" font-family="Helvetica,Arial,sans-serif" font-size="16.00"> </text>
<text text-anchor="start" x="532.5" y="-439.2" font-family="Helvetica,Arial,sans-serif" font-weight="bold" font-size="16.00">::templatens::AbcTempl&lt;double, double&gt;</text>
<text text-anchor="start" x="846.5" y="-439.2" font-family="Helvetica,Arial,sans-serif" font-size="16.00"> &#160;(192b)</text>
<polygon fill="none" stroke="black" points="522.5,-400 522.5,-428 665.5,-428 665.5,-400 522.5,-400"/>
<text text-anchor="start" x="650.5" y="-410.2" font-family="Helvetica,Arial,sans-serif" font-size="16.00">0</text>
<polygon fill="none" stroke="black" points="665.5,-400 665.5,-428 747.5,-428 747.5,-400 665.5,-400"/>
<text text-anchor="start" x="723.5" y="-410.2" font-family="Helvetica,Arial,sans-serif" font-size="16.00">64</text>
<polygon fill="none" stroke="black" points="747.5,-400 747.5,-428 907.5,-428 907.5,-400 747.5,-400"/>
<text text-anchor="start" x="752.5" y="-410.2" font-family="Helvetica,Arial,sans-serif" font-size="16.00">field1: double</text>
<polygon fill="none" stroke="black" points="522.5,-372 522.5,-400 665.5,-400 665.5,-372 522.5,-372"/>
<text text-anchor="start" x="641.5" y="-382.2" font-family="Helvetica,Arial,sans-serif" font-size="16.00">64</text>
<polygon fill="none" stroke="black" points="665.5,-372 665.5,-400 747.5,-400 747.5,-372 665.5,-372"/>
<text text-anchor="start" x="732.5" y="-382.2" font-family="Helvetica,Arial,sans-serif" font-size="16.00">8</text>
<polygon fill="none" stroke="black" points="747.5,-372 747.5,-400 907.5,-400 907.5,-372 747.5,-372"/>
<text text-anchor="start" x="752.5" y="-382.2" font-family="Helvetica,Arial,sans-serif" font-size="16.00">field2: bool</text>
<polygon fill="none" stroke="black" points="522.5,-344 522.5,-372 665.5,-372 665.5,-344 522.5,-344"/>
<text text-anchor="start" x="641.5" y="-354.2" font-family="Helvetica,Arial,sans-serif" font-size="16.00">72</text>
<polygon fill="none" stroke="black" points="665.5,-344 665.5,-372 747.5,-372 747.5,-344 665.5,-344"/>
<text text-anchor="start" x="723.5" y="-354.2" font-family="Helvetica,Arial,sans-serif" font-size="16.00">56</text>
<polygon fill="lightgray" stroke="transparent" points="747.5,-344 747.5,-372 907.5,-372 907.5,-344 747.5,-344"/>
<polygon fill="none" stroke="black" points="747.5,-344 747.5,-372 907.5,-372 907.5,-344 747.5,-344"/>
<text text-anchor="start" x="752.5" y="-354.2" font-family="Helvetica,Arial,sans-serif" font-size="16.00">[padding]</text>
<polygon fill="none" stroke="black" points="522.5,-316 522.5,-344 665.5,-344 665.5,-316 522.5,-316"/>
<text text-anchor="start" x="632.5" y="-326.2" font-family="Helvetica,Arial,sans-serif" font-size="16.00">128</text>
<polygon fill="none" stroke="black" points="665.5,-316 665.5,-344 747.5,-344 747.5,-316 665.5,-316"/>
<text text-anchor="start" x="723.5" y="-326.2" font-family="Helvetica,Arial,sans-serif" font-size="16.00">64</text>
<polygon fill="none" stroke="black" points="747.5,-316 747.5,-344 907.5,-344 907.5,-316 747.5,-316"/>
<text text-anchor="start" x="752.5" y="-326.2" font-family="Helvetica,Arial,sans-serif" font-size="16.00">field3: double</text>
</g>
<!-- &#45;templatens&#45;TemplInheritDouble&#45;&gt;&#45;templatens&#45;AbcTempl&lt;double, double&gt; -->
<g id="edge2" class="edge">
<title>&#45;templatens&#45;TemplInheritDouble:out_2&#45;&gt;&#45;templatens&#45;AbcTempl&lt;double, double&gt;:&#45;1</title>
<path fill="none" stroke="black" d="M378,-477C440.26,-477 454.63,-445.72 511.66,-442.3"/>
<polygon fill="black" stroke="black" points="512.11,-445.79 522,-442 511.9,-438.79 512.11,-445.79"/>
</g>
<!-- &#45;templatens&#45;AbcTempl&lt;int, int&gt; -->
<g id="node6" class="node">
<title>&#45;templatens&#45;AbcTempl&lt;int, int&gt;</title>
<polygon fill="PaleGreen" stroke="transparent" points="559.5,-586 559.5,-614 869.5,-614 869.5,-586 559.5,-586"/>
<polygon fill="none" stroke="black" points="559.5,-586 559.5,-614 869.5,-614 869.5,-586 559.5,-586"/>
<text text-anchor="start" x="564.5" y="-597.2" font-family="Helvetica,Arial,sans-serif" font-size="16.00"> </text>
<text text-anchor="start" x="569.5" y="-597.2" font-family="Helvetica,Arial,sans-serif" font-weight="bold" font-size="16.00">::templatens::AbcTempl&lt;int, int&gt;</text>
<text text-anchor="start" x="817.5" y="-597.2" font-family="Helvetica,Arial,sans-serif" font-size="16.00"> &#160;(96b)</text>
<polygon fill="none" stroke="black" points="559.5,-558 559.5,-586 669.5,-586 669.5,-558 559.5,-558"/>
<text text-anchor="start" x="654.5" y="-568.2" font-family="Helvetica,Arial,sans-serif" font-size="16.00">0</text>
<polygon fill="none" stroke="black" points="669.5,-558 669.5,-586 739.5,-586 739.5,-558 669.5,-558"/>
<text text-anchor="start" x="715.5" y="-568.2" font-family="Helvetica,Arial,sans-serif" font-size="16.00">32</text>
<polygon fill="none" stroke="black" points="739.5,-558 739.5,-586 869.5,-586 869.5,-558 739.5,-558"/>
<text text-anchor="start" x="744.5" y="-568.2" font-family="Helvetica,Arial,sans-serif" font-size="16.00">field1: int</text>
<polygon fill="none" stroke="black" points="559.5,-530 559.5,-558 669.5,-558 669.5,-530 559.5,-530"/>
<text text-anchor="start" x="645.5" y="-540.2" font-family="Helvetica,Arial,sans-serif" font-size="16.00">32</text>
<polygon fill="none" stroke="black" points="669.5,-530 669.5,-558 739.5,-558 739.5,-530 669.5,-530"/>
<text text-anchor="start" x="724.5" y="-540.2" font-family="Helvetica,Arial,sans-serif" font-size="16.00">8</text>
<polygon fill="none" stroke="black" points="739.5,-530 739.5,-558 869.5,-558 869.5,-530 739.5,-530"/>
<text text-anchor="start" x="744.5" y="-540.2" font-family="Helvetica,Arial,sans-serif" font-size="16.00">field2: bool</text>
<polygon fill="none" stroke="black" points="559.5,-502 559.5,-530 669.5,-530 669.5,-502 559.5,-502"/>
<text text-anchor="start" x="645.5" y="-512.2" font-family="Helvetica,Arial,sans-serif" font-size="16.00">40</text>
<polygon fill="none" stroke="black" points="669.5,-502 669.5,-530 739.5,-530 739.5,-502 669.5,-502"/>
<text text-anchor="start" x="715.5" y="-512.2" font-family="Helvetica,Arial,sans-serif" font-size="16.00">24</text>
<polygon fill="lightgray" stroke="transparent" points="739.5,-502 739.5,-530 869.5,-530 869.5,-502 739.5,-502"/>
<polygon fill="none" stroke="black" points="739.5,-502 739.5,-530 869.5,-530 869.5,-502 739.5,-502"/>
<text text-anchor="start" x="744.5" y="-512.2" font-family="Helvetica,Arial,sans-serif" font-size="16.00">[padding]</text>
<polygon fill="none" stroke="black" points="559.5,-474 559.5,-502 669.5,-502 669.5,-474 559.5,-474"/>
<text text-anchor="start" x="645.5" y="-484.2" font-family="Helvetica,Arial,sans-serif" font-size="16.00">64</text>
<polygon fill="none" stroke="black" points="669.5,-474 669.5,-502 739.5,-502 739.5,-474 669.5,-474"/>
<text text-anchor="start" x="715.5" y="-484.2" font-family="Helvetica,Arial,sans-serif" font-size="16.00">32</text>
<polygon fill="none" stroke="black" points="739.5,-474 739.5,-502 869.5,-502 869.5,-474 739.5,-474"/>
<text text-anchor="start" x="744.5" y="-484.2" font-family="Helvetica,Arial,sans-serif" font-size="16.00">field3: int</text>
</g>
<!-- &#45;templatens&#45;TemplInheritDouble&#45;&gt;&#45;templatens&#45;AbcTempl&lt;int, int&gt; -->
<g id="edge1" class="edge">
<title>&#45;templatens&#45;TemplInheritDouble:out_0&#45;&gt;&#45;templatens&#45;AbcTempl&lt;int, int&gt;:&#45;1</title>
<path fill="none" stroke="black" d="M378,-533C460.06,-533 472.03,-594.62 548.34,-599.67"/>
<polygon fill="black" stroke="black" points="548.39,-603.17 558.5,-600 548.62,-596.18 548.39,-603.17"/>
</g>
<!-- &#45;templatens&#45;TemplInherit -->
<g id="node2" class="node">
<title>&#45;templatens&#45;TemplInherit</title>
<polygon fill="PaleGreen" stroke="transparent" points="33,-298 33,-326 345,-326 345,-298 33,-298"/>
<polygon fill="none" stroke="black" points="33,-298 33,-326 345,-326 345,-298 33,-298"/>
<text text-anchor="start" x="62.5" y="-309.2" font-family="Helvetica,Arial,sans-serif" font-size="16.00"> </text>
<text text-anchor="start" x="67.5" y="-309.2" font-family="Helvetica,Arial,sans-serif" font-weight="bold" font-size="16.00">::templatens::TemplInherit</text>
<text text-anchor="start" x="268.5" y="-309.2" font-family="Helvetica,Arial,sans-serif" font-size="16.00"> &#160;(96b)</text>
<polygon fill="none" stroke="black" points="33,-270 33,-298 62,-298 62,-270 33,-270"/>
<text text-anchor="start" x="47" y="-280.2" font-family="Helvetica,Arial,sans-serif" font-size="16.00">0</text>
<polygon fill="none" stroke="black" points="62,-270 62,-298 91,-298 91,-270 62,-270"/>
<text text-anchor="start" x="67" y="-280.2" font-family="Helvetica,Arial,sans-serif" font-size="16.00">64</text>
<polygon fill="#fefece" stroke="transparent" points="91,-270 91,-298 345,-298 345,-270 91,-270"/>
<polygon fill="none" stroke="black" points="91,-270 91,-298 345,-298 345,-270 91,-270"/>
<text text-anchor="start" x="96" y="-280.2" font-family="Helvetica,Arial,sans-serif" font-size="16.00">::templatens::AbcTempl&lt;int, bool&gt;</text>
<polygon fill="none" stroke="black" points="33,-242 33,-270 62,-270 62,-242 33,-242"/>
<text text-anchor="start" x="38" y="-252.2" font-family="Helvetica,Arial,sans-serif" font-size="16.00">64</text>
<polygon fill="none" stroke="black" points="62,-242 62,-270 91,-270 91,-242 62,-242"/>
<text text-anchor="start" x="67" y="-252.2" font-family="Helvetica,Arial,sans-serif" font-size="16.00">32</text>
<polygon fill="none" stroke="black" points="91,-242 91,-270 345,-270 345,-242 91,-242"/>
<text text-anchor="start" x="96" y="-252.2" font-family="Helvetica,Arial,sans-serif" font-size="16.00">fieldA: int</text>
</g>
<!-- &#45;templatens&#45;AbcTempl&lt;int, bool&gt; -->
<g id="node7" class="node">
<title>&#45;templatens&#45;AbcTempl&lt;int, bool&gt;</title>
<polygon fill="PaleGreen" stroke="transparent" points="552.5,-270 552.5,-298 876.5,-298 876.5,-270 552.5,-270"/>
<polygon fill="none" stroke="black" points="552.5,-270 552.5,-298 876.5,-298 876.5,-270 552.5,-270"/>
<text text-anchor="start" x="557.5" y="-281.2" font-family="Helvetica,Arial,sans-serif" font-size="16.00"> </text>
<text text-anchor="start" x="562.5" y="-281.2" font-family="Helvetica,Arial,sans-serif" font-weight="bold" font-size="16.00">::templatens::AbcTempl&lt;int, bool&gt;</text>
<text text-anchor="start" x="824.5" y="-281.2" font-family="Helvetica,Arial,sans-serif" font-size="16.00"> &#160;(64b)</text>
<polygon fill="none" stroke="black" points="552.5,-242 552.5,-270 669.5,-270 669.5,-242 552.5,-242"/>
<text text-anchor="start" x="654.5" y="-252.2" font-family="Helvetica,Arial,sans-serif" font-size="16.00">0</text>
<polygon fill="none" stroke="black" points="669.5,-242 669.5,-270 742.5,-270 742.5,-242 669.5,-242"/>
<text text-anchor="start" x="718.5" y="-252.2" font-family="Helvetica,Arial,sans-serif" font-size="16.00">32</text>
<polygon fill="none" stroke="black" points="742.5,-242 742.5,-270 876.5,-270 876.5,-242 742.5,-242"/>
<text text-anchor="start" x="747.5" y="-252.2" font-family="Helvetica,Arial,sans-serif" font-size="16.00">field1: int</text>
<polygon fill="none" stroke="black" points="552.5,-214 552.5,-242 669.5,-242 669.5,-214 552.5,-214"/>
<text text-anchor="start" x="645.5" y="-224.2" font-family="Helvetica,Arial,sans-serif" font-size="16.00">32</text>
<polygon fill="none" stroke="black" points="669.5,-214 669.5,-242 742.5,-242 742.5,-214 669.5,-214"/>
<text text-anchor="start" x="727.5" y="-224.2" font-family="Helvetica,Arial,sans-serif" font-size="16.00">8</text>
<polygon fill="none" stroke="black" points="742.5,-214 742.5,-242 876.5,-242 876.5,-214 742.5,-214"/>
<text text-anchor="start" x="747.5" y="-224.2" font-family="Helvetica,Arial,sans-serif" font-size="16.00">field2: bool</text>
<polygon fill="none" stroke="black" points="552.5,-186 552.5,-214 669.5,-214 669.5,-186 552.5,-186"/>
<text text-anchor="start" x="645.5" y="-196.2" font-family="Helvetica,Arial,sans-serif" font-size="16.00">40</text>
<polygon fill="none" stroke="black" points="669.5,-186 669.5,-214 742.5,-214 742.5,-186 669.5,-186"/>
<text text-anchor="start" x="727.5" y="-196.2" font-family="Helvetica,Arial,sans-serif" font-size="16.00">8</text>
<polygon fill="none" stroke="black" points="742.5,-186 742.5,-214 876.5,-214 876.5,-186 742.5,-186"/>
<text text-anchor="start" x="747.5" y="-196.2" font-family="Helvetica,Arial,sans-serif" font-size="16.00">field3: bool</text>
<polygon fill="none" stroke="black" points="552.5,-158 552.5,-186 669.5,-186 669.5,-158 552.5,-158"/>
<text text-anchor="start" x="645.5" y="-168.2" font-family="Helvetica,Arial,sans-serif" font-size="16.00">48</text>
<polygon fill="none" stroke="black" points="669.5,-158 669.5,-186 742.5,-186 742.5,-158 669.5,-158"/>
<text text-anchor="start" x="718.5" y="-168.2" font-family="Helvetica,Arial,sans-serif" font-size="16.00">16</text>
<polygon fill="lightgray" stroke="transparent" points="742.5,-158 742.5,-186 876.5,-186 876.5,-158 742.5,-158"/>
<polygon fill="none" stroke="black" points="742.5,-158 742.5,-186 876.5,-186 876.5,-158 742.5,-158"/>
<text text-anchor="start" x="747.5" y="-168.2" font-family="Helvetica,Arial,sans-serif" font-size="16.00">[padding]</text>
</g>
<!-- &#45;templatens&#45;TemplInherit&#45;&gt;&#45;templatens&#45;AbcTempl&lt;int, bool&gt; -->
<g id="edge3" class="edge">
<title>&#45;templatens&#45;TemplInherit:out_0&#45;&gt;&#45;templatens&#45;AbcTempl&lt;int, bool&gt;:&#45;1</title>
<path fill="none" stroke="black" d="M346,-284C433.85,-284 458.33,-284 541.35,-284"/>
<polygon fill="black" stroke="black" points="541.5,-287.5 551.5,-284 541.5,-280.5 541.5,-287.5"/>
</g>
<!-- &#45;templatens&#45;TemplField -->
<g id="node3" class="node">
<title>&#45;templatens&#45;TemplField</title>
<polygon fill="PaleGreen" stroke="transparent" points="2,-168 2,-196 377,-196 377,-168 2,-168"/>
<polygon fill="none" stroke="black" points="2,-168 2,-196 377,-196 377,-168 2,-168"/>
<text text-anchor="start" x="68.5" y="-179.2" font-family="Helvetica,Arial,sans-serif" font-size="16.00"> </text>
<text text-anchor="start" x="73.5" y="-179.2" font-family="Helvetica,Arial,sans-serif" font-weight="bold" font-size="16.00">::templatens::TemplField</text>
<text text-anchor="start" x="263.5" y="-179.2" font-family="Helvetica,Arial,sans-serif" font-size="16.00"> &#160;(96b)</text>
<polygon fill="none" stroke="black" points="2,-140 2,-168 31,-168 31,-140 2,-140"/>
<text text-anchor="start" x="16" y="-150.2" font-family="Helvetica,Arial,sans-serif" font-size="16.00">0</text>
<polygon fill="none" stroke="black" points="31,-140 31,-168 60,-168 60,-140 31,-140"/>
<text text-anchor="start" x="36" y="-150.2" font-family="Helvetica,Arial,sans-serif" font-size="16.00">32</text>
<polygon fill="none" stroke="black" points="60,-140 60,-168 377,-168 377,-140 60,-140"/>
<text text-anchor="start" x="65" y="-150.2" font-family="Helvetica,Arial,sans-serif" font-size="16.00">fieldA: int</text>
<polygon fill="none" stroke="black" points="2,-112 2,-140 31,-140 31,-112 2,-112"/>
<text text-anchor="start" x="7" y="-122.2" font-family="Helvetica,Arial,sans-serif" font-size="16.00">32</text>
<polygon fill="none" stroke="black" points="31,-112 31,-140 60,-140 60,-112 31,-112"/>
<text text-anchor="start" x="36" y="-122.2" font-family="Helvetica,Arial,sans-serif" font-size="16.00">64</text>
<polygon fill="none" stroke="black" points="60,-112 60,-140 377,-140 377,-112 60,-112"/>
<text text-anchor="start" x="65" y="-122.2" font-family="Helvetica,Arial,sans-serif" font-size="16.00">fieldB: ::templatens::AbcTempl&lt;float, char&gt;</text>
</g>
<!-- &#45;templatens&#45;AbcTempl&lt;float, char&gt; -->
<g id="node8" class="node">
<title>&#45;templatens&#45;AbcTempl&lt;float, char&gt;</title>
<polygon fill="PaleGreen" stroke="transparent" points="545.5,-112 545.5,-140 884.5,-140 884.5,-112 545.5,-112"/>
<polygon fill="none" stroke="black" points="545.5,-112 545.5,-140 884.5,-140 884.5,-112 545.5,-112"/>
<text text-anchor="start" x="550.5" y="-123.2" font-family="Helvetica,Arial,sans-serif" font-size="16.00"> </text>
<text text-anchor="start" x="555.5" y="-123.2" font-family="Helvetica,Arial,sans-serif" font-weight="bold" font-size="16.00">::templatens::AbcTempl&lt;float, char&gt;</text>
<text text-anchor="start" x="832.5" y="-123.2" font-family="Helvetica,Arial,sans-serif" font-size="16.00"> &#160;(64b)</text>
<polygon fill="none" stroke="black" points="545.5,-84 545.5,-112 669.5,-112 669.5,-84 545.5,-84"/>
<text text-anchor="start" x="654.5" y="-94.2" font-family="Helvetica,Arial,sans-serif" font-size="16.00">0</text>
<polygon fill="none" stroke="black" points="669.5,-84 669.5,-112 746.5,-112 746.5,-84 669.5,-84"/>
<text text-anchor="start" x="722.5" y="-94.2" font-family="Helvetica,Arial,sans-serif" font-size="16.00">32</text>
<polygon fill="none" stroke="black" points="746.5,-84 746.5,-112 884.5,-112 884.5,-84 746.5,-84"/>
<text text-anchor="start" x="751.5" y="-94.2" font-family="Helvetica,Arial,sans-serif" font-size="16.00">field1: float</text>
<polygon fill="none" stroke="black" points="545.5,-56 545.5,-84 669.5,-84 669.5,-56 545.5,-56"/>
<text text-anchor="start" x="645.5" y="-66.2" font-family="Helvetica,Arial,sans-serif" font-size="16.00">32</text>
<polygon fill="none" stroke="black" points="669.5,-56 669.5,-84 746.5,-84 746.5,-56 669.5,-56"/>
<text text-anchor="start" x="731.5" y="-66.2" font-family="Helvetica,Arial,sans-serif" font-size="16.00">8</text>
<polygon fill="none" stroke="black" points="746.5,-56 746.5,-84 884.5,-84 884.5,-56 746.5,-56"/>
<text text-anchor="start" x="751.5" y="-66.2" font-family="Helvetica,Arial,sans-serif" font-size="16.00">field2: bool</text>
<polygon fill="none" stroke="black" points="545.5,-28 545.5,-56 669.5,-56 669.5,-28 545.5,-28"/>
<text text-anchor="start" x="645.5" y="-38.2" font-family="Helvetica,Arial,sans-serif" font-size="16.00">40</text>
<polygon fill="none" stroke="black" points="669.5,-28 669.5,-56 746.5,-56 746.5,-28 669.5,-28"/>
<text text-anchor="start" x="731.5" y="-38.2" font-family="Helvetica,Arial,sans-serif" font-size="16.00">8</text>
<polygon fill="none" stroke="black" points="746.5,-28 746.5,-56 884.5,-56 884.5,-28 746.5,-28"/>
<text text-anchor="start" x="751.5" y="-38.2" font-family="Helvetica,Arial,sans-serif" font-size="16.00">field3: char</text>
<polygon fill="none" stroke="black" points="545.5,0 545.5,-28 669.5,-28 669.5,0 545.5,0"/>
<text text-anchor="start" x="645.5" y="-10.2" font-family="Helvetica,Arial,sans-serif" font-size="16.00">48</text>
<polygon fill="none" stroke="black" points="669.5,0 669.5,-28 746.5,-28 746.5,0 669.5,0"/>
<text text-anchor="start" x="722.5" y="-10.2" font-family="Helvetica,Arial,sans-serif" font-size="16.00">16</text>
<polygon fill="lightgray" stroke="transparent" points="746.5,0 746.5,-28 884.5,-28 884.5,0 746.5,0"/>
<polygon fill="none" stroke="black" points="746.5,0 746.5,-28 884.5,-28 884.5,0 746.5,0"/>
<text text-anchor="start" x="751.5" y="-10.2" font-family="Helvetica,Arial,sans-serif" font-size="16.00">[padding]</text>
</g>
<!-- &#45;templatens&#45;TemplField&#45;&gt;&#45;templatens&#45;AbcTempl&lt;float, char&gt; -->
<g id="edge4" class="edge">
<title>&#45;templatens&#45;TemplField:out_1&#45;&gt;&#45;templatens&#45;AbcTempl&lt;float, char&gt;:&#45;1</title>
<path fill="none" stroke="black" d="M378,-126C448.53,-126 468.64,-126 534.45,-126"/>
<polygon fill="black" stroke="black" points="534.5,-129.5 544.5,-126 534.5,-122.5 534.5,-129.5"/>
</g>
<!-- &#45;templatens&#45;AbcTempl -->
<g id="node4" class="node">
<title>&#45;templatens&#45;AbcTempl</title>
<polygon fill="#cde6ff" stroke="transparent" points="1051.5,-349 1051.5,-377 1286.5,-377 1286.5,-349 1051.5,-349"/>
<polygon fill="none" stroke="black" points="1051.5,-349 1051.5,-377 1286.5,-377 1286.5,-349 1051.5,-349"/>
<text text-anchor="start" x="1056.5" y="-360.2" font-family="Helvetica,Arial,sans-serif" font-size="16.00"> </text>
<text text-anchor="start" x="1061.5" y="-360.2" font-family="Helvetica,Arial,sans-serif" font-weight="bold" font-size="16.00">::templatens::AbcTempl</text>
<text text-anchor="start" x="1243.5" y="-360.2" font-family="Helvetica,Arial,sans-serif" font-size="16.00"> &#160;(0b)</text>
<polygon fill="none" stroke="black" points="1051.5,-321 1051.5,-349 1112.5,-349 1112.5,-321 1051.5,-321"/>
<text text-anchor="start" x="1097.5" y="-331.2" font-family="Helvetica,Arial,sans-serif" font-size="16.00">0</text>
<polygon fill="none" stroke="black" points="1112.5,-321 1112.5,-349 1152.5,-349 1152.5,-321 1112.5,-321"/>
<text text-anchor="start" x="1137.5" y="-331.2" font-family="Helvetica,Arial,sans-serif" font-size="16.00">0</text>
<polygon fill="none" stroke="black" points="1152.5,-321 1152.5,-349 1286.5,-349 1286.5,-321 1152.5,-321"/>
<text text-anchor="start" x="1157.5" y="-331.2" font-family="Helvetica,Arial,sans-serif" font-size="16.00">field1: TTypeA</text>
<polygon fill="none" stroke="black" points="1051.5,-293 1051.5,-321 1112.5,-321 1112.5,-293 1051.5,-293"/>
<text text-anchor="start" x="1097.5" y="-303.2" font-family="Helvetica,Arial,sans-serif" font-size="16.00">0</text>
<polygon fill="none" stroke="black" points="1112.5,-293 1112.5,-321 1152.5,-321 1152.5,-293 1112.5,-293"/>
<text text-anchor="start" x="1137.5" y="-303.2" font-family="Helvetica,Arial,sans-serif" font-size="16.00">0</text>
<polygon fill="none" stroke="black" points="1152.5,-293 1152.5,-321 1286.5,-321 1286.5,-293 1152.5,-293"/>
<text text-anchor="start" x="1157.5" y="-303.2" font-family="Helvetica,Arial,sans-serif" font-size="16.00">field2: bool</text>
<polygon fill="none" stroke="black" points="1051.5,-265 1051.5,-293 1112.5,-293 1112.5,-265 1051.5,-265"/>
<text text-anchor="start" x="1097.5" y="-275.2" font-family="Helvetica,Arial,sans-serif" font-size="16.00">0</text>
<polygon fill="none" stroke="black" points="1112.5,-265 1112.5,-293 1152.5,-293 1152.5,-265 1112.5,-265"/>
<text text-anchor="start" x="1137.5" y="-275.2" font-family="Helvetica,Arial,sans-serif" font-size="16.00">0</text>
<polygon fill="none" stroke="black" points="1152.5,-265 1152.5,-293 1286.5,-293 1286.5,-265 1152.5,-265"/>
<text text-anchor="start" x="1157.5" y="-275.2" font-family="Helvetica,Arial,sans-serif" font-size="16.00">field3: TTypeB</text>
</g>
<!-- &#45;templatens&#45;AbcTempl&lt;double, double&gt;&#45;&gt;&#45;templatens&#45;AbcTempl -->
<g id="edge5" class="edge">
<title>&#45;templatens&#45;AbcTempl&lt;double, double&gt;:&#45;1&#45;&gt;&#45;templatens&#45;AbcTempl:&#45;1</title>
<path fill="none" stroke="black" d="M907,-442C976.43,-442 978.02,-370.53 1040.83,-363.55"/>
<polygon fill="black" stroke="black" points="1041.2,-367.03 1051,-363 1040.83,-360.04 1041.2,-367.03"/>
</g>
<!-- &#45;templatens&#45;AbcTempl&lt;int, int&gt;&#45;&gt;&#45;templatens&#45;AbcTempl -->
<g id="edge6" class="edge">
<title>&#45;templatens&#45;AbcTempl&lt;int, int&gt;:&#45;1&#45;&gt;&#45;templatens&#45;AbcTempl:&#45;1</title>
<path fill="none" stroke="black" d="M870.5,-600C999.41,-600 922.89,-375.33 1040.97,-363.49"/>
<polygon fill="black" stroke="black" points="1041.18,-366.98 1051,-363 1040.84,-359.99 1041.18,-366.98"/>
</g>
<!-- &#45;templatens&#45;AbcTempl&lt;int, bool&gt;&#45;&gt;&#45;templatens&#45;AbcTempl -->
<g id="edge7" class="edge">
<title>&#45;templatens&#45;AbcTempl&lt;int, bool&gt;:&#45;1&#45;&gt;&#45;templatens&#45;AbcTempl:&#45;1</title>
<path fill="none" stroke="black" d="M877.5,-284C958.75,-284 965.8,-356.65 1040.97,-362.61"/>
<polygon fill="black" stroke="black" points="1040.87,-366.11 1051,-363 1041.14,-359.12 1040.87,-366.11"/>
</g>
<!-- &#45;templatens&#45;AbcTempl&lt;float, char&gt;&#45;&gt;&#45;templatens&#45;AbcTempl -->
<g id="edge8" class="edge">
<title>&#45;templatens&#45;AbcTempl&lt;float, char&gt;:&#45;1&#45;&gt;&#45;templatens&#45;AbcTempl:&#45;1</title>
<path fill="none" stroke="black" d="M885.5,-126C1010.46,-126 927.36,-350.22 1040.95,-362.48"/>
<polygon fill="black" stroke="black" points="1040.83,-365.98 1051,-363 1041.19,-358.99 1040.83,-365.98"/>
</g>
<!-- &#45;diamondns&#45;Cbc1 -->
<g id="node9" class="node">
<title>&#45;diamondns&#45;Cbc1</title>
<polygon fill="PaleGreen" stroke="transparent" points="81,-936 81,-964 298,-964 298,-936 81,-936"/>
<polygon fill="none" stroke="black" points="81,-936 81,-964 298,-964 298,-936 81,-936"/>
<text text-anchor="start" x="86" y="-947.2" font-family="Helvetica,Arial,sans-serif" font-size="16.00"> </text>
<text text-anchor="start" x="91" y="-947.2" font-family="Helvetica,Arial,sans-serif" font-weight="bold" font-size="16.00">::diamondns::Cbc1</text>
<text text-anchor="start" x="237" y="-947.2" font-family="Helvetica,Arial,sans-serif" font-size="16.00"> &#160;(320b)</text>
<polygon fill="none" stroke="black" points="81,-908 81,-936 122,-936 122,-908 81,-908"/>
<text text-anchor="start" x="107" y="-918.2" font-family="Helvetica,Arial,sans-serif" font-size="16.00">0</text>
<polygon fill="none" stroke="black" points="122,-908 122,-936 152,-936 152,-908 122,-908"/>
<text text-anchor="start" x="128" y="-918.2" font-family="Helvetica,Arial,sans-serif" font-size="16.00">72</text>
<polygon fill="#fefece" stroke="transparent" points="152,-908 152,-936 298,-936 298,-908 152,-908"/>
<polygon fill="none" stroke="black" points="152,-908 152,-936 298,-936 298,-908 152,-908"/>
<text text-anchor="start" x="157" y="-918.2" font-family="Helvetica,Arial,sans-serif" font-size="16.00">::diamondns::Bbc1</text>
<polygon fill="none" stroke="black" points="81,-880 81,-908 122,-908 122,-880 81,-880"/>
<text text-anchor="start" x="98" y="-890.2" font-family="Helvetica,Arial,sans-serif" font-size="16.00">72</text>
<polygon fill="none" stroke="black" points="122,-880 122,-908 152,-908 152,-880 122,-880"/>
<text text-anchor="start" x="128" y="-890.2" font-family="Helvetica,Arial,sans-serif" font-size="16.00">56</text>
<polygon fill="lightgray" stroke="transparent" points="152,-880 152,-908 298,-908 298,-880 152,-880"/>
<polygon fill="none" stroke="black" points="152,-880 152,-908 298,-908 298,-880 152,-880"/>
<text text-anchor="start" x="157" y="-890.2" font-family="Helvetica,Arial,sans-serif" font-size="16.00">[padding]</text>
<polygon fill="none" stroke="black" points="81,-852 81,-880 122,-880 122,-852 81,-852"/>
<text text-anchor="start" x="89" y="-862.2" font-family="Helvetica,Arial,sans-serif" font-size="16.00">128</text>
<polygon fill="none" stroke="black" points="122,-852 122,-880 152,-880 152,-852 122,-852"/>
<text text-anchor="start" x="128" y="-862.2" font-family="Helvetica,Arial,sans-serif" font-size="16.00">72</text>
<polygon fill="#fefece" stroke="transparent" points="152,-852 152,-880 298,-880 298,-852 152,-852"/>
<polygon fill="none" stroke="black" points="152,-852 152,-880 298,-880 298,-852 152,-852"/>
<text text-anchor="start" x="157" y="-862.2" font-family="Helvetica,Arial,sans-serif" font-size="16.00">::diamondns::Bbc2</text>
<polygon fill="none" stroke="black" points="81,-824 81,-852 122,-852 122,-824 81,-824"/>
<text text-anchor="start" x="89" y="-834.2" font-family="Helvetica,Arial,sans-serif" font-size="16.00">200</text>
<polygon fill="none" stroke="black" points="122,-824 122,-852 152,-852 152,-824 122,-824"/>
<text text-anchor="start" x="128" y="-834.2" font-family="Helvetica,Arial,sans-serif" font-size="16.00">24</text>
<polygon fill="lightgray" stroke="transparent" points="152,-824 152,-852 298,-852 298,-824 152,-824"/>
<polygon fill="none" stroke="black" points="152,-824 152,-852 298,-852 298,-824 152,-824"/>
<text text-anchor="start" x="157" y="-834.2" font-family="Helvetica,Arial,sans-serif" font-size="16.00">[padding]</text>
<polygon fill="none" stroke="black" points="81,-796 81,-824 122,-824 122,-796 81,-796"/>
<text text-anchor="start" x="89" y="-806.2" font-family="Helvetica,Arial,sans-serif" font-size="16.00">224</text>
<polygon fill="none" stroke="black" points="122,-796 122,-824 152,-824 152,-796 122,-796"/>
<text text-anchor="start" x="128" y="-806.2" font-family="Helvetica,Arial,sans-serif" font-size="16.00">32</text>
<polygon fill="none" stroke="black" points="152,-796 152,-824 298,-824 298,-796 152,-796"/>
<text text-anchor="start" x="157" y="-806.2" font-family="Helvetica,Arial,sans-serif" font-size="16.00">fieldD1: int</text>
<polygon fill="none" stroke="black" points="81,-768 81,-796 122,-796 122,-768 81,-768"/>
<text text-anchor="start" x="89" y="-778.2" font-family="Helvetica,Arial,sans-serif" font-size="16.00">256</text>
<polygon fill="none" stroke="black" points="122,-768 122,-796 152,-796 152,-768 122,-768"/>
<text text-anchor="start" x="137" y="-778.2" font-family="Helvetica,Arial,sans-serif" font-size="16.00">5</text>
<polygon fill="none" stroke="black" points="152,-768 152,-796 298,-796 298,-768 152,-768"/>
<text text-anchor="start" x="157" y="-778.2" font-family="Helvetica,Arial,sans-serif" font-size="16.00">fieldD2</text>
<polygon fill="none" stroke="black" points="81,-740 81,-768 122,-768 122,-740 81,-740"/>
<text text-anchor="start" x="89" y="-750.2" font-family="Helvetica,Arial,sans-serif" font-size="16.00">261</text>
<polygon fill="none" stroke="black" points="122,-740 122,-768 152,-768 152,-740 122,-740"/>
<text text-anchor="start" x="137" y="-750.2" font-family="Helvetica,Arial,sans-serif" font-size="16.00">2</text>
<polygon fill="#fefece" stroke="transparent" points="152,-740 152,-768 298,-768 298,-740 152,-740"/>
<polygon fill="none" stroke="black" points="152,-740 152,-768 298,-768 298,-740 152,-740"/>
<polygon fill="none" stroke="black" points="81,-712 81,-740 122,-740 122,-712 81,-712"/>
<text text-anchor="start" x="89" y="-722.2" font-family="Helvetica,Arial,sans-serif" font-size="16.00">263</text>
<polygon fill="none" stroke="black" points="122,-712 122,-740 152,-740 152,-712 122,-712"/>
<text text-anchor="start" x="137" y="-722.2" font-family="Helvetica,Arial,sans-serif" font-size="16.00">1</text>
<polygon fill="lightgray" stroke="transparent" points="152,-712 152,-740 298,-740 298,-712 152,-712"/>
<polygon fill="none" stroke="black" points="152,-712 152,-740 298,-740 298,-712 152,-712"/>
<text text-anchor="start" x="157" y="-722.2" font-family="Helvetica,Arial,sans-serif" font-size="16.00">[padding]</text>
<polygon fill="none" stroke="black" points="81,-684 81,-712 122,-712 122,-684 81,-684"/>
<text text-anchor="start" x="89" y="-694.2" font-family="Helvetica,Arial,sans-serif" font-size="16.00">264</text>
<polygon fill="none" stroke="black" points="122,-684 122,-712 152,-712 152,-684 122,-684"/>
<text text-anchor="start" x="137" y="-694.2" font-family="Helvetica,Arial,sans-serif" font-size="16.00">5</text>
<polygon fill="none" stroke="black" points="152,-684 152,-712 298,-712 298,-684 152,-684"/>
<text text-anchor="start" x="157" y="-694.2" font-family="Helvetica,Arial,sans-serif" font-size="16.00">fieldD3</text>
<polygon fill="none" stroke="black" points="81,-656 81,-684 122,-684 122,-656 81,-656"/>
<text text-anchor="start" x="89" y="-666.2" font-family="Helvetica,Arial,sans-serif" font-size="16.00">269</text>
<polygon fill="none" stroke="black" points="122,-656 122,-684 152,-684 152,-656 122,-656"/>
<text text-anchor="start" x="128" y="-666.2" font-family="Helvetica,Arial,sans-serif" font-size="16.00">19</text>
<polygon fill="lightgray" stroke="transparent" points="152,-656 152,-684 298,-684 298,-656 152,-656"/>
<polygon fill="none" stroke="black" points="152,-656 152,-684 298,-684 298,-656 152,-656"/>
<text text-anchor="start" x="157" y="-666.2" font-family="Helvetica,Arial,sans-serif" font-size="16.00">[padding]</text>
<polygon fill="none" stroke="black" points="81,-628 81,-656 122,-656 122,-628 81,-628"/>
<text text-anchor="start" x="89" y="-638.2" font-family="Helvetica,Arial,sans-serif" font-size="16.00">288</text>
<polygon fill="none" stroke="black" points="122,-628 122,-656 152,-656 152,-628 122,-628"/>
<text text-anchor="start" x="128" y="-638.2" font-family="Helvetica,Arial,sans-serif" font-size="16.00">32</text>
<polygon fill="#fefece" stroke="transparent" points="152,-628 152,-656 298,-656 298,-628 152,-628"/>
<polygon fill="none" stroke="black" points="152,-628 152,-656 298,-656 298,-628 152,-628"/>
<text text-anchor="start" x="157" y="-638.2" font-family="Helvetica,Arial,sans-serif" font-size="16.00">::diamondns::Abc1</text>
</g>
<!-- &#45;diamondns&#45;Bbc2 -->
<g id="node10" class="node">
<title>&#45;diamondns&#45;Bbc2</title>
<polygon fill="PaleGreen" stroke="transparent" points="606.5,-782 606.5,-810 823.5,-810 823.5,-782 606.5,-782"/>
<polygon fill="none" stroke="black" points="606.5,-782 606.5,-810 823.5,-810 823.5,-782 606.5,-782"/>
<text text-anchor="start" x="611.5" y="-793.2" font-family="Helvetica,Arial,sans-serif" font-size="16.00"> </text>
<text text-anchor="start" x="616.5" y="-793.2" font-family="Helvetica,Arial,sans-serif" font-weight="bold" font-size="16.00">::diamondns::Bbc2</text>
<text text-anchor="start" x="762.5" y="-793.2" font-family="Helvetica,Arial,sans-serif" font-size="16.00"> &#160;(128b)</text>
<polygon fill="none" stroke="black" points="606.5,-754 606.5,-782 642.5,-782 642.5,-754 606.5,-754"/>
<text text-anchor="start" x="627.5" y="-764.2" font-family="Helvetica,Arial,sans-serif" font-size="16.00">0</text>
<polygon fill="none" stroke="black" points="642.5,-754 642.5,-782 675.5,-782 675.5,-754 642.5,-754"/>
<text text-anchor="start" x="651.5" y="-764.2" font-family="Helvetica,Arial,sans-serif" font-size="16.00">64</text>
<polygon fill="#ffdada" stroke="transparent" points="675.5,-754 675.5,-782 823.5,-782 823.5,-754 675.5,-754"/>
<polygon fill="none" stroke="black" points="675.5,-754 675.5,-782 823.5,-782 823.5,-754 675.5,-754"/>
<text text-anchor="start" x="680.5" y="-764.2" font-family="Helvetica,Arial,sans-serif" font-size="16.00">_vptr.Bbc2</text>
<polygon fill="none" stroke="black" points="606.5,-726 606.5,-754 642.5,-754 642.5,-726 606.5,-726"/>
<text text-anchor="start" x="618.5" y="-736.2" font-family="Helvetica,Arial,sans-serif" font-size="16.00">64</text>
<polygon fill="none" stroke="black" points="642.5,-726 642.5,-754 675.5,-754 675.5,-726 642.5,-726"/>
<text text-anchor="start" x="660.5" y="-736.2" font-family="Helvetica,Arial,sans-serif" font-size="16.00">8</text>
<polygon fill="none" stroke="black" points="675.5,-726 675.5,-754 823.5,-754 823.5,-726 675.5,-726"/>
<text text-anchor="start" x="680.5" y="-736.2" font-family="Helvetica,Arial,sans-serif" font-size="16.00">fieldC: char</text>
<polygon fill="none" stroke="black" points="606.5,-698 606.5,-726 642.5,-726 642.5,-698 606.5,-698"/>
<text text-anchor="start" x="618.5" y="-708.2" font-family="Helvetica,Arial,sans-serif" font-size="16.00">72</text>
<polygon fill="none" stroke="black" points="642.5,-698 642.5,-726 675.5,-726 675.5,-698 642.5,-698"/>
<text text-anchor="start" x="651.5" y="-708.2" font-family="Helvetica,Arial,sans-serif" font-size="16.00">24</text>
<polygon fill="lightgray" stroke="transparent" points="675.5,-698 675.5,-726 823.5,-726 823.5,-698 675.5,-698"/>
<polygon fill="none" stroke="black" points="675.5,-698 675.5,-726 823.5,-726 823.5,-698 675.5,-698"/>
<text text-anchor="start" x="680.5" y="-708.2" font-family="Helvetica,Arial,sans-serif" font-size="16.00">[padding]</text>
<polygon fill="none" stroke="black" points="606.5,-670 606.5,-698 642.5,-698 642.5,-670 606.5,-670"/>
<text text-anchor="start" x="618.5" y="-680.2" font-family="Helvetica,Arial,sans-serif" font-size="16.00">96</text>
<polygon fill="none" stroke="black" points="642.5,-670 642.5,-698 675.5,-698 675.5,-670 642.5,-670"/>
<text text-anchor="start" x="651.5" y="-680.2" font-family="Helvetica,Arial,sans-serif" font-size="16.00">32</text>
<polygon fill="#fefece" stroke="transparent" points="675.5,-670 675.5,-698 823.5,-698 823.5,-670 675.5,-670"/>
<polygon fill="none" stroke="black" points="675.5,-670 675.5,-698 823.5,-698 823.5,-670 675.5,-670"/>
<text text-anchor="start" x="680.5" y="-680.2" font-family="Helvetica,Arial,sans-serif" font-size="16.00">::diamondns::Abc1</text>
</g>
<!-- &#45;diamondns&#45;Cbc1&#45;&gt;&#45;diamondns&#45;Bbc2 -->
<g id="edge10" class="edge">
<title>&#45;diamondns&#45;Cbc1:out_2&#45;&gt;&#45;diamondns&#45;Bbc2:&#45;1</title>
<path fill="none" stroke="black" d="M299,-866C435.32,-866 464.38,-799.38 595.46,-796.12"/>
<polygon fill="black" stroke="black" points="595.54,-799.62 605.5,-796 595.46,-792.62 595.54,-799.62"/>
</g>
<!-- &#45;diamondns&#45;Bbc1 -->
<g id="node11" class="node">
<title>&#45;diamondns&#45;Bbc1</title>
<polygon fill="PaleGreen" stroke="transparent" points="606.5,-940 606.5,-968 823.5,-968 823.5,-940 606.5,-940"/>
<polygon fill="none" stroke="black" points="606.5,-940 606.5,-968 823.5,-968 823.5,-940 606.5,-940"/>
<text text-anchor="start" x="611.5" y="-951.2" font-family="Helvetica,Arial,sans-serif" font-size="16.00"> </text>
<text text-anchor="start" x="616.5" y="-951.2" font-family="Helvetica,Arial,sans-serif" font-weight="bold" font-size="16.00">::diamondns::Bbc1</text>
<text text-anchor="start" x="762.5" y="-951.2" font-family="Helvetica,Arial,sans-serif" font-size="16.00"> &#160;(128b)</text>
<polygon fill="none" stroke="black" points="606.5,-912 606.5,-940 642.5,-940 642.5,-912 606.5,-912"/>
<text text-anchor="start" x="627.5" y="-922.2" font-family="Helvetica,Arial,sans-serif" font-size="16.00">0</text>
<polygon fill="none" stroke="black" points="642.5,-912 642.5,-940 675.5,-940 675.5,-912 642.5,-912"/>
<text text-anchor="start" x="651.5" y="-922.2" font-family="Helvetica,Arial,sans-serif" font-size="16.00">64</text>
<polygon fill="#ffdada" stroke="transparent" points="675.5,-912 675.5,-940 823.5,-940 823.5,-912 675.5,-912"/>
<polygon fill="none" stroke="black" points="675.5,-912 675.5,-940 823.5,-940 823.5,-912 675.5,-912"/>
<text text-anchor="start" x="680.5" y="-922.2" font-family="Helvetica,Arial,sans-serif" font-size="16.00">_vptr.Bbc1</text>
<polygon fill="none" stroke="black" points="606.5,-884 606.5,-912 642.5,-912 642.5,-884 606.5,-884"/>
<text text-anchor="start" x="618.5" y="-894.2" font-family="Helvetica,Arial,sans-serif" font-size="16.00">64</text>
<polygon fill="none" stroke="black" points="642.5,-884 642.5,-912 675.5,-912 675.5,-884 642.5,-884"/>
<text text-anchor="start" x="660.5" y="-894.2" font-family="Helvetica,Arial,sans-serif" font-size="16.00">8</text>
<polygon fill="none" stroke="black" points="675.5,-884 675.5,-912 823.5,-912 823.5,-884 675.5,-884"/>
<text text-anchor="start" x="680.5" y="-894.2" font-family="Helvetica,Arial,sans-serif" font-size="16.00">fieldB: bool</text>
<polygon fill="none" stroke="black" points="606.5,-856 606.5,-884 642.5,-884 642.5,-856 606.5,-856"/>
<text text-anchor="start" x="618.5" y="-866.2" font-family="Helvetica,Arial,sans-serif" font-size="16.00">72</text>
<polygon fill="none" stroke="black" points="642.5,-856 642.5,-884 675.5,-884 675.5,-856 642.5,-856"/>
<text text-anchor="start" x="651.5" y="-866.2" font-family="Helvetica,Arial,sans-serif" font-size="16.00">24</text>
<polygon fill="lightgray" stroke="transparent" points="675.5,-856 675.5,-884 823.5,-884 823.5,-856 675.5,-856"/>
<polygon fill="none" stroke="black" points="675.5,-856 675.5,-884 823.5,-884 823.5,-856 675.5,-856"/>
<text text-anchor="start" x="680.5" y="-866.2" font-family="Helvetica,Arial,sans-serif" font-size="16.00">[padding]</text>
<polygon fill="none" stroke="black" points="606.5,-828 606.5,-856 642.5,-856 642.5,-828 606.5,-828"/>
<text text-anchor="start" x="618.5" y="-838.2" font-family="Helvetica,Arial,sans-serif" font-size="16.00">96</text>
<polygon fill="none" stroke="black" points="642.5,-828 642.5,-856 675.5,-856 675.5,-828 642.5,-828"/>
<text text-anchor="start" x="651.5" y="-838.2" font-family="Helvetica,Arial,sans-serif" font-size="16.00">32</text>
<polygon fill="#fefece" stroke="transparent" points="675.5,-828 675.5,-856 823.5,-856 823.5,-828 675.5,-828"/>
<polygon fill="none" stroke="black" points="675.5,-828 675.5,-856 823.5,-856 823.5,-828 675.5,-828"/>
<text text-anchor="start" x="680.5" y="-838.2" font-family="Helvetica,Arial,sans-serif" font-size="16.00">::diamondns::Abc1</text>
</g>
<!-- &#45;diamondns&#45;Cbc1&#45;&gt;&#45;diamondns&#45;Bbc1 -->
<g id="edge9" class="edge">
<title>&#45;diamondns&#45;Cbc1:out_0&#45;&gt;&#45;diamondns&#45;Bbc1:&#45;1</title>
<path fill="none" stroke="black" d="M299,-922C432.49,-922 466.82,-952.4 595.27,-953.94"/>
<polygon fill="black" stroke="black" points="595.48,-957.44 605.5,-954 595.52,-950.44 595.48,-957.44"/>
</g>
<!-- &#45;diamondns&#45;Abc1 -->
<g id="node12" class="node">
<title>&#45;diamondns&#45;Abc1</title>
<polygon fill="PaleGreen" stroke="transparent" points="1064.5,-670 1064.5,-698 1272.5,-698 1272.5,-670 1064.5,-670"/>
<polygon fill="none" stroke="black" points="1064.5,-670 1064.5,-698 1272.5,-698 1272.5,-670 1064.5,-670"/>
<text text-anchor="start" x="1069.5" y="-681.2" font-family="Helvetica,Arial,sans-serif" font-size="16.00"> </text>
<text text-anchor="start" x="1074.5" y="-681.2" font-family="Helvetica,Arial,sans-serif" font-weight="bold" font-size="16.00">::diamondns::Abc1</text>
<text text-anchor="start" x="1220.5" y="-681.2" font-family="Helvetica,Arial,sans-serif" font-size="16.00"> &#160;(32b)</text>
<polygon fill="none" stroke="black" points="1064.5,-642 1064.5,-670 1125.5,-670 1125.5,-642 1064.5,-642"/>
<text text-anchor="start" x="1110.5" y="-652.2" font-family="Helvetica,Arial,sans-serif" font-size="16.00">0</text>
<polygon fill="none" stroke="black" points="1125.5,-642 1125.5,-670 1174.5,-670 1174.5,-642 1125.5,-642"/>
<text text-anchor="start" x="1150.5" y="-652.2" font-family="Helvetica,Arial,sans-serif" font-size="16.00">32</text>
<polygon fill="none" stroke="black" points="1174.5,-642 1174.5,-670 1272.5,-670 1272.5,-642 1174.5,-642"/>
<text text-anchor="start" x="1179.5" y="-652.2" font-family="Helvetica,Arial,sans-serif" font-size="16.00">fieldA: int</text>
</g>
<!-- &#45;diamondns&#45;Cbc1&#45;&gt;&#45;diamondns&#45;Abc1 -->
<g id="edge11" class="edge">
<title>&#45;diamondns&#45;Cbc1:out_10&#45;&gt;&#45;diamondns&#45;Abc1:&#45;1</title>
<path fill="none" stroke="black" d="M299,-642C569.35,-642 637.71,-637.08 907,-661 973.47,-666.9 991.42,-682.32 1053.19,-683.87"/>
<polygon fill="black" stroke="black" points="1053.46,-687.38 1063.5,-684 1053.54,-680.38 1053.46,-687.38"/>
</g>
<!-- &#45;diamondns&#45;Bbc2&#45;&gt;&#45;diamondns&#45;Abc1 -->
<g id="edge12" class="edge">
<title>&#45;diamondns&#45;Bbc2:out_3&#45;&gt;&#45;diamondns&#45;Abc1:&#45;1</title>
<path fill="none" stroke="black" d="M824.5,-684C927.3,-684 955.48,-684 1053.47,-684"/>
<polygon fill="black" stroke="black" points="1053.5,-687.5 1063.5,-684 1053.5,-680.5 1053.5,-687.5"/>
</g>
<!-- &#45;diamondns&#45;Bbc1&#45;&gt;&#45;diamondns&#45;Abc1 -->
<g id="edge13" class="edge">
<title>&#45;diamondns&#45;Bbc1:out_3&#45;&gt;&#45;diamondns&#45;Abc1:&#45;1</title>
<path fill="none" stroke="black" d="M824.5,-842C862.56,-842 873.45,-836.98 907,-819 984.81,-777.32 972.77,-691.08 1053.22,-684.41"/>
<polygon fill="black" stroke="black" points="1053.65,-687.9 1063.5,-684 1053.37,-680.9 1053.65,-687.9"/>
</g>
</g>
</svg>
